<?xml version="1.0" encoding="utf-8" standalone="no"?>
<!DOCTYPE svg PUBLIC "-//W3C//DTD SVG 1.1//EN"
  "http://www.w3.org/Graphics/SVG/1.1/DTD/svg11.dtd">
<svg height="345.6pt" version="1.1" viewBox="0 0 460.8 345.6" width="460.8pt" xmlns="http://www.w3.org/2000/svg" xmlns:xlink="http://www.w3.org/1999/xlink">
 <metadata>
  <rdf:RDF xmlns:cc="http://creativecommons.org/ns#" xmlns:dc="http://purl.org/dc/elements/1.1/" xmlns:rdf="http://www.w3.org/1999/02/22-rdf-syntax-ns#">
   <cc:Work>
    <dc:type rdf:resource="http://purl.org/dc/dcmitype/StillImage"/>
    <dc:date>2022-01-29T11:36:56.180657</dc:date>
    <dc:format>image/svg+xml</dc:format>
    <dc:creator>
     <cc:Agent>
      <dc:title>Matplotlib v3.4.3, https://matplotlib.org/</dc:title>
     </cc:Agent>
    </dc:creator>
   </cc:Work>
  </rdf:RDF>
 </metadata>
 <defs>
  <style type="text/css">*{stroke-linecap:butt;stroke-linejoin:round;}</style>
 </defs>
 <g id="figure_1">
  <g id="patch_1">
   <path d="M 0 345.6 
L 460.8 345.6 
L 460.8 0 
L 0 0 
z
" style="fill:none;"/>
  </g>
  <g id="axes_1">
   <g id="patch_2">
    <path d="M 57.6 307.584 
L 414.72 307.584 
L 414.72 41.472 
L 57.6 41.472 
z
" style="fill:none;"/>
   </g>
   <g id="PolyCollection_1">
    <defs>
     <path d="M 73.832727 -210.925283 
L 73.832727 -50.112 
L 74.239053 -137.722097 
L 74.645379 -149.511297 
L 75.051706 -131.663742 
L 75.458032 -129.561735 
L 75.864358 -134.931385 
L 76.270684 -134.461463 
L 76.67701 -133.274981 
L 77.083336 -107.919087 
L 77.489662 -129.775679 
L 77.895988 -130.482519 
L 78.302314 -129.586833 
L 78.70864 -139.774308 
L 79.114966 -128.434851 
L 79.521293 -137.756574 
L 79.927619 -131.414151 
L 80.333945 -129.536547 
L 80.740271 -131.795081 
L 81.146597 -128.301414 
L 81.552923 -128.864452 
L 81.959249 -131.166887 
L 82.365575 -132.253526 
L 82.771901 -83.890097 
L 83.178227 -120.146625 
L 83.584553 -136.389983 
L 83.99088 -129.012037 
L 84.397206 -128.755389 
L 84.803532 -120.229871 
L 85.209858 -101.156308 
L 85.616184 -86.960415 
L 86.02251 -98.787118 
L 86.428836 -57.614536 
L 86.835162 -126.222858 
L 87.241488 -162.292299 
L 87.647814 -219.204257 
L 88.05414 -221.128346 
L 88.460466 -231.980491 
L 88.866793 -239.435619 
L 89.273119 -231.7606 
L 89.679445 -243.899995 
L 90.085771 -239.497821 
L 90.492097 -235.77772 
L 90.898423 -203.006975 
L 91.304749 -245.938202 
L 91.711075 -247.405814 
L 92.117401 -246.363778 
L 92.523727 -251.322146 
L 92.930053 -251.877543 
L 93.33638 -250.75202 
L 93.742706 -249.554961 
L 94.149032 -241.358474 
L 94.555358 -251.213708 
L 94.961684 -246.656163 
L 95.36801 -250.341933 
L 95.774336 -246.926395 
L 96.180662 -249.060197 
L 96.586988 -246.716113 
L 96.993314 -249.89766 
L 97.39964 -248.532646 
L 97.805967 -250.552005 
L 98.212293 -251.094847 
L 98.618619 -247.922362 
L 99.024945 -247.741666 
L 99.431271 -247.279842 
L 99.837597 -247.910587 
L 100.243923 -247.206144 
L 100.650249 -249.339397 
L 101.056575 -249.321106 
L 101.462901 -248.403684 
L 101.869227 -250.394266 
L 102.275554 -251.864322 
L 102.68188 -245.723394 
L 103.088206 -247.804081 
L 103.494532 -248.07978 
L 103.900858 -246.650769 
L 104.307184 -250.593531 
L 104.71351 -249.990099 
L 105.119836 -248.453064 
L 105.526162 -247.06954 
L 105.932488 -252.327018 
L 106.338814 -249.831511 
L 106.745141 -241.940695 
L 107.151467 -242.469152 
L 107.557793 -244.519013 
L 107.964119 -243.44915 
L 108.370445 -245.655926 
L 108.776771 -251.912307 
L 109.183097 -254.051514 
L 109.589423 -251.076311 
L 109.995749 -244.546692 
L 110.402075 -235.494716 
L 110.808401 -236.597466 
L 111.214728 -249.252691 
L 111.621054 -245.525242 
L 112.02738 -250.716609 
L 112.433706 -250.042039 
L 112.840032 -252.239766 
L 113.246358 -249.929028 
L 113.652684 -245.8358 
L 114.05901 -253.53667 
L 114.465336 -255.274503 
L 114.871662 -252.26008 
L 115.277988 -250.889888 
L 115.684314 -250.80627 
L 116.090641 -249.74889 
L 116.496967 -246.798883 
L 116.903293 -247.973885 
L 117.309619 -244.053945 
L 117.715945 -248.965108 
L 118.122271 -250.798951 
L 118.528597 -254.557238 
L 118.934923 -251.018067 
L 119.341249 -252.554041 
L 119.747575 -250.852458 
L 120.153901 -245.375236 
L 120.560228 -247.961447 
L 120.966554 -251.977023 
L 121.37288 -251.349482 
L 121.779206 -250.133192 
L 122.185532 -252.215729 
L 122.591858 -254.985971 
L 122.998184 -250.829031 
L 123.40451 -251.509335 
L 123.810836 -253.841252 
L 124.217162 -253.407034 
L 124.623488 -254.700449 
L 125.029815 -250.862481 
L 125.436141 -251.89218 
L 125.842467 -252.664535 
L 126.248793 -249.779762 
L 126.655119 -243.828026 
L 127.061445 -243.818606 
L 127.467771 -247.736827 
L 127.874097 -243.444956 
L 128.280423 -253.913331 
L 128.686749 -244.556831 
L 129.093075 -242.100422 
L 129.499402 -249.933446 
L 129.905728 -249.932498 
L 130.312054 -249.774299 
L 130.71838 -255.104159 
L 131.124706 -250.873826 
L 131.531032 -251.284793 
L 131.937358 -251.39199 
L 132.343684 -248.264082 
L 132.75001 -240.507647 
L 133.156336 -233.578984 
L 133.562662 -254.034038 
L 133.968989 -251.969161 
L 134.375315 -256.211405 
L 134.781641 -253.561786 
L 135.187967 -254.166512 
L 135.594293 -254.165319 
L 136.000619 -251.707721 
L 136.406945 -252.327915 
L 136.813271 -253.435937 
L 137.219597 -250.55322 
L 137.625923 -253.2648 
L 138.032249 -253.625652 
L 138.438575 -253.994784 
L 138.844902 -253.290717 
L 139.251228 -251.006708 
L 139.657554 -254.751069 
L 140.06388 -253.384756 
L 140.470206 -251.700021 
L 140.876532 -252.141402 
L 141.282858 -253.236547 
L 141.689184 -252.335169 
L 142.09551 -253.706882 
L 142.501836 -251.74304 
L 142.908162 -250.493151 
L 143.314489 -250.04075 
L 143.720815 -251.112635 
L 144.127141 -253.504075 
L 144.533467 -251.603336 
L 144.939793 -253.503143 
L 145.346119 -252.553232 
L 145.752445 -254.754601 
L 146.158771 -251.864013 
L 146.565097 -253.561325 
L 146.971423 -252.613571 
L 147.377749 -253.366081 
L 147.784076 -249.788093 
L 148.190402 -252.039483 
L 148.596728 -254.260485 
L 149.003054 -254.533425 
L 149.40938 -252.720962 
L 149.815706 -254.970697 
L 150.222032 -252.511979 
L 150.628358 -252.109107 
L 151.034684 -253.624769 
L 151.44101 -253.580843 
L 151.847336 -252.507533 
L 152.253663 -249.777932 
L 152.659989 -255.221602 
L 153.066315 -253.651496 
L 153.472641 -253.721044 
L 153.878967 -251.511323 
L 154.285293 -251.306518 
L 154.691619 -253.258521 
L 155.097945 -252.648001 
L 155.504271 -252.831841 
L 155.910597 -251.371102 
L 156.316923 -251.416024 
L 156.72325 -253.591487 
L 157.129576 -251.255549 
L 157.535902 -253.557353 
L 157.942228 -252.651622 
L 158.348554 -250.572258 
L 158.75488 -253.707369 
L 159.161206 -252.10785 
L 159.567532 -254.059412 
L 159.973858 -251.435252 
L 160.380184 -253.83239 
L 160.78651 -252.517336 
L 161.192837 -251.377423 
L 161.599163 -252.638646 
L 162.005489 -251.096835 
L 162.411815 -253.929711 
L 162.818141 -252.924512 
L 163.224467 -253.886956 
L 163.630793 -249.61631 
L 164.037119 -255.458451 
L 164.443445 -252.092688 
L 164.849771 -249.117591 
L 165.256097 -254.867995 
L 165.662423 -255.063713 
L 166.06875 -252.988907 
L 166.475076 -254.143169 
L 166.881402 -254.021696 
L 167.287728 -253.15028 
L 167.694054 -252.031641 
L 168.10038 -255.457941 
L 168.506706 -253.838696 
L 168.913032 -251.985753 
L 169.319358 -251.652994 
L 169.725684 -251.405501 
L 170.13201 -250.130851 
L 170.538337 -253.124631 
L 170.944663 -252.745286 
L 171.350989 -250.839674 
L 171.757315 -254.580375 
L 172.163641 -254.313248 
L 172.569967 -249.883657 
L 172.976293 -249.87087 
L 173.382619 -251.629737 
L 173.788945 -252.708534 
L 174.195271 -253.891398 
L 174.601597 -252.989441 
L 175.007924 -253.550918 
L 175.41425 -253.47654 
L 175.820576 -256.280079 
L 176.226902 -251.54861 
L 176.633228 -250.522203 
L 177.039554 -253.622926 
L 177.44588 -250.263443 
L 177.852206 -247.293084 
L 178.258532 -252.590931 
L 178.664858 -252.570308 
L 179.071184 -251.227658 
L 179.477511 -252.106537 
L 179.883837 -251.941594 
L 180.290163 -254.700041 
L 180.696489 -249.129398 
L 181.102815 -253.812988 
L 181.509141 -254.102141 
L 181.915467 -255.188392 
L 182.321793 -252.538739 
L 182.728119 -252.179492 
L 183.134445 -254.421339 
L 183.540771 -253.673244 
L 183.947098 -252.592918 
L 184.353424 -252.927458 
L 184.75975 -251.126659 
L 185.166076 -253.188327 
L 185.572402 -254.119768 
L 185.978728 -255.670871 
L 186.385054 -254.260643 
L 186.79138 -253.212931 
L 187.197706 -250.215682 
L 187.604032 -252.420169 
L 188.010358 -252.847005 
L 188.416684 -253.677173 
L 188.823011 -253.210265 
L 189.229337 -253.291976 
L 189.635663 -252.077536 
L 190.041989 -254.381828 
L 190.448315 -254.450008 
L 190.854641 -250.626626 
L 191.260967 -252.992357 
L 191.667293 -255.978405 
L 192.073619 -253.392933 
L 192.479945 -253.009014 
L 192.886271 -250.010422 
L 193.292598 -251.056612 
L 193.698924 -253.395804 
L 194.10525 -255.393048 
L 194.511576 -254.224747 
L 194.917902 -252.443697 
L 195.324228 -250.79428 
L 195.730554 -250.68973 
L 196.13688 -253.657331 
L 196.543206 -250.848456 
L 196.949532 -249.745781 
L 197.355858 -250.737162 
L 197.762185 -253.825486 
L 198.168511 -253.090978 
L 198.574837 -251.624052 
L 198.981163 -254.271301 
L 199.387489 -253.1638 
L 199.793815 -249.237042 
L 200.200141 -247.44253 
L 200.606467 -252.29501 
L 201.012793 -253.480792 
L 201.419119 -254.15556 
L 201.825445 -248.259711 
L 202.231772 -253.411323 
L 202.638098 -254.461022 
L 203.044424 -254.36129 
L 203.45075 -254.503879 
L 203.857076 -252.951319 
L 204.263402 -252.521986 
L 204.669728 -251.644077 
L 205.076054 -253.363293 
L 205.48238 -253.664284 
L 205.888706 -253.849449 
L 206.295032 -250.982289 
L 206.701359 -250.463111 
L 207.107685 -252.310305 
L 207.514011 -252.432748 
L 207.920337 -251.636583 
L 208.326663 -254.525477 
L 208.732989 -255.658492 
L 209.139315 -247.82277 
L 209.545641 -250.762248 
L 209.951967 -250.908861 
L 210.358293 -252.429021 
L 210.764619 -252.228698 
L 211.170946 -249.068461 
L 211.577272 -253.819427 
L 211.983598 -254.17451 
L 212.389924 -251.616857 
L 212.79625 -252.472069 
L 213.202576 -253.709158 
L 213.608902 -255.196012 
L 214.015228 -254.539705 
L 214.421554 -248.549597 
L 214.82788 -249.866691 
L 215.234206 -251.23891 
L 215.640532 -248.685148 
L 216.046859 -249.431684 
L 216.453185 -252.420384 
L 216.859511 -251.861784 
L 217.265837 -252.055042 
L 217.672163 -248.931768 
L 218.078489 -252.950232 
L 218.484815 -244.797765 
L 218.891141 -253.753052 
L 219.297467 -253.095175 
L 219.703793 -253.870075 
L 220.110119 -253.124053 
L 220.516446 -254.701301 
L 220.922772 -253.382877 
L 221.329098 -254.44432 
L 221.735424 -249.542633 
L 222.14175 -253.644698 
L 222.548076 -253.770313 
L 222.954402 -252.158966 
L 223.360728 -250.499266 
L 223.767054 -248.758933 
L 224.17338 -249.7127 
L 224.579706 -253.726979 
L 224.986033 -255.09484 
L 225.392359 -251.444732 
L 225.798685 -251.166045 
L 226.205011 -232.340343 
L 226.611337 -242.180786 
L 227.017663 -246.951144 
L 227.423989 -251.264017 
L 227.830315 -245.053364 
L 228.236641 -249.058072 
L 228.642967 -246.467988 
L 229.049293 -245.243121 
L 229.45562 -253.043821 
L 229.861946 -254.840652 
L 230.268272 -251.889771 
L 230.674598 -253.773055 
L 231.080924 -251.086022 
L 231.48725 -248.584353 
L 231.893576 -253.164296 
L 232.299902 -247.109165 
L 232.706228 -252.57731 
L 233.112554 -248.632167 
L 233.51888 -241.985667 
L 233.925207 -250.788515 
L 234.331533 -251.304944 
L 234.737859 -249.729014 
L 235.144185 -251.243063 
L 235.550511 -250.437618 
L 235.956837 -247.086074 
L 236.363163 -248.013755 
L 236.769489 -250.584102 
L 237.175815 -250.522822 
L 237.582141 -251.026766 
L 237.988467 -241.122302 
L 238.394793 -252.093762 
L 238.80112 -250.216443 
L 239.207446 -245.254148 
L 239.613772 -250.522994 
L 240.020098 -251.754994 
L 240.426424 -247.847356 
L 240.83275 -251.7413 
L 241.239076 -249.372436 
L 241.645402 -249.958773 
L 242.051728 -254.449502 
L 242.458054 -247.520436 
L 242.86438 -250.959087 
L 243.270707 -249.338745 
L 243.677033 -253.0209 
L 244.083359 -251.747495 
L 244.489685 -251.024271 
L 244.896011 -251.171256 
L 245.302337 -244.050133 
L 245.708663 -250.018382 
L 246.114989 -246.333432 
L 246.521315 -250.199565 
L 246.927641 -247.940451 
L 247.333967 -247.523082 
L 247.740294 -244.738088 
L 248.14662 -245.363757 
L 248.552946 -248.686493 
L 248.959272 -248.20723 
L 249.365598 -249.398589 
L 249.771924 -249.383242 
L 250.17825 -245.442782 
L 250.584576 -251.817873 
L 250.990902 -253.434463 
L 251.397228 -246.759753 
L 251.803554 -249.23352 
L 252.209881 -250.922698 
L 252.616207 -249.374333 
L 253.022533 -251.249532 
L 253.428859 -250.963251 
L 253.835185 -252.017975 
L 254.241511 -250.150586 
L 254.647837 -251.8584 
L 255.054163 -255.052762 
L 255.460489 -249.063619 
L 255.866815 -245.326103 
L 256.273141 -250.471024 
L 256.679468 -251.802361 
L 257.085794 -251.416274 
L 257.49212 -251.67248 
L 257.898446 -253.726243 
L 258.304772 -243.679068 
L 258.711098 -248.954321 
L 259.117424 -249.660466 
L 259.52375 -251.374634 
L 259.930076 -252.754033 
L 260.336402 -251.366164 
L 260.742728 -252.974548 
L 261.149054 -249.185905 
L 261.555381 -251.399321 
L 261.961707 -251.807688 
L 262.368033 -249.672155 
L 262.774359 -250.428392 
L 263.180685 -237.985423 
L 263.587011 -235.934414 
L 263.993337 -247.806083 
L 264.399663 -246.107184 
L 264.805989 -247.503742 
L 265.212315 -251.095277 
L 265.618641 -244.617296 
L 266.024968 -241.163122 
L 266.431294 -245.54994 
L 266.83762 -244.884981 
L 267.243946 -249.542983 
L 267.650272 -246.115817 
L 268.056598 -243.016951 
L 268.462924 -240.724464 
L 268.86925 -234.255027 
L 269.275576 -235.126792 
L 269.681902 -242.530416 
L 270.088228 -228.67253 
L 270.494555 -236.804037 
L 270.900881 -244.178296 
L 271.307207 -245.484239 
L 271.713533 -248.988163 
L 272.119859 -251.225888 
L 272.526185 -246.075968 
L 272.932511 -245.992175 
L 273.338837 -238.657263 
L 273.745163 -242.818379 
L 274.151489 -250.97618 
L 274.557815 -250.906 
L 274.964142 -252.656595 
L 275.370468 -252.490396 
L 275.776794 -244.300018 
L 276.18312 -248.624193 
L 276.589446 -248.144808 
L 276.995772 -247.066907 
L 277.402098 -244.809189 
L 277.808424 -240.835293 
L 278.21475 -249.518456 
L 278.621076 -244.195775 
L 279.027402 -251.425786 
L 279.433729 -249.735854 
L 279.840055 -241.054286 
L 280.246381 -247.69038 
L 280.652707 -250.999796 
L 281.059033 -251.31344 
L 281.465359 -241.100545 
L 281.871685 -243.776515 
L 282.278011 -245.86653 
L 282.684337 -241.943788 
L 283.090663 -240.660286 
L 283.496989 -251.961517 
L 283.903316 -251.31277 
L 284.309642 -249.960472 
L 284.715968 -249.537476 
L 285.122294 -254.080491 
L 285.52862 -253.619858 
L 285.934946 -247.384944 
L 286.341272 -249.819225 
L 286.747598 -245.745064 
L 287.153924 -247.543917 
L 287.56025 -245.04087 
L 287.966576 -248.161192 
L 288.372902 -251.551179 
L 288.779229 -251.610639 
L 289.185555 -245.643889 
L 289.591881 -250.530163 
L 289.998207 -247.797869 
L 290.404533 -253.46356 
L 290.810859 -245.755506 
L 291.217185 -250.398993 
L 291.623511 -246.458638 
L 292.029837 -241.401803 
L 292.436163 -249.914671 
L 292.842489 -248.761959 
L 293.248816 -254.032293 
L 293.655142 -252.817874 
L 294.061468 -235.204568 
L 294.467794 -252.212057 
L 294.87412 -251.469798 
L 295.280446 -248.557335 
L 295.686772 -246.186549 
L 296.093098 -253.106774 
L 296.499424 -252.764624 
L 296.90575 -251.377699 
L 297.312076 -250.960457 
L 297.718403 -251.539832 
L 298.124729 -250.212131 
L 298.531055 -245.861674 
L 298.937381 -249.04112 
L 299.343707 -248.399335 
L 299.750033 -249.596592 
L 300.156359 -249.391624 
L 300.562685 -249.348582 
L 300.969011 -248.203474 
L 301.375337 -251.993195 
L 301.781663 -248.61472 
L 302.18799 -251.182283 
L 302.594316 -251.594095 
L 303.000642 -249.308853 
L 303.406968 -245.855142 
L 303.813294 -248.273442 
L 304.21962 -248.834651 
L 304.625946 -251.89944 
L 305.032272 -244.640526 
L 305.438598 -248.042728 
L 305.844924 -246.972307 
L 306.25125 -249.588044 
L 306.657577 -249.738928 
L 307.063903 -250.216355 
L 307.470229 -250.118351 
L 307.876555 -253.534201 
L 308.282881 -246.776402 
L 308.689207 -252.204725 
L 309.095533 -246.291282 
L 309.501859 -250.246813 
L 309.908185 -250.344424 
L 310.314511 -248.92478 
L 310.720837 -249.447215 
L 311.127163 -252.437122 
L 311.53349 -246.999117 
L 311.939816 -250.104288 
L 312.346142 -250.769365 
L 312.752468 -241.76784 
L 313.158794 -247.701503 
L 313.56512 -251.292504 
L 313.971446 -250.741796 
L 314.377772 -250.731252 
L 314.784098 -253.487434 
L 315.190424 -249.82415 
L 315.59675 -244.911189 
L 316.003077 -247.105359 
L 316.409403 -252.232662 
L 316.815729 -251.744753 
L 317.222055 -251.772791 
L 317.628381 -246.971806 
L 318.034707 -252.199672 
L 318.441033 -249.321077 
L 318.847359 -251.741877 
L 319.253685 -248.32049 
L 319.660011 -246.388861 
L 320.066337 -251.309699 
L 320.472664 -248.793285 
L 320.87899 -252.556767 
L 321.285316 -251.224754 
L 321.691642 -246.180481 
L 322.097968 -253.789353 
L 322.504294 -253.12384 
L 322.91062 -248.304847 
L 323.316946 -248.700041 
L 323.723272 -246.81997 
L 324.129598 -246.737947 
L 324.535924 -251.279668 
L 324.942251 -248.04649 
L 325.348577 -243.021506 
L 325.754903 -243.719438 
L 326.161229 -239.337569 
L 326.567555 -240.179963 
L 326.973881 -244.568084 
L 327.380207 -251.629404 
L 327.786533 -247.53481 
L 328.192859 -251.302903 
L 328.599185 -241.07759 
L 329.005511 -252.003743 
L 329.411838 -247.905215 
L 329.818164 -247.714235 
L 330.22449 -244.144311 
L 330.630816 -250.43041 
L 331.037142 -247.844019 
L 331.443468 -237.897143 
L 331.849794 -241.842975 
L 332.25612 -239.23922 
L 332.662446 -246.736293 
L 333.068772 -250.115968 
L 333.475098 -251.898717 
L 333.881425 -251.059168 
L 334.287751 -252.761301 
L 334.694077 -250.040006 
L 335.100403 -249.138852 
L 335.506729 -255.086889 
L 335.913055 -248.668484 
L 336.319381 -247.27884 
L 336.725707 -244.921914 
L 337.132033 -245.666983 
L 337.538359 -242.573144 
L 337.944685 -249.288219 
L 338.351011 -246.644563 
L 338.757338 -250.586832 
L 339.163664 -252.079532 
L 339.56999 -250.512548 
L 339.976316 -251.018346 
L 340.382642 -253.485598 
L 340.788968 -253.283375 
L 341.195294 -256.777136 
L 341.60162 -251.824271 
L 342.007946 -255.992041 
L 342.414272 -251.848312 
L 342.820598 -249.168932 
L 343.226925 -254.534805 
L 343.633251 -253.457513 
L 344.039577 -252.946477 
L 344.445903 -252.855404 
L 344.852229 -253.123166 
L 345.258555 -249.755406 
L 345.664881 -254.522627 
L 346.071207 -254.298444 
L 346.477533 -252.281636 
L 346.883859 -250.382448 
L 347.290185 -252.771535 
L 347.696512 -253.891252 
L 348.102838 -251.436511 
L 348.509164 -254.532549 
L 348.91549 -252.355595 
L 349.321816 -254.909349 
L 349.728142 -256.354704 
L 350.134468 -253.466164 
L 350.540794 -250.974591 
L 350.94712 -252.86022 
L 351.353446 -254.705659 
L 351.759772 -254.018088 
L 352.166099 -250.234697 
L 352.572425 -247.927057 
L 352.978751 -243.448459 
L 353.385077 -244.278292 
L 353.791403 -238.137161 
L 354.197729 -255.34917 
L 354.604055 -253.104092 
L 355.010381 -246.88124 
L 355.416707 -252.115804 
L 355.823033 -250.257049 
L 356.229359 -252.453019 
L 356.635686 -251.297613 
L 357.042012 -249.126621 
L 357.448338 -242.908198 
L 357.854664 -254.164053 
L 358.26099 -248.922523 
L 358.667316 -252.1443 
L 359.073642 -252.973617 
L 359.479968 -251.888793 
L 359.886294 -251.741648 
L 360.29262 -251.165278 
L 360.698946 -248.339985 
L 361.105272 -250.367204 
L 361.511599 -253.957809 
L 361.917925 -248.226863 
L 362.324251 -246.617474 
L 362.730577 -251.171542 
L 363.136903 -246.437382 
L 363.543229 -245.288987 
L 363.949555 -231.145738 
L 364.355881 -187.869668 
L 364.762207 -138.169332 
L 365.168533 -193.064294 
L 365.574859 -186.24221 
L 365.981186 -191.082376 
L 366.387512 -182.526186 
L 366.793838 -181.561058 
L 367.200164 -184.492041 
L 367.60649 -183.802695 
L 368.012816 -186.306393 
L 368.419142 -195.517147 
L 368.825468 -195.400589 
L 369.231794 -184.62482 
L 369.63812 -195.334366 
L 370.044446 -201.869302 
L 370.450773 -227.303184 
L 370.857099 -236.574784 
L 371.263425 -251.526983 
L 371.669751 -254.303765 
L 372.076077 -250.613857 
L 372.482403 -252.209165 
L 372.888729 -253.025804 
L 373.295055 -251.840861 
L 373.701381 -252.255347 
L 374.107707 -251.295219 
L 374.514033 -251.613983 
L 374.92036 -254.571253 
L 375.326686 -253.849425 
L 375.733012 -251.213431 
L 376.139338 -254.667589 
L 376.545664 -252.720133 
L 376.95199 -249.948702 
L 377.358316 -254.205981 
L 377.764642 -252.906177 
L 378.170968 -252.696659 
L 378.577294 -252.553937 
L 378.98362 -252.600982 
L 379.389947 -253.108575 
L 379.796273 -253.143701 
L 380.202599 -244.02451 
L 380.608925 -252.583146 
L 381.015251 -249.600467 
L 381.421577 -250.236794 
L 381.827903 -253.374274 
L 382.234229 -252.779199 
L 382.640555 -249.946206 
L 383.046881 -252.987197 
L 383.453207 -252.836619 
L 383.859534 -244.106169 
L 384.26586 -254.646907 
L 384.672186 -251.418034 
L 385.078512 -252.124134 
L 385.484838 -253.724334 
L 385.891164 -252.587128 
L 386.29749 -251.562405 
L 386.703816 -253.333482 
L 387.110142 -253.094802 
L 387.516468 -251.989741 
L 387.922794 -248.366394 
L 388.32912 -251.564387 
L 388.735447 -250.617638 
L 389.141773 -250.879697 
L 389.548099 -249.059221 
L 389.954425 -250.211965 
L 390.360751 -251.765117 
L 390.767077 -247.662224 
L 391.173403 -254.481853 
L 391.579729 -251.060211 
L 391.986055 -252.460715 
L 392.392381 -254.179439 
L 392.798707 -253.31341 
L 393.205034 -253.292177 
L 393.61136 -250.740302 
L 394.017686 -253.645032 
L 394.424012 -252.270043 
L 394.830338 -253.107898 
L 395.236664 -250.750733 
L 395.64299 -251.274085 
L 396.049316 -249.606732 
L 396.455642 -251.166963 
L 396.861968 -247.856605 
L 397.268294 -249.880054 
L 397.674621 -252.923226 
L 398.080947 -241.437994 
L 398.487273 -252.189089 
L 398.487273 -276.781992 
L 398.487273 -276.781992 
L 398.080947 -284.109109 
L 397.674621 -280.753846 
L 397.268294 -281.56936 
L 396.861968 -283.150635 
L 396.455642 -278.445126 
L 396.049316 -279.276124 
L 395.64299 -285.932267 
L 395.236664 -283.365888 
L 394.830338 -274.840087 
L 394.424012 -283.296524 
L 394.017686 -280.084119 
L 393.61136 -278.767502 
L 393.205034 -283.351469 
L 392.798707 -283.686963 
L 392.392381 -279.02273 
L 391.986055 -281.454923 
L 391.579729 -281.761203 
L 391.173403 -275.7566 
L 390.767077 -273.776759 
L 390.360751 -283.41437 
L 389.954425 -283.852073 
L 389.548099 -274.813506 
L 389.141773 -277.257643 
L 388.735447 -272.913363 
L 388.32912 -278.947688 
L 387.922794 -277.944745 
L 387.516468 -280.137288 
L 387.110142 -278.201033 
L 386.703816 -280.396897 
L 386.29749 -283.094594 
L 385.891164 -283.911858 
L 385.484838 -276.992839 
L 385.078512 -283.893228 
L 384.672186 -279.35313 
L 384.26586 -280.704234 
L 383.859534 -280.768273 
L 383.453207 -276.607743 
L 383.046881 -281.521415 
L 382.640555 -279.909937 
L 382.234229 -277.161282 
L 381.827903 -283.663577 
L 381.421577 -274.636377 
L 381.015251 -280.624603 
L 380.608925 -284.507088 
L 380.202599 -276.237182 
L 379.796273 -285.961069 
L 379.389947 -280.057986 
L 378.98362 -277.792218 
L 378.577294 -276.280823 
L 378.170968 -284.980167 
L 377.764642 -284.677662 
L 377.358316 -288.246491 
L 376.95199 -281.416373 
L 376.545664 -281.663541 
L 376.139338 -284.366089 
L 375.733012 -281.968122 
L 375.326686 -282.96108 
L 374.92036 -287.617511 
L 374.514033 -286.71608 
L 374.107707 -283.456118 
L 373.701381 -278.381604 
L 373.295055 -278.434492 
L 372.888729 -279.937999 
L 372.482403 -281.618928 
L 372.076077 -278.741384 
L 371.669751 -282.45709 
L 371.263425 -288.716148 
L 370.857099 -266.825035 
L 370.450773 -265.299349 
L 370.044446 -256.100525 
L 369.63812 -243.778127 
L 369.231794 -239.334489 
L 368.825468 -245.951179 
L 368.419142 -247.205125 
L 368.012816 -241.188606 
L 367.60649 -237.401115 
L 367.200164 -239.279553 
L 366.793838 -242.715815 
L 366.387512 -236.658909 
L 365.981186 -253.267657 
L 365.574859 -245.558723 
L 365.168533 -248.18904 
L 364.762207 -249.734152 
L 364.355881 -267.964267 
L 363.949555 -259.748109 
L 363.543229 -277.860752 
L 363.136903 -276.189317 
L 362.730577 -280.593474 
L 362.324251 -275.920298 
L 361.917925 -278.07017 
L 361.511599 -281.469531 
L 361.105272 -273.808924 
L 360.698946 -274.33755 
L 360.29262 -284.017358 
L 359.886294 -277.504762 
L 359.479968 -278.527447 
L 359.073642 -279.665925 
L 358.667316 -286.271952 
L 358.26099 -282.677759 
L 357.854664 -274.657943 
L 357.448338 -282.505417 
L 357.042012 -281.435037 
L 356.635686 -285.050952 
L 356.229359 -282.907296 
L 355.823033 -279.231974 
L 355.416707 -280.208366 
L 355.010381 -284.806746 
L 354.604055 -275.486048 
L 354.197729 -285.398801 
L 353.791403 -273.165708 
L 353.385077 -269.821074 
L 352.978751 -271.868024 
L 352.572425 -281.397033 
L 352.166099 -279.404285 
L 351.759772 -285.260765 
L 351.353446 -278.000925 
L 350.94712 -281.043192 
L 350.540794 -281.343913 
L 350.134468 -287.262161 
L 349.728142 -283.553183 
L 349.321816 -278.027842 
L 348.91549 -282.230154 
L 348.509164 -278.617663 
L 348.102838 -274.241651 
L 347.696512 -285.855612 
L 347.290185 -290.251883 
L 346.883859 -283.898456 
L 346.477533 -286.763988 
L 346.071207 -283.84417 
L 345.664881 -284.411423 
L 345.258555 -278.058779 
L 344.852229 -287.377146 
L 344.445903 -283.36689 
L 344.039577 -281.839264 
L 343.633251 -277.996404 
L 343.226925 -284.139596 
L 342.820598 -276.657249 
L 342.414272 -277.709959 
L 342.007946 -279.944511 
L 341.60162 -282.526232 
L 341.195294 -271.830859 
L 340.788968 -277.958618 
L 340.382642 -280.021441 
L 339.976316 -276.689756 
L 339.56999 -277.009493 
L 339.163664 -274.36053 
L 338.757338 -281.322156 
L 338.351011 -282.041851 
L 337.944685 -280.533062 
L 337.538359 -282.073877 
L 337.132033 -282.707268 
L 336.725707 -275.230492 
L 336.319381 -287.182122 
L 335.913055 -281.030052 
L 335.506729 -277.411695 
L 335.100403 -284.022873 
L 334.694077 -281.984856 
L 334.287751 -284.034817 
L 333.881425 -277.2627 
L 333.475098 -284.173521 
L 333.068772 -281.78595 
L 332.662446 -280.423304 
L 332.25612 -280.462052 
L 331.849794 -279.243426 
L 331.443468 -284.577078 
L 331.037142 -282.813119 
L 330.630816 -280.259735 
L 330.22449 -282.613317 
L 329.818164 -280.144398 
L 329.411838 -272.343195 
L 329.005511 -284.492077 
L 328.599185 -282.295942 
L 328.192859 -282.372649 
L 327.786533 -285.57161 
L 327.380207 -283.616947 
L 326.973881 -283.338026 
L 326.567555 -282.652086 
L 326.161229 -273.43211 
L 325.754903 -274.328118 
L 325.348577 -286.721799 
L 324.942251 -287.787151 
L 324.535924 -281.201889 
L 324.129598 -282.80385 
L 323.723272 -274.927235 
L 323.316946 -282.075528 
L 322.91062 -279.351444 
L 322.504294 -275.243486 
L 322.097968 -279.321264 
L 321.691642 -281.758584 
L 321.285316 -280.493601 
L 320.87899 -276.539382 
L 320.472664 -282.402337 
L 320.066337 -280.700956 
L 319.660011 -286.824319 
L 319.253685 -272.641805 
L 318.847359 -279.955274 
L 318.441033 -276.089713 
L 318.034707 -277.759825 
L 317.628381 -277.137432 
L 317.222055 -281.882733 
L 316.815729 -275.976388 
L 316.409403 -283.932061 
L 316.003077 -283.377929 
L 315.59675 -283.097731 
L 315.190424 -279.802853 
L 314.784098 -285.935877 
L 314.377772 -284.300629 
L 313.971446 -276.288754 
L 313.56512 -283.475501 
L 313.158794 -277.659403 
L 312.752468 -278.59013 
L 312.346142 -281.271936 
L 311.939816 -283.859752 
L 311.53349 -277.091047 
L 311.127163 -285.067479 
L 310.720837 -278.80938 
L 310.314511 -278.819811 
L 309.908185 -278.313445 
L 309.501859 -275.448541 
L 309.095533 -277.327067 
L 308.689207 -281.921053 
L 308.282881 -280.393193 
L 307.876555 -277.651106 
L 307.470229 -282.791293 
L 307.063903 -281.339606 
L 306.657577 -279.395389 
L 306.25125 -280.61598 
L 305.844924 -283.519925 
L 305.438598 -272.732052 
L 305.032272 -283.841714 
L 304.625946 -277.570598 
L 304.21962 -279.808592 
L 303.813294 -282.809114 
L 303.406968 -278.739101 
L 303.000642 -280.43287 
L 302.594316 -271.018236 
L 302.18799 -273.541613 
L 301.781663 -280.038263 
L 301.375337 -280.522032 
L 300.969011 -276.623161 
L 300.562685 -276.510605 
L 300.156359 -283.818504 
L 299.750033 -278.301078 
L 299.343707 -279.534321 
L 298.937381 -282.049425 
L 298.531055 -281.951388 
L 298.124729 -273.11631 
L 297.718403 -281.199663 
L 297.312076 -278.124115 
L 296.90575 -278.140092 
L 296.499424 -280.67981 
L 296.093098 -284.501631 
L 295.686772 -278.779695 
L 295.280446 -285.522016 
L 294.87412 -281.259109 
L 294.467794 -284.019227 
L 294.061468 -273.862051 
L 293.655142 -282.774075 
L 293.248816 -275.60357 
L 292.842489 -285.278075 
L 292.436163 -280.30274 
L 292.029837 -272.279357 
L 291.623511 -275.428693 
L 291.217185 -279.241497 
L 290.810859 -282.589635 
L 290.404533 -279.808955 
L 289.998207 -277.560854 
L 289.591881 -282.394854 
L 289.185555 -277.349854 
L 288.779229 -288.772907 
L 288.372902 -275.665767 
L 287.966576 -276.874653 
L 287.56025 -285.159436 
L 287.153924 -283.176292 
L 286.747598 -277.561248 
L 286.341272 -282.254458 
L 285.934946 -283.107108 
L 285.52862 -272.424878 
L 285.122294 -282.648922 
L 284.715968 -276.294124 
L 284.309642 -275.733825 
L 283.903316 -277.858126 
L 283.496989 -282.937716 
L 283.090663 -271.210909 
L 282.684337 -289.079818 
L 282.278011 -281.167249 
L 281.871685 -273.757898 
L 281.465359 -280.487211 
L 281.059033 -278.863396 
L 280.652707 -279.672558 
L 280.246381 -275.25998 
L 279.840055 -286.041406 
L 279.433729 -279.664039 
L 279.027402 -274.23545 
L 278.621076 -278.237793 
L 278.21475 -279.60275 
L 277.808424 -275.281783 
L 277.402098 -276.6667 
L 276.995772 -281.144811 
L 276.589446 -281.475013 
L 276.18312 -276.076845 
L 275.776794 -283.724009 
L 275.370468 -281.559095 
L 274.964142 -277.757104 
L 274.557815 -285.172605 
L 274.151489 -284.225523 
L 273.745163 -276.8527 
L 273.338837 -282.364978 
L 272.932511 -284.044003 
L 272.526185 -279.870745 
L 272.119859 -277.876805 
L 271.713533 -278.846117 
L 271.307207 -280.389678 
L 270.900881 -277.17106 
L 270.494555 -278.560422 
L 270.088228 -263.143098 
L 269.681902 -266.204916 
L 269.275576 -263.030546 
L 268.86925 -267.279168 
L 268.462924 -269.483415 
L 268.056598 -270.390132 
L 267.650272 -274.687612 
L 267.243946 -277.948449 
L 266.83762 -278.152133 
L 266.431294 -280.191548 
L 266.024968 -282.653605 
L 265.618641 -279.186318 
L 265.212315 -282.030515 
L 264.805989 -285.263802 
L 264.399663 -280.095871 
L 263.993337 -282.530459 
L 263.587011 -277.629155 
L 263.180685 -286.148153 
L 262.774359 -276.374641 
L 262.368033 -281.042357 
L 261.961707 -274.265533 
L 261.555381 -283.62596 
L 261.149054 -282.841542 
L 260.742728 -277.87215 
L 260.336402 -278.855127 
L 259.930076 -287.381213 
L 259.52375 -268.617726 
L 259.117424 -278.170349 
L 258.711098 -277.334378 
L 258.304772 -277.975327 
L 257.898446 -286.804443 
L 257.49212 -283.849308 
L 257.085794 -278.816624 
L 256.679468 -275.003038 
L 256.273141 -281.85458 
L 255.866815 -281.47922 
L 255.460489 -283.396256 
L 255.054163 -284.846163 
L 254.647837 -278.80046 
L 254.241511 -274.647488 
L 253.835185 -275.38517 
L 253.428859 -284.775179 
L 253.022533 -284.027091 
L 252.616207 -278.332751 
L 252.209881 -281.225405 
L 251.803554 -275.902751 
L 251.397228 -283.281386 
L 250.990902 -274.356995 
L 250.584576 -280.971218 
L 250.17825 -278.538524 
L 249.771924 -272.74626 
L 249.365598 -282.99988 
L 248.959272 -277.222437 
L 248.552946 -278.098103 
L 248.14662 -273.211421 
L 247.740294 -281.507635 
L 247.333967 -278.028292 
L 246.927641 -282.343314 
L 246.521315 -279.775161 
L 246.114989 -283.654179 
L 245.708663 -273.268955 
L 245.302337 -285.995348 
L 244.896011 -283.241333 
L 244.489685 -280.604288 
L 244.083359 -273.533331 
L 243.677033 -284.424208 
L 243.270707 -281.62178 
L 242.86438 -288.05159 
L 242.458054 -283.239764 
L 242.051728 -282.166211 
L 241.645402 -277.805756 
L 241.239076 -284.763921 
L 240.83275 -279.582378 
L 240.426424 -282.3373 
L 240.020098 -281.820698 
L 239.613772 -278.821641 
L 239.207446 -283.023743 
L 238.80112 -280.472307 
L 238.394793 -276.917796 
L 237.988467 -282.892752 
L 237.582141 -277.165904 
L 237.175815 -285.363831 
L 236.769489 -276.648891 
L 236.363163 -284.029445 
L 235.956837 -281.972167 
L 235.550511 -289.463424 
L 235.144185 -279.768289 
L 234.737859 -280.578449 
L 234.331533 -279.326365 
L 233.925207 -278.140202 
L 233.51888 -283.049618 
L 233.112554 -284.051328 
L 232.706228 -289.266387 
L 232.299902 -281.220762 
L 231.893576 -275.619248 
L 231.48725 -279.276648 
L 231.080924 -280.390038 
L 230.674598 -282.906852 
L 230.268272 -280.601395 
L 229.861946 -283.266415 
L 229.45562 -287.125276 
L 229.049293 -279.821745 
L 228.642967 -273.581274 
L 228.236641 -280.380658 
L 227.830315 -282.796807 
L 227.423989 -281.372964 
L 227.017663 -270.954457 
L 226.611337 -277.387618 
L 226.205011 -288.090983 
L 225.798685 -280.86855 
L 225.392359 -286.520976 
L 224.986033 -276.695357 
L 224.579706 -283.656084 
L 224.17338 -277.328985 
L 223.767054 -286.460487 
L 223.360728 -279.676115 
L 222.954402 -280.618225 
L 222.548076 -280.125547 
L 222.14175 -282.338123 
L 221.735424 -277.901317 
L 221.329098 -289.605847 
L 220.922772 -278.739398 
L 220.516446 -281.876612 
L 220.110119 -288.410912 
L 219.703793 -284.22286 
L 219.297467 -285.17945 
L 218.891141 -281.12659 
L 218.484815 -288.917519 
L 218.078489 -285.948437 
L 217.672163 -280.049023 
L 217.265837 -282.148317 
L 216.859511 -280.771083 
L 216.453185 -281.868434 
L 216.046859 -274.680792 
L 215.640532 -279.220041 
L 215.234206 -279.466787 
L 214.82788 -286.243961 
L 214.421554 -285.325652 
L 214.015228 -285.277135 
L 213.608902 -282.265595 
L 213.202576 -286.119754 
L 212.79625 -280.087989 
L 212.389924 -285.80435 
L 211.983598 -292.032 
L 211.577272 -282.704936 
L 211.170946 -283.751977 
L 210.764619 -280.82372 
L 210.358293 -284.743334 
L 209.951967 -279.320788 
L 209.545641 -279.974666 
L 209.139315 -284.295627 
L 208.732989 -286.149065 
L 208.326663 -281.171158 
L 207.920337 -279.479647 
L 207.514011 -278.293507 
L 207.107685 -279.354853 
L 206.701359 -278.703292 
L 206.295032 -285.833538 
L 205.888706 -285.523876 
L 205.48238 -277.815239 
L 205.076054 -277.098165 
L 204.669728 -284.535764 
L 204.263402 -281.204847 
L 203.857076 -287.504452 
L 203.45075 -285.674383 
L 203.044424 -284.313602 
L 202.638098 -282.939912 
L 202.231772 -285.620707 
L 201.825445 -280.523863 
L 201.419119 -281.542093 
L 201.012793 -274.877578 
L 200.606467 -289.928466 
L 200.200141 -279.991868 
L 199.793815 -278.881982 
L 199.387489 -285.81848 
L 198.981163 -284.564544 
L 198.574837 -284.235967 
L 198.168511 -285.683888 
L 197.762185 -283.171272 
L 197.355858 -279.976237 
L 196.949532 -281.327564 
L 196.543206 -280.068763 
L 196.13688 -285.705951 
L 195.730554 -280.520553 
L 195.324228 -283.908537 
L 194.917902 -284.349194 
L 194.511576 -278.973925 
L 194.10525 -279.369408 
L 193.698924 -288.490888 
L 193.292598 -281.648163 
L 192.886271 -284.993855 
L 192.479945 -283.037399 
L 192.073619 -287.105296 
L 191.667293 -276.430926 
L 191.260967 -275.922811 
L 190.854641 -281.723359 
L 190.448315 -281.492867 
L 190.041989 -284.603146 
L 189.635663 -280.960429 
L 189.229337 -274.200388 
L 188.823011 -283.968042 
L 188.416684 -281.67879 
L 188.010358 -279.013196 
L 187.604032 -285.005548 
L 187.197706 -278.38537 
L 186.79138 -286.377223 
L 186.385054 -280.187774 
L 185.978728 -280.894648 
L 185.572402 -280.347097 
L 185.166076 -280.222861 
L 184.75975 -284.364098 
L 184.353424 -281.974059 
L 183.947098 -282.985912 
L 183.540771 -280.758612 
L 183.134445 -284.067356 
L 182.728119 -284.922137 
L 182.321793 -282.268333 
L 181.915467 -276.22949 
L 181.509141 -286.876852 
L 181.102815 -286.863079 
L 180.696489 -275.217078 
L 180.290163 -274.794759 
L 179.883837 -282.646476 
L 179.477511 -280.905264 
L 179.071184 -285.659019 
L 178.664858 -277.781694 
L 178.258532 -281.887115 
L 177.852206 -281.827919 
L 177.44588 -282.592186 
L 177.039554 -283.81669 
L 176.633228 -279.002577 
L 176.226902 -277.331856 
L 175.820576 -286.948017 
L 175.41425 -285.601382 
L 175.007924 -284.328815 
L 174.601597 -282.189343 
L 174.195271 -283.407941 
L 173.788945 -282.856533 
L 173.382619 -280.902045 
L 172.976293 -280.947242 
L 172.569967 -284.769026 
L 172.163641 -280.323319 
L 171.757315 -287.463461 
L 171.350989 -281.307326 
L 170.944663 -280.491007 
L 170.538337 -275.384554 
L 170.13201 -277.974223 
L 169.725684 -278.41397 
L 169.319358 -282.963037 
L 168.913032 -280.757276 
L 168.506706 -279.086407 
L 168.10038 -280.01801 
L 167.694054 -283.059116 
L 167.287728 -276.583628 
L 166.881402 -288.31997 
L 166.475076 -283.77768 
L 166.06875 -285.614027 
L 165.662423 -280.462748 
L 165.256097 -284.354766 
L 164.849771 -282.022169 
L 164.443445 -282.132135 
L 164.037119 -289.898884 
L 163.630793 -285.080043 
L 163.224467 -278.719001 
L 162.818141 -285.819357 
L 162.411815 -281.803078 
L 162.005489 -283.216204 
L 161.599163 -284.745215 
L 161.192837 -278.518139 
L 160.78651 -269.894579 
L 160.380184 -274.823639 
L 159.973858 -280.365341 
L 159.567532 -277.784984 
L 159.161206 -284.630556 
L 158.75488 -282.955289 
L 158.348554 -278.14909 
L 157.942228 -283.603514 
L 157.535902 -288.923821 
L 157.129576 -283.929555 
L 156.72325 -284.242099 
L 156.316923 -275.250531 
L 155.910597 -280.884158 
L 155.504271 -285.677211 
L 155.097945 -282.394004 
L 154.691619 -279.814801 
L 154.285293 -281.561404 
L 153.878967 -287.912864 
L 153.472641 -279.94436 
L 153.066315 -280.683761 
L 152.659989 -284.466943 
L 152.253663 -275.679831 
L 151.847336 -285.294647 
L 151.44101 -287.199406 
L 151.034684 -279.15465 
L 150.628358 -278.018411 
L 150.222032 -280.514387 
L 149.815706 -282.304231 
L 149.40938 -282.913689 
L 149.003054 -280.63718 
L 148.596728 -285.573685 
L 148.190402 -288.5811 
L 147.784076 -284.93624 
L 147.377749 -276.414952 
L 146.971423 -279.873597 
L 146.565097 -285.505026 
L 146.158771 -279.206106 
L 145.752445 -289.201179 
L 145.346119 -281.714169 
L 144.939793 -290.399481 
L 144.533467 -283.013229 
L 144.127141 -273.124138 
L 143.720815 -278.681915 
L 143.314489 -282.795736 
L 142.908162 -281.29941 
L 142.501836 -274.903814 
L 142.09551 -285.7121 
L 141.689184 -289.98981 
L 141.282858 -288.787423 
L 140.876532 -278.156575 
L 140.470206 -279.84442 
L 140.06388 -274.612986 
L 139.657554 -287.554146 
L 139.251228 -277.64269 
L 138.844902 -279.819571 
L 138.438575 -279.8673 
L 138.032249 -285.250521 
L 137.625923 -281.098199 
L 137.219597 -277.147544 
L 136.813271 -278.092669 
L 136.406945 -276.479082 
L 136.000619 -283.28436 
L 135.594293 -279.245206 
L 135.187967 -278.48319 
L 134.781641 -279.545403 
L 134.375315 -284.906816 
L 133.968989 -281.572411 
L 133.562662 -279.807226 
L 133.156336 -272.382939 
L 132.75001 -279.899182 
L 132.343684 -277.603898 
L 131.937358 -285.892883 
L 131.531032 -277.938699 
L 131.124706 -282.106999 
L 130.71838 -287.459718 
L 130.312054 -284.501835 
L 129.905728 -279.970579 
L 129.499402 -269.793395 
L 129.093075 -272.357753 
L 128.686749 -279.970372 
L 128.280423 -282.307748 
L 127.874097 -279.669728 
L 127.467771 -270.441744 
L 127.061445 -278.823069 
L 126.655119 -267.968343 
L 126.248793 -274.359446 
L 125.842467 -277.394055 
L 125.436141 -287.15857 
L 125.029815 -283.956212 
L 124.623488 -283.017833 
L 124.217162 -280.068392 
L 123.810836 -278.501203 
L 123.40451 -283.73039 
L 122.998184 -280.392602 
L 122.591858 -284.589855 
L 122.185532 -279.115191 
L 121.779206 -275.936357 
L 121.37288 -281.534347 
L 120.966554 -282.222726 
L 120.560228 -277.618561 
L 120.153901 -277.591114 
L 119.747575 -281.27603 
L 119.341249 -273.696364 
L 118.934923 -280.358675 
L 118.528597 -285.277321 
L 118.122271 -281.07213 
L 117.715945 -275.575925 
L 117.309619 -279.95358 
L 116.903293 -270.208695 
L 116.496967 -274.070808 
L 116.090641 -278.569099 
L 115.684314 -279.857559 
L 115.277988 -276.505133 
L 114.871662 -278.473457 
L 114.465336 -286.204417 
L 114.05901 -272.940032 
L 113.652684 -284.545294 
L 113.246358 -282.017569 
L 112.840032 -273.511153 
L 112.433706 -278.459319 
L 112.02738 -279.371221 
L 111.621054 -275.269889 
L 111.214728 -278.768487 
L 110.808401 -273.174404 
L 110.402075 -269.484714 
L 109.995749 -274.779098 
L 109.589423 -278.055078 
L 109.183097 -279.069804 
L 108.776771 -281.49094 
L 108.370445 -279.579053 
L 107.964119 -282.033852 
L 107.557793 -269.03067 
L 107.151467 -276.721001 
L 106.745141 -272.027152 
L 106.338814 -278.158862 
L 105.932488 -284.614185 
L 105.526162 -275.491837 
L 105.119836 -275.054416 
L 104.71351 -284.427293 
L 104.307184 -275.437093 
L 103.900858 -274.159002 
L 103.494532 -281.841758 
L 103.088206 -279.396843 
L 102.68188 -272.481095 
L 102.275554 -272.518842 
L 101.869227 -274.225118 
L 101.462901 -280.442305 
L 101.056575 -277.732194 
L 100.650249 -283.186434 
L 100.243923 -273.845647 
L 99.837597 -274.045557 
L 99.431271 -278.894536 
L 99.024945 -283.455414 
L 98.618619 -281.593347 
L 98.212293 -280.507852 
L 97.805967 -281.609823 
L 97.39964 -275.168131 
L 96.993314 -279.837218 
L 96.586988 -273.793805 
L 96.180662 -282.321958 
L 95.774336 -275.612785 
L 95.36801 -276.620048 
L 94.961684 -281.2779 
L 94.555358 -274.01977 
L 94.149032 -266.679849 
L 93.742706 -282.161333 
L 93.33638 -285.498499 
L 92.930053 -276.221594 
L 92.523727 -286.639615 
L 92.117401 -274.248289 
L 91.711075 -286.113947 
L 91.304749 -279.435714 
L 90.898423 -266.644767 
L 90.492097 -270.076514 
L 90.085771 -276.845328 
L 89.679445 -280.536529 
L 89.273119 -263.831436 
L 88.866793 -270.174999 
L 88.460466 -276.644768 
L 88.05414 -270.333579 
L 87.647814 -272.143984 
L 87.241488 -291.812736 
L 86.835162 -270.906818 
L 86.428836 -273.619268 
L 86.02251 -235.215832 
L 85.616184 -264.796896 
L 85.209858 -233.31149 
L 84.803532 -230.299338 
L 84.397206 -204.220297 
L 83.99088 -199.426801 
L 83.584553 -194.042803 
L 83.178227 -215.857393 
L 82.771901 -195.084022 
L 82.365575 -214.7206 
L 81.959249 -212.680556 
L 81.552923 -212.805871 
L 81.146597 -222.171898 
L 80.740271 -223.90046 
L 80.333945 -211.126018 
L 79.927619 -232.295484 
L 79.521293 -187.672155 
L 79.114966 -212.307028 
L 78.70864 -185.193004 
L 78.302314 -206.488291 
L 77.895988 -211.125817 
L 77.489662 -212.219212 
L 77.083336 -212.356003 
L 76.67701 -232.636043 
L 76.270684 -204.342372 
L 75.864358 -209.649402 
L 75.458032 -216.412309 
L 75.051706 -200.506605 
L 74.645379 -170.443532 
L 74.239053 -162.669299 
L 73.832727 -210.925283 
z
" id="m93f5a8d7c6" style="stroke:#1f77b4;stroke-opacity:0.2;"/>
    </defs>
    <g clip-path="url(#pd780161c57)">
     <use style="fill:#1f77b4;fill-opacity:0.2;stroke:#1f77b4;stroke-opacity:0.2;" x="0" xlink:href="#m93f5a8d7c6" y="345.6"/>
    </g>
   </g>
   <g id="matplotlib.axis_1">
    <g id="xtick_1">
     <g id="line2d_1">
      <path clip-path="url(#pd780161c57)" d="M 73.832727 307.584 
L 73.832727 41.472 
" style="fill:none;stroke:#b0b0b0;stroke-linecap:square;stroke-width:0.8;"/>
     </g>
     <g id="line2d_2">
      <defs>
       <path d="M 0 0 
L 0 3.5 
" id="m7fe6a5803e" style="stroke:#000000;stroke-width:0.8;"/>
      </defs>
      <g>
       <use style="stroke:#000000;stroke-width:0.8;" x="73.832727" xlink:href="#m7fe6a5803e" y="307.584"/>
      </g>
     </g>
     <g id="text_1">
      <!-- 0 -->
      <g transform="translate(70.651477 322.182437)scale(0.1 -0.1)">
       <defs>
        <path d="M 2034 4250 
Q 1547 4250 1301 3770 
Q 1056 3291 1056 2328 
Q 1056 1369 1301 889 
Q 1547 409 2034 409 
Q 2525 409 2770 889 
Q 3016 1369 3016 2328 
Q 3016 3291 2770 3770 
Q 2525 4250 2034 4250 
z
M 2034 4750 
Q 2819 4750 3233 4129 
Q 3647 3509 3647 2328 
Q 3647 1150 3233 529 
Q 2819 -91 2034 -91 
Q 1250 -91 836 529 
Q 422 1150 422 2328 
Q 422 3509 836 4129 
Q 1250 4750 2034 4750 
z
" id="DejaVuSans-30" transform="scale(0.015625)"/>
       </defs>
       <use xlink:href="#DejaVuSans-30"/>
      </g>
     </g>
    </g>
    <g id="xtick_2">
     <g id="line2d_3">
      <path clip-path="url(#pd780161c57)" d="M 114.465336 307.584 
L 114.465336 41.472 
" style="fill:none;stroke:#b0b0b0;stroke-linecap:square;stroke-width:0.8;"/>
     </g>
     <g id="line2d_4">
      <g>
       <use style="stroke:#000000;stroke-width:0.8;" x="114.465336" xlink:href="#m7fe6a5803e" y="307.584"/>
      </g>
     </g>
     <g id="text_2">
      <!-- 5000 -->
      <g transform="translate(101.740336 322.182437)scale(0.1 -0.1)">
       <defs>
        <path d="M 691 4666 
L 3169 4666 
L 3169 4134 
L 1269 4134 
L 1269 2991 
Q 1406 3038 1543 3061 
Q 1681 3084 1819 3084 
Q 2600 3084 3056 2656 
Q 3513 2228 3513 1497 
Q 3513 744 3044 326 
Q 2575 -91 1722 -91 
Q 1428 -91 1123 -41 
Q 819 9 494 109 
L 494 744 
Q 775 591 1075 516 
Q 1375 441 1709 441 
Q 2250 441 2565 725 
Q 2881 1009 2881 1497 
Q 2881 1984 2565 2268 
Q 2250 2553 1709 2553 
Q 1456 2553 1204 2497 
Q 953 2441 691 2322 
L 691 4666 
z
" id="DejaVuSans-35" transform="scale(0.015625)"/>
       </defs>
       <use xlink:href="#DejaVuSans-35"/>
       <use x="63.623047" xlink:href="#DejaVuSans-30"/>
       <use x="127.246094" xlink:href="#DejaVuSans-30"/>
       <use x="190.869141" xlink:href="#DejaVuSans-30"/>
      </g>
     </g>
    </g>
    <g id="xtick_3">
     <g id="line2d_5">
      <path clip-path="url(#pd780161c57)" d="M 155.097945 307.584 
L 155.097945 41.472 
" style="fill:none;stroke:#b0b0b0;stroke-linecap:square;stroke-width:0.8;"/>
     </g>
     <g id="line2d_6">
      <g>
       <use style="stroke:#000000;stroke-width:0.8;" x="155.097945" xlink:href="#m7fe6a5803e" y="307.584"/>
      </g>
     </g>
     <g id="text_3">
      <!-- 10000 -->
      <g transform="translate(139.191695 322.182437)scale(0.1 -0.1)">
       <defs>
        <path d="M 794 531 
L 1825 531 
L 1825 4091 
L 703 3866 
L 703 4441 
L 1819 4666 
L 2450 4666 
L 2450 531 
L 3481 531 
L 3481 0 
L 794 0 
L 794 531 
z
" id="DejaVuSans-31" transform="scale(0.015625)"/>
       </defs>
       <use xlink:href="#DejaVuSans-31"/>
       <use x="63.623047" xlink:href="#DejaVuSans-30"/>
       <use x="127.246094" xlink:href="#DejaVuSans-30"/>
       <use x="190.869141" xlink:href="#DejaVuSans-30"/>
       <use x="254.492188" xlink:href="#DejaVuSans-30"/>
      </g>
     </g>
    </g>
    <g id="xtick_4">
     <g id="line2d_7">
      <path clip-path="url(#pd780161c57)" d="M 195.730554 307.584 
L 195.730554 41.472 
" style="fill:none;stroke:#b0b0b0;stroke-linecap:square;stroke-width:0.8;"/>
     </g>
     <g id="line2d_8">
      <g>
       <use style="stroke:#000000;stroke-width:0.8;" x="195.730554" xlink:href="#m7fe6a5803e" y="307.584"/>
      </g>
     </g>
     <g id="text_4">
      <!-- 15000 -->
      <g transform="translate(179.824304 322.182437)scale(0.1 -0.1)">
       <use xlink:href="#DejaVuSans-31"/>
       <use x="63.623047" xlink:href="#DejaVuSans-35"/>
       <use x="127.246094" xlink:href="#DejaVuSans-30"/>
       <use x="190.869141" xlink:href="#DejaVuSans-30"/>
       <use x="254.492188" xlink:href="#DejaVuSans-30"/>
      </g>
     </g>
    </g>
    <g id="xtick_5">
     <g id="line2d_9">
      <path clip-path="url(#pd780161c57)" d="M 236.363163 307.584 
L 236.363163 41.472 
" style="fill:none;stroke:#b0b0b0;stroke-linecap:square;stroke-width:0.8;"/>
     </g>
     <g id="line2d_10">
      <g>
       <use style="stroke:#000000;stroke-width:0.8;" x="236.363163" xlink:href="#m7fe6a5803e" y="307.584"/>
      </g>
     </g>
     <g id="text_5">
      <!-- 20000 -->
      <g transform="translate(220.456913 322.182437)scale(0.1 -0.1)">
       <defs>
        <path d="M 1228 531 
L 3431 531 
L 3431 0 
L 469 0 
L 469 531 
Q 828 903 1448 1529 
Q 2069 2156 2228 2338 
Q 2531 2678 2651 2914 
Q 2772 3150 2772 3378 
Q 2772 3750 2511 3984 
Q 2250 4219 1831 4219 
Q 1534 4219 1204 4116 
Q 875 4013 500 3803 
L 500 4441 
Q 881 4594 1212 4672 
Q 1544 4750 1819 4750 
Q 2544 4750 2975 4387 
Q 3406 4025 3406 3419 
Q 3406 3131 3298 2873 
Q 3191 2616 2906 2266 
Q 2828 2175 2409 1742 
Q 1991 1309 1228 531 
z
" id="DejaVuSans-32" transform="scale(0.015625)"/>
       </defs>
       <use xlink:href="#DejaVuSans-32"/>
       <use x="63.623047" xlink:href="#DejaVuSans-30"/>
       <use x="127.246094" xlink:href="#DejaVuSans-30"/>
       <use x="190.869141" xlink:href="#DejaVuSans-30"/>
       <use x="254.492188" xlink:href="#DejaVuSans-30"/>
      </g>
     </g>
    </g>
    <g id="xtick_6">
     <g id="line2d_11">
      <path clip-path="url(#pd780161c57)" d="M 276.995772 307.584 
L 276.995772 41.472 
" style="fill:none;stroke:#b0b0b0;stroke-linecap:square;stroke-width:0.8;"/>
     </g>
     <g id="line2d_12">
      <g>
       <use style="stroke:#000000;stroke-width:0.8;" x="276.995772" xlink:href="#m7fe6a5803e" y="307.584"/>
      </g>
     </g>
     <g id="text_6">
      <!-- 25000 -->
      <g transform="translate(261.089522 322.182437)scale(0.1 -0.1)">
       <use xlink:href="#DejaVuSans-32"/>
       <use x="63.623047" xlink:href="#DejaVuSans-35"/>
       <use x="127.246094" xlink:href="#DejaVuSans-30"/>
       <use x="190.869141" xlink:href="#DejaVuSans-30"/>
       <use x="254.492188" xlink:href="#DejaVuSans-30"/>
      </g>
     </g>
    </g>
    <g id="xtick_7">
     <g id="line2d_13">
      <path clip-path="url(#pd780161c57)" d="M 317.628381 307.584 
L 317.628381 41.472 
" style="fill:none;stroke:#b0b0b0;stroke-linecap:square;stroke-width:0.8;"/>
     </g>
     <g id="line2d_14">
      <g>
       <use style="stroke:#000000;stroke-width:0.8;" x="317.628381" xlink:href="#m7fe6a5803e" y="307.584"/>
      </g>
     </g>
     <g id="text_7">
      <!-- 30000 -->
      <g transform="translate(301.722131 322.182437)scale(0.1 -0.1)">
       <defs>
        <path d="M 2597 2516 
Q 3050 2419 3304 2112 
Q 3559 1806 3559 1356 
Q 3559 666 3084 287 
Q 2609 -91 1734 -91 
Q 1441 -91 1130 -33 
Q 819 25 488 141 
L 488 750 
Q 750 597 1062 519 
Q 1375 441 1716 441 
Q 2309 441 2620 675 
Q 2931 909 2931 1356 
Q 2931 1769 2642 2001 
Q 2353 2234 1838 2234 
L 1294 2234 
L 1294 2753 
L 1863 2753 
Q 2328 2753 2575 2939 
Q 2822 3125 2822 3475 
Q 2822 3834 2567 4026 
Q 2313 4219 1838 4219 
Q 1578 4219 1281 4162 
Q 984 4106 628 3988 
L 628 4550 
Q 988 4650 1302 4700 
Q 1616 4750 1894 4750 
Q 2613 4750 3031 4423 
Q 3450 4097 3450 3541 
Q 3450 3153 3228 2886 
Q 3006 2619 2597 2516 
z
" id="DejaVuSans-33" transform="scale(0.015625)"/>
       </defs>
       <use xlink:href="#DejaVuSans-33"/>
       <use x="63.623047" xlink:href="#DejaVuSans-30"/>
       <use x="127.246094" xlink:href="#DejaVuSans-30"/>
       <use x="190.869141" xlink:href="#DejaVuSans-30"/>
       <use x="254.492188" xlink:href="#DejaVuSans-30"/>
      </g>
     </g>
    </g>
    <g id="xtick_8">
     <g id="line2d_15">
      <path clip-path="url(#pd780161c57)" d="M 358.26099 307.584 
L 358.26099 41.472 
" style="fill:none;stroke:#b0b0b0;stroke-linecap:square;stroke-width:0.8;"/>
     </g>
     <g id="line2d_16">
      <g>
       <use style="stroke:#000000;stroke-width:0.8;" x="358.26099" xlink:href="#m7fe6a5803e" y="307.584"/>
      </g>
     </g>
     <g id="text_8">
      <!-- 35000 -->
      <g transform="translate(342.35474 322.182437)scale(0.1 -0.1)">
       <use xlink:href="#DejaVuSans-33"/>
       <use x="63.623047" xlink:href="#DejaVuSans-35"/>
       <use x="127.246094" xlink:href="#DejaVuSans-30"/>
       <use x="190.869141" xlink:href="#DejaVuSans-30"/>
       <use x="254.492188" xlink:href="#DejaVuSans-30"/>
      </g>
     </g>
    </g>
    <g id="xtick_9">
     <g id="line2d_17">
      <path clip-path="url(#pd780161c57)" d="M 398.893599 307.584 
L 398.893599 41.472 
" style="fill:none;stroke:#b0b0b0;stroke-linecap:square;stroke-width:0.8;"/>
     </g>
     <g id="line2d_18">
      <g>
       <use style="stroke:#000000;stroke-width:0.8;" x="398.893599" xlink:href="#m7fe6a5803e" y="307.584"/>
      </g>
     </g>
     <g id="text_9">
      <!-- 40000 -->
      <g transform="translate(382.987349 322.182437)scale(0.1 -0.1)">
       <defs>
        <path d="M 2419 4116 
L 825 1625 
L 2419 1625 
L 2419 4116 
z
M 2253 4666 
L 3047 4666 
L 3047 1625 
L 3713 1625 
L 3713 1100 
L 3047 1100 
L 3047 0 
L 2419 0 
L 2419 1100 
L 313 1100 
L 313 1709 
L 2253 4666 
z
" id="DejaVuSans-34" transform="scale(0.015625)"/>
       </defs>
       <use xlink:href="#DejaVuSans-34"/>
       <use x="63.623047" xlink:href="#DejaVuSans-30"/>
       <use x="127.246094" xlink:href="#DejaVuSans-30"/>
       <use x="190.869141" xlink:href="#DejaVuSans-30"/>
       <use x="254.492188" xlink:href="#DejaVuSans-30"/>
      </g>
     </g>
    </g>
    <g id="text_10">
     <!-- Epoch -->
     <g transform="translate(220.849063 335.860562)scale(0.1 -0.1)">
      <defs>
       <path d="M 628 4666 
L 3578 4666 
L 3578 4134 
L 1259 4134 
L 1259 2753 
L 3481 2753 
L 3481 2222 
L 1259 2222 
L 1259 531 
L 3634 531 
L 3634 0 
L 628 0 
L 628 4666 
z
" id="DejaVuSans-45" transform="scale(0.015625)"/>
       <path d="M 1159 525 
L 1159 -1331 
L 581 -1331 
L 581 3500 
L 1159 3500 
L 1159 2969 
Q 1341 3281 1617 3432 
Q 1894 3584 2278 3584 
Q 2916 3584 3314 3078 
Q 3713 2572 3713 1747 
Q 3713 922 3314 415 
Q 2916 -91 2278 -91 
Q 1894 -91 1617 61 
Q 1341 213 1159 525 
z
M 3116 1747 
Q 3116 2381 2855 2742 
Q 2594 3103 2138 3103 
Q 1681 3103 1420 2742 
Q 1159 2381 1159 1747 
Q 1159 1113 1420 752 
Q 1681 391 2138 391 
Q 2594 391 2855 752 
Q 3116 1113 3116 1747 
z
" id="DejaVuSans-70" transform="scale(0.015625)"/>
       <path d="M 1959 3097 
Q 1497 3097 1228 2736 
Q 959 2375 959 1747 
Q 959 1119 1226 758 
Q 1494 397 1959 397 
Q 2419 397 2687 759 
Q 2956 1122 2956 1747 
Q 2956 2369 2687 2733 
Q 2419 3097 1959 3097 
z
M 1959 3584 
Q 2709 3584 3137 3096 
Q 3566 2609 3566 1747 
Q 3566 888 3137 398 
Q 2709 -91 1959 -91 
Q 1206 -91 779 398 
Q 353 888 353 1747 
Q 353 2609 779 3096 
Q 1206 3584 1959 3584 
z
" id="DejaVuSans-6f" transform="scale(0.015625)"/>
       <path d="M 3122 3366 
L 3122 2828 
Q 2878 2963 2633 3030 
Q 2388 3097 2138 3097 
Q 1578 3097 1268 2742 
Q 959 2388 959 1747 
Q 959 1106 1268 751 
Q 1578 397 2138 397 
Q 2388 397 2633 464 
Q 2878 531 3122 666 
L 3122 134 
Q 2881 22 2623 -34 
Q 2366 -91 2075 -91 
Q 1284 -91 818 406 
Q 353 903 353 1747 
Q 353 2603 823 3093 
Q 1294 3584 2113 3584 
Q 2378 3584 2631 3529 
Q 2884 3475 3122 3366 
z
" id="DejaVuSans-63" transform="scale(0.015625)"/>
       <path d="M 3513 2113 
L 3513 0 
L 2938 0 
L 2938 2094 
Q 2938 2591 2744 2837 
Q 2550 3084 2163 3084 
Q 1697 3084 1428 2787 
Q 1159 2491 1159 1978 
L 1159 0 
L 581 0 
L 581 4863 
L 1159 4863 
L 1159 2956 
Q 1366 3272 1645 3428 
Q 1925 3584 2291 3584 
Q 2894 3584 3203 3211 
Q 3513 2838 3513 2113 
z
" id="DejaVuSans-68" transform="scale(0.015625)"/>
      </defs>
      <use xlink:href="#DejaVuSans-45"/>
      <use x="63.183594" xlink:href="#DejaVuSans-70"/>
      <use x="126.660156" xlink:href="#DejaVuSans-6f"/>
      <use x="187.841797" xlink:href="#DejaVuSans-63"/>
      <use x="242.822266" xlink:href="#DejaVuSans-68"/>
     </g>
    </g>
   </g>
   <g id="matplotlib.axis_2">
    <g id="ytick_1">
     <g id="line2d_19">
      <path clip-path="url(#pd780161c57)" d="M 57.6 288.542959 
L 414.72 288.542959 
" style="fill:none;stroke:#b0b0b0;stroke-linecap:square;stroke-width:0.8;"/>
     </g>
     <g id="line2d_20">
      <defs>
       <path d="M 0 0 
L -3.5 0 
" id="m6cee8a0b55" style="stroke:#000000;stroke-width:0.8;"/>
      </defs>
      <g>
       <use style="stroke:#000000;stroke-width:0.8;" x="57.6" xlink:href="#m6cee8a0b55" y="288.542959"/>
      </g>
     </g>
     <g id="text_11">
      <!-- 3500 -->
      <g transform="translate(16.770313 292.342178)scale(0.1 -0.1)">
       <defs>
        <path d="M 678 2272 
L 4684 2272 
L 4684 1741 
L 678 1741 
L 678 2272 
z
" id="DejaVuSans-2212" transform="scale(0.015625)"/>
       </defs>
       <use xlink:href="#DejaVuSans-2212"/>
       <use x="83.789062" xlink:href="#DejaVuSans-33"/>
       <use x="147.412109" xlink:href="#DejaVuSans-35"/>
       <use x="211.035156" xlink:href="#DejaVuSans-30"/>
       <use x="274.658203" xlink:href="#DejaVuSans-30"/>
      </g>
     </g>
    </g>
    <g id="ytick_2">
     <g id="line2d_21">
      <path clip-path="url(#pd780161c57)" d="M 57.6 253.348966 
L 414.72 253.348966 
" style="fill:none;stroke:#b0b0b0;stroke-linecap:square;stroke-width:0.8;"/>
     </g>
     <g id="line2d_22">
      <g>
       <use style="stroke:#000000;stroke-width:0.8;" x="57.6" xlink:href="#m6cee8a0b55" y="253.348966"/>
      </g>
     </g>
     <g id="text_12">
      <!-- 3000 -->
      <g transform="translate(16.770313 257.148185)scale(0.1 -0.1)">
       <use xlink:href="#DejaVuSans-2212"/>
       <use x="83.789062" xlink:href="#DejaVuSans-33"/>
       <use x="147.412109" xlink:href="#DejaVuSans-30"/>
       <use x="211.035156" xlink:href="#DejaVuSans-30"/>
       <use x="274.658203" xlink:href="#DejaVuSans-30"/>
      </g>
     </g>
    </g>
    <g id="ytick_3">
     <g id="line2d_23">
      <path clip-path="url(#pd780161c57)" d="M 57.6 218.154973 
L 414.72 218.154973 
" style="fill:none;stroke:#b0b0b0;stroke-linecap:square;stroke-width:0.8;"/>
     </g>
     <g id="line2d_24">
      <g>
       <use style="stroke:#000000;stroke-width:0.8;" x="57.6" xlink:href="#m6cee8a0b55" y="218.154973"/>
      </g>
     </g>
     <g id="text_13">
      <!-- 2500 -->
      <g transform="translate(16.770313 221.954192)scale(0.1 -0.1)">
       <use xlink:href="#DejaVuSans-2212"/>
       <use x="83.789062" xlink:href="#DejaVuSans-32"/>
       <use x="147.412109" xlink:href="#DejaVuSans-35"/>
       <use x="211.035156" xlink:href="#DejaVuSans-30"/>
       <use x="274.658203" xlink:href="#DejaVuSans-30"/>
      </g>
     </g>
    </g>
    <g id="ytick_4">
     <g id="line2d_25">
      <path clip-path="url(#pd780161c57)" d="M 57.6 182.960981 
L 414.72 182.960981 
" style="fill:none;stroke:#b0b0b0;stroke-linecap:square;stroke-width:0.8;"/>
     </g>
     <g id="line2d_26">
      <g>
       <use style="stroke:#000000;stroke-width:0.8;" x="57.6" xlink:href="#m6cee8a0b55" y="182.960981"/>
      </g>
     </g>
     <g id="text_14">
      <!-- 2000 -->
      <g transform="translate(16.770313 186.760199)scale(0.1 -0.1)">
       <use xlink:href="#DejaVuSans-2212"/>
       <use x="83.789062" xlink:href="#DejaVuSans-32"/>
       <use x="147.412109" xlink:href="#DejaVuSans-30"/>
       <use x="211.035156" xlink:href="#DejaVuSans-30"/>
       <use x="274.658203" xlink:href="#DejaVuSans-30"/>
      </g>
     </g>
    </g>
    <g id="ytick_5">
     <g id="line2d_27">
      <path clip-path="url(#pd780161c57)" d="M 57.6 147.766988 
L 414.72 147.766988 
" style="fill:none;stroke:#b0b0b0;stroke-linecap:square;stroke-width:0.8;"/>
     </g>
     <g id="line2d_28">
      <g>
       <use style="stroke:#000000;stroke-width:0.8;" x="57.6" xlink:href="#m6cee8a0b55" y="147.766988"/>
      </g>
     </g>
     <g id="text_15">
      <!-- 1500 -->
      <g transform="translate(16.770313 151.566206)scale(0.1 -0.1)">
       <use xlink:href="#DejaVuSans-2212"/>
       <use x="83.789062" xlink:href="#DejaVuSans-31"/>
       <use x="147.412109" xlink:href="#DejaVuSans-35"/>
       <use x="211.035156" xlink:href="#DejaVuSans-30"/>
       <use x="274.658203" xlink:href="#DejaVuSans-30"/>
      </g>
     </g>
    </g>
    <g id="ytick_6">
     <g id="line2d_29">
      <path clip-path="url(#pd780161c57)" d="M 57.6 112.572995 
L 414.72 112.572995 
" style="fill:none;stroke:#b0b0b0;stroke-linecap:square;stroke-width:0.8;"/>
     </g>
     <g id="line2d_30">
      <g>
       <use style="stroke:#000000;stroke-width:0.8;" x="57.6" xlink:href="#m6cee8a0b55" y="112.572995"/>
      </g>
     </g>
     <g id="text_16">
      <!-- 1000 -->
      <g transform="translate(16.770313 116.372213)scale(0.1 -0.1)">
       <use xlink:href="#DejaVuSans-2212"/>
       <use x="83.789062" xlink:href="#DejaVuSans-31"/>
       <use x="147.412109" xlink:href="#DejaVuSans-30"/>
       <use x="211.035156" xlink:href="#DejaVuSans-30"/>
       <use x="274.658203" xlink:href="#DejaVuSans-30"/>
      </g>
     </g>
    </g>
    <g id="ytick_7">
     <g id="line2d_31">
      <path clip-path="url(#pd780161c57)" d="M 57.6 77.379002 
L 414.72 77.379002 
" style="fill:none;stroke:#b0b0b0;stroke-linecap:square;stroke-width:0.8;"/>
     </g>
     <g id="line2d_32">
      <g>
       <use style="stroke:#000000;stroke-width:0.8;" x="57.6" xlink:href="#m6cee8a0b55" y="77.379002"/>
      </g>
     </g>
     <g id="text_17">
      <!-- 500 -->
      <g transform="translate(23.132812 81.17822)scale(0.1 -0.1)">
       <use xlink:href="#DejaVuSans-2212"/>
       <use x="83.789062" xlink:href="#DejaVuSans-35"/>
       <use x="147.412109" xlink:href="#DejaVuSans-30"/>
       <use x="211.035156" xlink:href="#DejaVuSans-30"/>
      </g>
     </g>
    </g>
    <g id="ytick_8">
     <g id="line2d_33">
      <path clip-path="url(#pd780161c57)" d="M 57.6 42.185009 
L 414.72 42.185009 
" style="fill:none;stroke:#b0b0b0;stroke-linecap:square;stroke-width:0.8;"/>
     </g>
     <g id="line2d_34">
      <g>
       <use style="stroke:#000000;stroke-width:0.8;" x="57.6" xlink:href="#m6cee8a0b55" y="42.185009"/>
      </g>
     </g>
     <g id="text_18">
      <!-- 0 -->
      <g transform="translate(44.2375 45.984227)scale(0.1 -0.1)">
       <use xlink:href="#DejaVuSans-30"/>
      </g>
     </g>
    </g>
    <g id="text_19">
     <!-- Average Reward -->
     <g transform="translate(10.690625 215.270969)rotate(-90)scale(0.1 -0.1)">
      <defs>
       <path d="M 2188 4044 
L 1331 1722 
L 3047 1722 
L 2188 4044 
z
M 1831 4666 
L 2547 4666 
L 4325 0 
L 3669 0 
L 3244 1197 
L 1141 1197 
L 716 0 
L 50 0 
L 1831 4666 
z
" id="DejaVuSans-41" transform="scale(0.015625)"/>
       <path d="M 191 3500 
L 800 3500 
L 1894 563 
L 2988 3500 
L 3597 3500 
L 2284 0 
L 1503 0 
L 191 3500 
z
" id="DejaVuSans-76" transform="scale(0.015625)"/>
       <path d="M 3597 1894 
L 3597 1613 
L 953 1613 
Q 991 1019 1311 708 
Q 1631 397 2203 397 
Q 2534 397 2845 478 
Q 3156 559 3463 722 
L 3463 178 
Q 3153 47 2828 -22 
Q 2503 -91 2169 -91 
Q 1331 -91 842 396 
Q 353 884 353 1716 
Q 353 2575 817 3079 
Q 1281 3584 2069 3584 
Q 2775 3584 3186 3129 
Q 3597 2675 3597 1894 
z
M 3022 2063 
Q 3016 2534 2758 2815 
Q 2500 3097 2075 3097 
Q 1594 3097 1305 2825 
Q 1016 2553 972 2059 
L 3022 2063 
z
" id="DejaVuSans-65" transform="scale(0.015625)"/>
       <path d="M 2631 2963 
Q 2534 3019 2420 3045 
Q 2306 3072 2169 3072 
Q 1681 3072 1420 2755 
Q 1159 2438 1159 1844 
L 1159 0 
L 581 0 
L 581 3500 
L 1159 3500 
L 1159 2956 
Q 1341 3275 1631 3429 
Q 1922 3584 2338 3584 
Q 2397 3584 2469 3576 
Q 2541 3569 2628 3553 
L 2631 2963 
z
" id="DejaVuSans-72" transform="scale(0.015625)"/>
       <path d="M 2194 1759 
Q 1497 1759 1228 1600 
Q 959 1441 959 1056 
Q 959 750 1161 570 
Q 1363 391 1709 391 
Q 2188 391 2477 730 
Q 2766 1069 2766 1631 
L 2766 1759 
L 2194 1759 
z
M 3341 1997 
L 3341 0 
L 2766 0 
L 2766 531 
Q 2569 213 2275 61 
Q 1981 -91 1556 -91 
Q 1019 -91 701 211 
Q 384 513 384 1019 
Q 384 1609 779 1909 
Q 1175 2209 1959 2209 
L 2766 2209 
L 2766 2266 
Q 2766 2663 2505 2880 
Q 2244 3097 1772 3097 
Q 1472 3097 1187 3025 
Q 903 2953 641 2809 
L 641 3341 
Q 956 3463 1253 3523 
Q 1550 3584 1831 3584 
Q 2591 3584 2966 3190 
Q 3341 2797 3341 1997 
z
" id="DejaVuSans-61" transform="scale(0.015625)"/>
       <path d="M 2906 1791 
Q 2906 2416 2648 2759 
Q 2391 3103 1925 3103 
Q 1463 3103 1205 2759 
Q 947 2416 947 1791 
Q 947 1169 1205 825 
Q 1463 481 1925 481 
Q 2391 481 2648 825 
Q 2906 1169 2906 1791 
z
M 3481 434 
Q 3481 -459 3084 -895 
Q 2688 -1331 1869 -1331 
Q 1566 -1331 1297 -1286 
Q 1028 -1241 775 -1147 
L 775 -588 
Q 1028 -725 1275 -790 
Q 1522 -856 1778 -856 
Q 2344 -856 2625 -561 
Q 2906 -266 2906 331 
L 2906 616 
Q 2728 306 2450 153 
Q 2172 0 1784 0 
Q 1141 0 747 490 
Q 353 981 353 1791 
Q 353 2603 747 3093 
Q 1141 3584 1784 3584 
Q 2172 3584 2450 3431 
Q 2728 3278 2906 2969 
L 2906 3500 
L 3481 3500 
L 3481 434 
z
" id="DejaVuSans-67" transform="scale(0.015625)"/>
       <path id="DejaVuSans-20" transform="scale(0.015625)"/>
       <path d="M 2841 2188 
Q 3044 2119 3236 1894 
Q 3428 1669 3622 1275 
L 4263 0 
L 3584 0 
L 2988 1197 
Q 2756 1666 2539 1819 
Q 2322 1972 1947 1972 
L 1259 1972 
L 1259 0 
L 628 0 
L 628 4666 
L 2053 4666 
Q 2853 4666 3247 4331 
Q 3641 3997 3641 3322 
Q 3641 2881 3436 2590 
Q 3231 2300 2841 2188 
z
M 1259 4147 
L 1259 2491 
L 2053 2491 
Q 2509 2491 2742 2702 
Q 2975 2913 2975 3322 
Q 2975 3731 2742 3939 
Q 2509 4147 2053 4147 
L 1259 4147 
z
" id="DejaVuSans-52" transform="scale(0.015625)"/>
       <path d="M 269 3500 
L 844 3500 
L 1563 769 
L 2278 3500 
L 2956 3500 
L 3675 769 
L 4391 3500 
L 4966 3500 
L 4050 0 
L 3372 0 
L 2619 2869 
L 1863 0 
L 1184 0 
L 269 3500 
z
" id="DejaVuSans-77" transform="scale(0.015625)"/>
       <path d="M 2906 2969 
L 2906 4863 
L 3481 4863 
L 3481 0 
L 2906 0 
L 2906 525 
Q 2725 213 2448 61 
Q 2172 -91 1784 -91 
Q 1150 -91 751 415 
Q 353 922 353 1747 
Q 353 2572 751 3078 
Q 1150 3584 1784 3584 
Q 2172 3584 2448 3432 
Q 2725 3281 2906 2969 
z
M 947 1747 
Q 947 1113 1208 752 
Q 1469 391 1925 391 
Q 2381 391 2643 752 
Q 2906 1113 2906 1747 
Q 2906 2381 2643 2742 
Q 2381 3103 1925 3103 
Q 1469 3103 1208 2742 
Q 947 2381 947 1747 
z
" id="DejaVuSans-64" transform="scale(0.015625)"/>
      </defs>
      <use xlink:href="#DejaVuSans-41"/>
      <use x="62.533203" xlink:href="#DejaVuSans-76"/>
      <use x="121.712891" xlink:href="#DejaVuSans-65"/>
      <use x="183.236328" xlink:href="#DejaVuSans-72"/>
      <use x="224.349609" xlink:href="#DejaVuSans-61"/>
      <use x="285.628906" xlink:href="#DejaVuSans-67"/>
      <use x="349.105469" xlink:href="#DejaVuSans-65"/>
      <use x="410.628906" xlink:href="#DejaVuSans-20"/>
      <use x="442.416016" xlink:href="#DejaVuSans-52"/>
      <use x="507.398438" xlink:href="#DejaVuSans-65"/>
      <use x="568.921875" xlink:href="#DejaVuSans-77"/>
      <use x="650.708984" xlink:href="#DejaVuSans-61"/>
      <use x="711.988281" xlink:href="#DejaVuSans-72"/>
      <use x="751.351562" xlink:href="#DejaVuSans-64"/>
     </g>
    </g>
   </g>
   <g id="line2d_35">
    <path clip-path="url(#pd780161c57)" d="M 73.832727 215.081359 
L 74.239053 195.404302 
L 74.645379 185.622586 
L 75.458032 172.612978 
L 75.864358 173.309607 
L 76.270684 176.198083 
L 76.67701 162.644488 
L 77.083336 185.462455 
L 77.489662 174.602554 
L 77.895988 174.795832 
L 78.302314 177.562438 
L 78.70864 183.116344 
L 79.114966 175.229061 
L 79.521293 182.885635 
L 79.927619 163.745182 
L 80.333945 175.268717 
L 80.740271 167.75223 
L 81.146597 170.363344 
L 81.552923 174.764839 
L 81.959249 173.676278 
L 82.365575 172.112937 
L 82.771901 206.11294 
L 83.178227 177.597991 
L 83.584553 180.383607 
L 83.99088 181.380581 
L 84.397206 179.112157 
L 84.803532 170.335396 
L 85.209858 178.366101 
L 85.616184 169.721344 
L 86.02251 178.598525 
L 86.428836 179.983098 
L 87.241488 118.547483 
L 87.647814 99.92588 
L 88.05414 99.869038 
L 88.460466 91.28737 
L 88.866793 90.794691 
L 89.273119 97.803982 
L 89.679445 83.381738 
L 90.085771 87.428425 
L 90.492097 92.672883 
L 90.898423 110.774129 
L 91.304749 82.913042 
L 91.711075 78.840119 
L 92.117401 85.293966 
L 92.523727 76.61912 
L 92.930053 81.550431 
L 93.33638 77.474741 
L 93.742706 79.741853 
L 94.149032 91.580838 
L 94.555358 82.983261 
L 94.961684 81.632968 
L 95.36801 82.11901 
L 95.774336 84.33041 
L 96.180662 79.908923 
L 96.586988 85.345041 
L 96.993314 80.732561 
L 97.39964 83.749612 
L 97.805967 79.519086 
L 98.212293 79.798651 
L 98.618619 80.842146 
L 99.024945 80.00146 
L 99.837597 84.621928 
L 100.243923 85.074104 
L 100.650249 79.337084 
L 101.056575 82.07335 
L 101.462901 81.177005 
L 101.869227 83.290308 
L 102.275554 83.408418 
L 102.68188 86.497756 
L 103.088206 81.999538 
L 103.494532 80.639231 
L 103.900858 85.195114 
L 104.307184 82.584688 
L 104.71351 78.391304 
L 105.119836 83.84626 
L 105.526162 84.319311 
L 105.932488 77.129399 
L 106.338814 81.604813 
L 106.745141 88.616076 
L 107.151467 86.004923 
L 107.557793 88.825159 
L 107.964119 82.858499 
L 108.370445 82.98251 
L 108.776771 78.898376 
L 109.183097 79.039341 
L 109.589423 81.034305 
L 109.995749 85.937105 
L 110.402075 93.110285 
L 110.808401 90.714065 
L 111.214728 81.589411 
L 111.621054 85.202435 
L 112.02738 80.556085 
L 112.433706 81.349321 
L 112.840032 82.724541 
L 113.246358 79.626701 
L 113.652684 80.409453 
L 114.05901 82.361649 
L 114.465336 74.86054 
L 114.871662 80.233231 
L 115.277988 81.902489 
L 115.684314 80.268085 
L 116.090641 81.441006 
L 116.496967 85.165155 
L 116.903293 86.50871 
L 117.309619 83.596237 
L 117.715945 83.329483 
L 118.528597 75.682721 
L 118.934923 79.911629 
L 119.341249 82.474798 
L 119.747575 79.535756 
L 120.153901 84.116825 
L 120.560228 82.809996 
L 120.966554 78.500125 
L 121.37288 79.158085 
L 121.779206 82.565225 
L 122.185532 79.93454 
L 122.591858 75.812087 
L 122.998184 79.989183 
L 123.40451 77.980138 
L 123.810836 79.428773 
L 124.217162 78.862287 
L 124.623488 76.740859 
L 125.029815 78.190654 
L 125.436141 76.074625 
L 125.842467 80.570705 
L 126.248793 83.530396 
L 126.655119 89.701815 
L 127.061445 84.279163 
L 127.467771 86.510715 
L 127.874097 84.042658 
L 128.280423 77.489461 
L 129.093075 88.370913 
L 129.499402 85.736579 
L 129.905728 80.648461 
L 130.312054 78.461933 
L 130.71838 74.318062 
L 131.124706 79.109588 
L 131.531032 80.988254 
L 131.937358 76.957563 
L 132.343684 82.66601 
L 132.75001 85.396586 
L 133.156336 92.619038 
L 133.562662 78.679368 
L 133.968989 78.829214 
L 134.375315 75.040889 
L 134.781641 79.046406 
L 135.187967 79.275149 
L 135.594293 78.894737 
L 136.000619 78.10396 
L 136.406945 81.196502 
L 136.813271 79.835697 
L 137.219597 81.749618 
L 137.625923 78.418501 
L 138.032249 76.161914 
L 138.438575 78.668958 
L 138.844902 79.044856 
L 139.251228 81.275301 
L 139.657554 74.447392 
L 140.06388 81.601129 
L 140.470206 79.82778 
L 140.876532 80.451012 
L 141.282858 74.588015 
L 141.689184 74.43751 
L 142.09551 75.890509 
L 142.501836 82.276573 
L 142.908162 79.703719 
L 143.314489 79.181757 
L 144.127141 82.285894 
L 144.939793 73.648688 
L 145.346119 78.4663 
L 145.752445 73.62211 
L 146.158771 80.064941 
L 146.565097 76.066824 
L 146.971423 79.356416 
L 147.377749 80.709483 
L 148.190402 75.289708 
L 148.596728 75.682915 
L 149.003054 78.014698 
L 149.40938 77.782675 
L 149.815706 76.962536 
L 150.222032 79.086817 
L 150.628358 80.536241 
L 151.034684 79.210291 
L 151.44101 75.209875 
L 151.847336 76.69891 
L 152.253663 82.871118 
L 152.659989 75.755728 
L 153.066315 78.432372 
L 153.472641 78.767298 
L 153.878967 75.887906 
L 154.285293 79.166039 
L 154.691619 79.063339 
L 155.097945 78.078998 
L 155.504271 76.345474 
L 156.316923 82.266723 
L 156.72325 76.683207 
L 157.129576 78.007448 
L 157.535902 74.359413 
L 158.348554 81.239326 
L 158.75488 77.268671 
L 159.161206 77.230797 
L 159.567532 79.677802 
L 159.973858 79.699704 
L 160.380184 81.271986 
L 160.78651 84.394043 
L 161.599163 76.90807 
L 162.005489 78.443481 
L 162.411815 77.733605 
L 162.818141 76.228065 
L 163.224467 79.297021 
L 163.630793 78.251823 
L 164.037119 72.921332 
L 164.443445 78.487589 
L 164.849771 80.03012 
L 165.256097 75.98862 
L 165.662423 77.836769 
L 166.06875 76.298533 
L 166.475076 76.639576 
L 166.881402 74.429167 
L 167.287728 80.733046 
L 167.694054 78.054622 
L 168.10038 77.862024 
L 168.506706 79.137449 
L 168.913032 79.228486 
L 169.319358 78.291985 
L 169.725684 80.690264 
L 170.13201 81.547463 
L 170.538337 81.345408 
L 170.944663 78.981853 
L 171.350989 79.5265 
L 171.757315 74.578082 
L 172.163641 78.281717 
L 172.569967 78.273658 
L 172.976293 80.190944 
L 173.382619 79.334109 
L 173.788945 77.817467 
L 174.195271 76.950331 
L 174.601597 78.010608 
L 175.007924 76.660134 
L 175.41425 76.061039 
L 175.820576 73.985952 
L 176.226902 81.159767 
L 176.633228 80.83761 
L 177.039554 76.880192 
L 177.852206 81.039498 
L 178.258532 78.360977 
L 178.664858 80.423999 
L 179.071184 77.156661 
L 179.477511 79.094099 
L 179.883837 78.305965 
L 180.696489 83.426762 
L 181.102815 75.261967 
L 181.509141 75.110503 
L 181.915467 79.891059 
L 182.321793 78.196464 
L 182.728119 77.049185 
L 183.134445 76.355653 
L 183.540771 78.384072 
L 183.947098 77.810585 
L 184.353424 78.149242 
L 184.75975 77.854621 
L 185.166076 78.894406 
L 185.572402 78.366568 
L 185.978728 77.317241 
L 186.385054 78.375792 
L 186.79138 75.804923 
L 187.197706 81.299474 
L 187.604032 76.887142 
L 188.010358 79.669899 
L 188.416684 77.922019 
L 188.823011 77.010847 
L 189.229337 81.853818 
L 190.041989 76.107513 
L 190.854641 79.425007 
L 191.260967 81.142416 
L 191.667293 79.395334 
L 192.073619 75.350885 
L 192.479945 77.576793 
L 192.886271 78.097861 
L 193.292598 79.247612 
L 193.698924 74.656654 
L 194.10525 78.218772 
L 194.511576 79.000664 
L 194.917902 77.203554 
L 195.324228 78.248592 
L 195.730554 79.994858 
L 196.13688 75.918359 
L 196.543206 80.141391 
L 196.949532 80.063327 
L 197.355858 80.243301 
L 197.762185 77.101621 
L 198.168511 76.212567 
L 198.574837 77.669991 
L 198.981163 76.182078 
L 199.387489 76.10886 
L 199.793815 81.540488 
L 200.200141 81.882801 
L 200.606467 74.488262 
L 201.012793 81.420815 
L 201.419119 77.751174 
L 201.825445 81.208213 
L 202.231772 76.083985 
L 202.638098 76.899533 
L 203.45075 75.510869 
L 203.857076 75.372115 
L 204.263402 78.736583 
L 204.669728 77.510079 
L 205.076054 80.369271 
L 205.48238 79.860238 
L 205.888706 75.913338 
L 206.295032 77.192087 
L 206.701359 81.016798 
L 207.107685 79.767421 
L 207.514011 80.236872 
L 207.920337 80.041885 
L 208.326663 77.751683 
L 208.732989 74.696222 
L 209.139315 79.540802 
L 209.545641 80.231543 
L 209.951967 80.485176 
L 210.358293 77.013822 
L 210.764619 79.073791 
L 211.170946 79.189781 
L 211.577272 77.337819 
L 211.983598 72.496745 
L 212.389924 76.889396 
L 212.79625 79.319971 
L 213.202576 75.685544 
L 213.608902 76.869197 
L 214.015228 75.69158 
L 214.421554 78.662376 
L 214.82788 77.544674 
L 215.234206 80.247152 
L 215.640532 81.647405 
L 216.046859 83.543762 
L 216.453185 78.455591 
L 216.859511 79.283567 
L 217.265837 78.49832 
L 217.672163 81.109604 
L 218.078489 76.150666 
L 218.484815 78.742358 
L 218.891141 78.160179 
L 219.297467 76.462688 
L 219.703793 76.553532 
L 220.110119 74.832518 
L 220.922772 79.538863 
L 221.329098 73.574916 
L 221.735424 81.878025 
L 222.14175 77.60859 
L 222.548076 78.65207 
L 222.954402 79.211404 
L 223.360728 80.51231 
L 223.767054 77.99029 
L 224.17338 82.079158 
L 224.579706 76.908468 
L 224.986033 79.704902 
L 225.392359 76.617146 
L 225.798685 79.582702 
L 226.205011 85.384337 
L 226.611337 85.815798 
L 227.017663 86.6472 
L 227.423989 79.28151 
L 227.830315 81.674914 
L 228.236641 80.880635 
L 228.642967 85.575369 
L 229.049293 83.067567 
L 229.45562 75.515451 
L 229.861946 76.546466 
L 230.268272 79.354417 
L 230.674598 77.260046 
L 231.080924 79.86197 
L 231.48725 81.6695 
L 231.893576 81.208228 
L 232.299902 81.435036 
L 232.706228 74.678151 
L 233.51888 83.082358 
L 233.925207 81.135642 
L 234.331533 80.284346 
L 234.737859 80.446268 
L 235.144185 80.094324 
L 235.550511 75.649479 
L 235.956837 81.07088 
L 236.363163 79.5784 
L 236.769489 81.983504 
L 237.175815 77.656674 
L 237.582141 81.503665 
L 237.988467 83.592473 
L 238.394793 81.094221 
L 238.80112 80.255625 
L 239.207446 81.461055 
L 239.613772 80.927682 
L 240.020098 78.812154 
L 240.426424 80.507672 
L 240.83275 79.938161 
L 241.239076 78.531821 
L 241.645402 81.717735 
L 242.051728 77.292143 
L 242.458054 80.2199 
L 242.86438 76.094662 
L 243.270707 80.119737 
L 243.677033 76.877446 
L 244.083359 82.959587 
L 244.489685 79.785721 
L 244.896011 78.393706 
L 245.302337 80.577259 
L 245.708663 83.956332 
L 246.114989 80.606194 
L 246.521315 80.612637 
L 246.927641 80.458117 
L 247.333967 82.824313 
L 247.740294 82.477139 
L 248.14662 86.312411 
L 248.552946 82.207702 
L 248.959272 82.885166 
L 249.365598 79.400765 
L 249.771924 84.535249 
L 250.17825 83.609347 
L 250.584576 79.205454 
L 250.990902 81.704271 
L 251.397228 80.579431 
L 251.803554 83.031864 
L 252.209881 79.525949 
L 252.616207 81.746458 
L 253.022533 77.961689 
L 253.428859 77.730785 
L 253.835185 81.898428 
L 254.241511 83.200963 
L 254.647837 80.27057 
L 255.054163 75.650538 
L 255.866815 82.197338 
L 256.273141 79.437198 
L 256.679468 82.1973 
L 257.085794 80.483551 
L 257.898446 75.334657 
L 258.304772 84.772803 
L 258.711098 82.455651 
L 259.117424 81.684592 
L 259.52375 85.60382 
L 259.930076 75.532377 
L 260.336402 80.489355 
L 260.742728 80.176651 
L 261.149054 79.586276 
L 261.555381 78.08736 
L 261.961707 82.563389 
L 262.368033 80.242744 
L 262.774359 82.198483 
L 263.180685 83.533212 
L 263.587011 88.818215 
L 263.993337 80.431729 
L 264.399663 82.498472 
L 264.805989 79.216228 
L 265.212315 79.037104 
L 265.618641 83.698193 
L 266.024968 83.691636 
L 266.431294 82.729256 
L 266.83762 84.081443 
L 267.243946 81.854284 
L 268.056598 88.896458 
L 268.462924 90.49606 
L 268.86925 94.832903 
L 269.275576 96.521331 
L 269.681902 91.232334 
L 270.088228 99.692186 
L 270.494555 87.91777 
L 271.307207 82.663042 
L 271.713533 81.68286 
L 272.119859 81.048653 
L 272.526185 82.626644 
L 272.932511 80.581911 
L 273.338837 85.088879 
L 273.745163 85.764461 
L 274.151489 77.999149 
L 274.557815 77.560697 
L 274.964142 80.393151 
L 275.370468 78.575254 
L 275.776794 81.587987 
L 276.18312 83.249481 
L 276.589446 80.790089 
L 276.995772 81.494141 
L 277.808424 87.541462 
L 278.21475 81.039397 
L 278.621076 84.383216 
L 279.433729 80.900053 
L 279.840055 82.052154 
L 280.246381 84.12482 
L 280.652707 80.263823 
L 281.059033 80.511582 
L 281.465359 84.806122 
L 281.871685 86.832794 
L 282.278011 82.083111 
L 282.684337 80.088197 
L 283.090663 89.664402 
L 283.496989 78.150383 
L 283.903316 81.014552 
L 284.309642 82.752852 
L 284.715968 82.6842 
L 285.122294 77.235294 
L 285.52862 82.577632 
L 285.934946 80.353974 
L 286.341272 79.563158 
L 286.747598 83.946844 
L 287.153924 80.239896 
L 287.56025 80.499847 
L 287.966576 83.082078 
L 288.372902 81.991527 
L 288.779229 75.408227 
L 289.185555 84.103129 
L 289.591881 79.137491 
L 289.998207 82.920638 
L 290.404533 78.963743 
L 290.810859 81.42743 
L 291.217185 80.779755 
L 292.029837 88.75942 
L 292.436163 80.491294 
L 292.842489 78.579983 
L 293.248816 80.782069 
L 293.655142 77.804025 
L 294.061468 91.066691 
L 294.467794 77.484358 
L 294.87412 79.235546 
L 295.280446 78.560324 
L 295.686772 83.116878 
L 296.093098 76.795797 
L 296.90575 80.841104 
L 297.312076 81.057714 
L 297.718403 79.230252 
L 298.124729 83.93578 
L 298.937381 80.054727 
L 299.343707 81.633172 
L 299.750033 81.651165 
L 300.156359 78.994936 
L 300.562685 82.670406 
L 300.969011 83.186682 
L 301.375337 79.342386 
L 302.18799 83.238052 
L 302.594316 84.293834 
L 303.000642 80.729138 
L 303.406968 83.302878 
L 303.813294 80.058722 
L 304.21962 81.278378 
L 304.625946 80.864981 
L 305.032272 81.35888 
L 305.438598 85.21261 
L 305.844924 80.353884 
L 306.25125 80.497988 
L 306.657577 81.032842 
L 307.063903 79.822019 
L 307.470229 79.145178 
L 307.876555 80.007347 
L 308.282881 82.015203 
L 308.689207 78.537111 
L 309.095533 83.790825 
L 309.501859 82.752323 
L 309.908185 81.271065 
L 310.314511 81.727705 
L 310.720837 81.471703 
L 311.127163 76.847699 
L 311.53349 83.554918 
L 311.939816 78.61798 
L 312.346142 79.57935 
L 312.752468 85.421015 
L 313.158794 82.919547 
L 313.56512 78.215998 
L 313.971446 82.084725 
L 314.377772 78.08406 
L 314.784098 75.888345 
L 315.190424 80.786499 
L 315.59675 81.59554 
L 316.003077 80.358356 
L 316.409403 77.517638 
L 316.815729 81.739429 
L 317.222055 78.772238 
L 317.628381 83.545381 
L 318.034707 80.620252 
L 318.441033 82.894605 
L 318.847359 79.751425 
L 319.253685 85.118852 
L 319.660011 78.99341 
L 320.472664 80.002189 
L 320.87899 81.051926 
L 321.285316 79.740823 
L 321.691642 81.630468 
L 322.097968 79.044691 
L 322.504294 81.416337 
L 322.91062 81.771855 
L 323.316946 80.212216 
L 323.723272 84.726397 
L 324.129598 80.829101 
L 324.942251 77.68318 
L 325.348577 80.728348 
L 325.754903 86.576222 
L 326.161229 89.21516 
L 326.567555 84.183976 
L 326.973881 81.646945 
L 327.380207 77.976825 
L 327.786533 79.04679 
L 328.192859 78.762224 
L 328.599185 83.913234 
L 329.005511 77.35209 
L 329.411838 85.475795 
L 329.818164 81.670684 
L 330.22449 82.221186 
L 330.630816 80.254927 
L 331.037142 80.271431 
L 331.443468 84.36289 
L 332.25612 85.749364 
L 332.662446 82.020202 
L 333.475098 77.563881 
L 333.881425 81.439066 
L 334.287751 77.201941 
L 334.694077 79.587569 
L 335.100403 79.019138 
L 335.506729 79.350708 
L 335.913055 80.750732 
L 336.319381 78.369519 
L 336.725707 85.523797 
L 337.132033 81.412875 
L 337.538359 83.27649 
L 337.944685 80.689359 
L 338.351011 81.256793 
L 338.757338 79.645506 
L 339.163664 82.379969 
L 339.56999 81.83898 
L 339.976316 81.745949 
L 340.382642 78.84648 
L 341.195294 81.296003 
L 341.60162 78.424748 
L 342.007946 77.631724 
L 342.414272 80.820865 
L 342.820598 82.68691 
L 343.226925 76.2628 
L 343.633251 79.873042 
L 344.039577 78.207129 
L 344.445903 77.488853 
L 344.852229 75.349844 
L 345.258555 81.692908 
L 345.664881 76.132975 
L 346.071207 76.528693 
L 346.477533 76.077188 
L 346.883859 78.459548 
L 347.290185 74.088291 
L 347.696512 75.726568 
L 348.102838 82.760919 
L 348.509164 79.024894 
L 348.91549 78.307125 
L 349.321816 79.131404 
L 349.728142 75.646056 
L 350.134468 75.235838 
L 350.540794 79.440748 
L 350.94712 78.648294 
L 351.353446 79.246708 
L 351.759772 75.960573 
L 352.166099 80.780509 
L 352.572425 80.937955 
L 352.978751 87.941758 
L 353.385077 88.550317 
L 353.791403 89.948565 
L 354.197729 75.226015 
L 354.604055 81.30493 
L 355.010381 79.756007 
L 355.416707 79.437915 
L 355.823033 80.855488 
L 356.229359 77.919842 
L 356.635686 77.425718 
L 357.448338 82.893192 
L 358.26099 79.799859 
L 358.667316 76.391874 
L 359.073642 79.280229 
L 359.479968 80.39188 
L 359.886294 80.976795 
L 360.29262 78.008682 
L 360.698946 84.261233 
L 361.105272 83.511936 
L 361.511599 77.88633 
L 361.917925 82.451484 
L 362.324251 84.331114 
L 362.730577 79.717492 
L 363.136903 84.28665 
L 363.543229 84.02513 
L 364.355881 117.683032 
L 364.762207 151.648258 
L 365.168533 124.973333 
L 365.574859 129.699533 
L 365.981186 123.424984 
L 366.387512 136.007452 
L 366.793838 133.461564 
L 367.200164 133.714203 
L 367.60649 134.998095 
L 368.012816 131.8525 
L 368.419142 124.238864 
L 368.825468 124.924116 
L 369.231794 133.620345 
L 370.044446 116.615086 
L 370.450773 99.298734 
L 370.857099 93.900091 
L 371.263425 75.478434 
L 371.669751 77.219573 
L 372.076077 80.92238 
L 372.482403 78.685953 
L 372.888729 79.118099 
L 373.295055 80.462324 
L 373.701381 80.281525 
L 374.92036 74.505618 
L 375.326686 77.194748 
L 375.733012 79.009224 
L 376.139338 76.083161 
L 376.545664 78.408163 
L 376.95199 79.917462 
L 377.358316 74.373764 
L 377.764642 76.80808 
L 378.170968 76.761587 
L 378.577294 81.18262 
L 378.98362 80.4034 
L 379.389947 79.016719 
L 379.796273 76.047615 
L 380.202599 85.469154 
L 380.608925 77.054883 
L 381.421577 83.163415 
L 381.827903 77.081075 
L 382.234229 80.629759 
L 382.640555 80.671928 
L 383.046881 78.345694 
L 383.859534 83.162779 
L 384.26586 77.924429 
L 384.672186 80.214418 
L 385.078512 77.591319 
L 385.484838 80.241414 
L 385.891164 77.350507 
L 386.29749 78.2715 
L 386.703816 78.73481 
L 387.110142 79.952082 
L 387.516468 79.536486 
L 387.922794 82.44443 
L 388.32912 80.343963 
L 388.735447 83.8345 
L 389.141773 81.53133 
L 389.548099 83.663637 
L 389.954425 78.567981 
L 390.360751 78.010257 
L 390.767077 84.880508 
L 391.173403 80.480774 
L 391.579729 79.189293 
L 391.986055 78.642181 
L 392.392381 78.998916 
L 392.798707 77.099813 
L 393.205034 77.278177 
L 393.61136 80.846098 
L 394.017686 78.735424 
L 394.424012 77.816716 
L 394.830338 81.626008 
L 395.236664 78.54169 
L 395.64299 76.996824 
L 396.049316 81.158572 
L 396.455642 80.793955 
L 396.861968 80.09638 
L 397.268294 79.875293 
L 397.674621 78.761464 
L 398.080947 82.826448 
L 398.487273 81.11446 
L 398.487273 81.11446 
" style="fill:none;stroke:#1f77b4;stroke-linecap:square;stroke-width:1.5;"/>
   </g>
   <g id="patch_3">
    <path d="M 57.6 307.584 
L 57.6 41.472 
" style="fill:none;stroke:#000000;stroke-linecap:square;stroke-linejoin:miter;stroke-width:0.8;"/>
   </g>
   <g id="patch_4">
    <path d="M 414.72 307.584 
L 414.72 41.472 
" style="fill:none;stroke:#000000;stroke-linecap:square;stroke-linejoin:miter;stroke-width:0.8;"/>
   </g>
   <g id="patch_5">
    <path d="M 57.6 307.584 
L 414.72 307.584 
" style="fill:none;stroke:#000000;stroke-linecap:square;stroke-linejoin:miter;stroke-width:0.8;"/>
   </g>
   <g id="patch_6">
    <path d="M 57.6 41.472 
L 414.72 41.472 
" style="fill:none;stroke:#000000;stroke-linecap:square;stroke-linejoin:miter;stroke-width:0.8;"/>
   </g>
   <g id="legend_1">
    <g id="patch_7">
     <path d="M 246.868437 64.150125 
L 407.72 64.150125 
Q 409.72 64.150125 409.72 62.150125 
L 409.72 48.472 
Q 409.72 46.472 407.72 46.472 
L 246.868437 46.472 
Q 244.868437 46.472 244.868437 48.472 
L 244.868437 62.150125 
Q 244.868437 64.150125 246.868437 64.150125 
z
" style="fill:#ffffff;opacity:0.8;stroke:#cccccc;stroke-linejoin:miter;"/>
    </g>
    <g id="line2d_36">
     <path d="M 248.868437 54.570438 
L 268.868438 54.570438 
" style="fill:none;stroke:#1f77b4;stroke-linecap:square;stroke-width:1.5;"/>
    </g>
    <g id="line2d_37"/>
    <g id="text_20">
     <!-- Average Reward with Std. -->
     <g transform="translate(276.868438 58.070438)scale(0.1 -0.1)">
      <defs>
       <path d="M 603 3500 
L 1178 3500 
L 1178 0 
L 603 0 
L 603 3500 
z
M 603 4863 
L 1178 4863 
L 1178 4134 
L 603 4134 
L 603 4863 
z
" id="DejaVuSans-69" transform="scale(0.015625)"/>
       <path d="M 1172 4494 
L 1172 3500 
L 2356 3500 
L 2356 3053 
L 1172 3053 
L 1172 1153 
Q 1172 725 1289 603 
Q 1406 481 1766 481 
L 2356 481 
L 2356 0 
L 1766 0 
Q 1100 0 847 248 
Q 594 497 594 1153 
L 594 3053 
L 172 3053 
L 172 3500 
L 594 3500 
L 594 4494 
L 1172 4494 
z
" id="DejaVuSans-74" transform="scale(0.015625)"/>
       <path d="M 3425 4513 
L 3425 3897 
Q 3066 4069 2747 4153 
Q 2428 4238 2131 4238 
Q 1616 4238 1336 4038 
Q 1056 3838 1056 3469 
Q 1056 3159 1242 3001 
Q 1428 2844 1947 2747 
L 2328 2669 
Q 3034 2534 3370 2195 
Q 3706 1856 3706 1288 
Q 3706 609 3251 259 
Q 2797 -91 1919 -91 
Q 1588 -91 1214 -16 
Q 841 59 441 206 
L 441 856 
Q 825 641 1194 531 
Q 1563 422 1919 422 
Q 2459 422 2753 634 
Q 3047 847 3047 1241 
Q 3047 1584 2836 1778 
Q 2625 1972 2144 2069 
L 1759 2144 
Q 1053 2284 737 2584 
Q 422 2884 422 3419 
Q 422 4038 858 4394 
Q 1294 4750 2059 4750 
Q 2388 4750 2728 4690 
Q 3069 4631 3425 4513 
z
" id="DejaVuSans-53" transform="scale(0.015625)"/>
       <path d="M 684 794 
L 1344 794 
L 1344 0 
L 684 0 
L 684 794 
z
" id="DejaVuSans-2e" transform="scale(0.015625)"/>
      </defs>
      <use xlink:href="#DejaVuSans-41"/>
      <use x="62.533203" xlink:href="#DejaVuSans-76"/>
      <use x="121.712891" xlink:href="#DejaVuSans-65"/>
      <use x="183.236328" xlink:href="#DejaVuSans-72"/>
      <use x="224.349609" xlink:href="#DejaVuSans-61"/>
      <use x="285.628906" xlink:href="#DejaVuSans-67"/>
      <use x="349.105469" xlink:href="#DejaVuSans-65"/>
      <use x="410.628906" xlink:href="#DejaVuSans-20"/>
      <use x="442.416016" xlink:href="#DejaVuSans-52"/>
      <use x="507.398438" xlink:href="#DejaVuSans-65"/>
      <use x="568.921875" xlink:href="#DejaVuSans-77"/>
      <use x="650.708984" xlink:href="#DejaVuSans-61"/>
      <use x="711.988281" xlink:href="#DejaVuSans-72"/>
      <use x="751.351562" xlink:href="#DejaVuSans-64"/>
      <use x="814.828125" xlink:href="#DejaVuSans-20"/>
      <use x="846.615234" xlink:href="#DejaVuSans-77"/>
      <use x="928.402344" xlink:href="#DejaVuSans-69"/>
      <use x="956.185547" xlink:href="#DejaVuSans-74"/>
      <use x="995.394531" xlink:href="#DejaVuSans-68"/>
      <use x="1058.773438" xlink:href="#DejaVuSans-20"/>
      <use x="1090.560547" xlink:href="#DejaVuSans-53"/>
      <use x="1154.037109" xlink:href="#DejaVuSans-74"/>
      <use x="1193.246094" xlink:href="#DejaVuSans-64"/>
      <use x="1256.722656" xlink:href="#DejaVuSans-2e"/>
     </g>
    </g>
   </g>
  </g>
 </g>
 <defs>
  <clipPath id="pd780161c57">
   <rect height="266.112" width="357.12" x="57.6" y="41.472"/>
  </clipPath>
 </defs>
</svg>
