<?xml version="1.0" encoding="utf-8" standalone="no"?>
<!DOCTYPE svg PUBLIC "-//W3C//DTD SVG 1.1//EN"
  "http://www.w3.org/Graphics/SVG/1.1/DTD/svg11.dtd">
<svg height="345.6pt" version="1.1" viewBox="0 0 460.8 345.6" width="460.8pt" xmlns="http://www.w3.org/2000/svg" xmlns:xlink="http://www.w3.org/1999/xlink">
 <metadata>
  <rdf:RDF xmlns:cc="http://creativecommons.org/ns#" xmlns:dc="http://purl.org/dc/elements/1.1/" xmlns:rdf="http://www.w3.org/1999/02/22-rdf-syntax-ns#">
   <cc:Work>
    <dc:type rdf:resource="http://purl.org/dc/dcmitype/StillImage"/>
    <dc:date>2022-01-29T11:46:27.717622</dc:date>
    <dc:format>image/svg+xml</dc:format>
    <dc:creator>
     <cc:Agent>
      <dc:title>Matplotlib v3.4.3, https://matplotlib.org/</dc:title>
     </cc:Agent>
    </dc:creator>
   </cc:Work>
  </rdf:RDF>
 </metadata>
 <defs>
  <style type="text/css">*{stroke-linecap:butt;stroke-linejoin:round;}</style>
 </defs>
 <g id="figure_1">
  <g id="patch_1">
   <path d="M 0 345.6 
L 460.8 345.6 
L 460.8 0 
L 0 0 
z
" style="fill:none;"/>
  </g>
  <g id="axes_1">
   <g id="patch_2">
    <path d="M 57.6 307.584 
L 414.72 307.584 
L 414.72 41.472 
L 57.6 41.472 
z
" style="fill:none;"/>
   </g>
   <g id="PolyCollection_1">
    <path clip-path="url(#p9ca472727c)" d="M 73.832727 192.734988 
L 73.832727 75155.486704 
L 74.239053 295.488 
L 74.645379 288.704132 
L 75.051706 284.447804 
L 75.458032 271.748487 
L 75.864358 259.486189 
L 76.270684 245.521975 
L 76.67701 254.433779 
L 77.083336 234.298672 
L 77.489662 231.702664 
L 77.895988 225.482201 
L 78.302314 218.256135 
L 78.70864 216.781801 
L 79.114966 212.721686 
L 79.521293 210.134563 
L 79.927619 204.863203 
L 80.333945 202.206829 
L 80.740271 194.385262 
L 81.146597 194.434445 
L 81.552923 205.921447 
L 81.959249 209.425201 
L 82.365575 186.440058 
L 82.771901 170.86218 
L 83.178227 166.773699 
L 83.584553 175.086925 
L 83.99088 170.108447 
L 84.397206 154.228587 
L 84.803532 144.017113 
L 85.209858 131.812229 
L 85.616184 117.789888 
L 86.02251 100.509566 
L 86.428836 82.120061 
L 86.835162 81.444579 
L 87.241488 82.871724 
L 87.647814 114.486608 
L 88.05414 104.312225 
L 88.460466 102.731776 
L 88.866793 127.301639 
L 89.273119 153.186225 
L 89.679445 163.460191 
L 90.085771 168.665309 
L 90.492097 180.602402 
L 90.898423 174.242921 
L 91.304749 181.653557 
L 91.711075 188.588411 
L 92.117401 188.306902 
L 92.523727 189.395654 
L 92.930053 189.45393 
L 93.33638 191.989971 
L 93.742706 191.4627 
L 94.149032 191.73748 
L 94.555358 193.116611 
L 94.961684 195.443841 
L 95.36801 197.696744 
L 95.774336 195.646613 
L 96.180662 197.666709 
L 96.586988 199.854553 
L 96.993314 198.954635 
L 97.39964 200.844986 
L 97.805967 202.207958 
L 98.212293 202.58263 
L 98.618619 201.536258 
L 99.024945 203.800108 
L 99.431271 202.042044 
L 99.837597 203.719061 
L 100.243923 203.279623 
L 100.650249 202.967898 
L 101.056575 206.233986 
L 101.462901 207.680033 
L 101.869227 208.540874 
L 102.275554 206.696187 
L 102.68188 206.586799 
L 103.088206 207.991335 
L 103.494532 208.789022 
L 103.900858 209.718969 
L 104.307184 210.793875 
L 104.71351 205.131693 
L 105.119836 209.637645 
L 105.526162 210.611942 
L 105.932488 212.134231 
L 106.338814 214.261572 
L 106.745141 209.94264 
L 107.151467 210.188125 
L 107.557793 208.711787 
L 107.964119 212.546676 
L 108.370445 212.145074 
L 108.776771 213.358146 
L 109.183097 213.684316 
L 109.589423 212.202349 
L 109.995749 213.586946 
L 110.402075 209.712867 
L 110.808401 210.930637 
L 111.214728 211.404362 
L 111.621054 214.435241 
L 112.02738 217.392491 
L 112.433706 218.307853 
L 112.840032 216.334125 
L 113.246358 219.566977 
L 113.652684 217.348081 
L 114.05901 215.666199 
L 114.465336 216.166791 
L 114.871662 218.786486 
L 115.277988 216.352701 
L 115.684314 216.32234 
L 116.090641 216.949151 
L 116.496967 218.631363 
L 116.903293 223.845922 
L 117.309619 222.369215 
L 117.715945 222.496468 
L 118.122271 222.577548 
L 118.528597 223.631728 
L 118.934923 222.675016 
L 119.341249 224.729907 
L 119.747575 225.517655 
L 120.153901 228.977333 
L 120.560228 225.854965 
L 120.966554 229.246436 
L 121.37288 227.605888 
L 121.779206 227.388645 
L 122.185532 231.77266 
L 122.591858 227.943883 
L 122.998184 225.34117 
L 123.40451 228.748976 
L 123.810836 229.711183 
L 124.217162 231.950568 
L 124.623488 233.801782 
L 125.029815 238.767459 
L 125.436141 236.60144 
L 125.842467 236.44212 
L 126.248793 234.479094 
L 126.655119 237.786325 
L 127.061445 242.209505 
L 127.467771 253.220988 
L 127.874097 258.402018 
L 128.280423 258.924114 
L 128.686749 252.245166 
L 129.093075 259.669695 
L 129.499402 258.58644 
L 129.905728 261.428062 
L 130.312054 261.127972 
L 130.71838 273.5859 
L 131.124706 260.013252 
L 131.531032 260.620633 
L 131.937358 268.647689 
L 132.343684 263.205921 
L 132.75001 253.319243 
L 133.156336 252.83263 
L 133.562662 272.690556 
L 133.968989 260.82949 
L 134.375315 262.904657 
L 134.781641 261.45938 
L 135.187967 268.290908 
L 135.594293 267.536043 
L 136.000619 259.857104 
L 136.406945 257.694743 
L 136.813271 266.613821 
L 137.219597 261.903826 
L 137.625923 263.399641 
L 138.032249 263.593578 
L 138.438575 254.370392 
L 138.844902 257.245532 
L 139.251228 261.934638 
L 139.657554 255.438238 
L 140.06388 256.117992 
L 140.470206 262.822353 
L 140.876532 259.244995 
L 141.282858 249.762278 
L 141.689184 269.08738 
L 142.09551 261.864728 
L 142.501836 253.948754 
L 142.908162 251.075973 
L 143.314489 253.644573 
L 143.720815 248.677915 
L 144.127141 250.566239 
L 144.533467 250.810858 
L 144.939793 252.494696 
L 145.346119 256.639721 
L 145.752445 256.56271 
L 146.158771 254.925638 
L 146.565097 254.145925 
L 146.971423 251.850977 
L 147.377749 259.487196 
L 147.784076 257.520828 
L 148.190402 248.011119 
L 148.596728 251.320446 
L 149.003054 256.506062 
L 149.40938 245.711996 
L 149.815706 257.074083 
L 150.222032 249.846069 
L 150.628358 248.253328 
L 151.034684 265.333415 
L 151.44101 253.928711 
L 151.847336 252.303657 
L 152.253663 254.109956 
L 152.659989 250.487469 
L 153.066315 255.854523 
L 153.472641 258.424874 
L 153.878967 247.875833 
L 154.285293 250.263752 
L 154.691619 259.749359 
L 155.097945 263.597734 
L 155.504271 253.856759 
L 155.910597 240.41306 
L 156.316923 245.005602 
L 156.72325 252.23913 
L 157.129576 254.031308 
L 157.535902 251.123762 
L 157.942228 249.900989 
L 158.348554 255.808656 
L 158.75488 249.459088 
L 159.161206 243.940787 
L 159.567532 246.966651 
L 159.973858 249.120289 
L 160.380184 251.571466 
L 160.78651 244.666635 
L 161.192837 249.493982 
L 161.599163 252.029516 
L 162.005489 257.263199 
L 162.411815 250.705121 
L 162.818141 260.490168 
L 163.224467 246.731301 
L 163.630793 250.904851 
L 164.037119 249.839233 
L 164.443445 258.691693 
L 164.849771 246.623256 
L 165.256097 245.964655 
L 165.662423 243.885763 
L 166.06875 249.671224 
L 166.475076 237.293468 
L 166.881402 245.893727 
L 167.287728 249.230847 
L 167.694054 243.605497 
L 168.10038 247.777242 
L 168.506706 258.9139 
L 168.913032 249.313538 
L 169.319358 248.14684 
L 169.725684 244.885446 
L 170.13201 252.007228 
L 170.538337 252.42931 
L 170.944663 247.252932 
L 171.350989 254.205024 
L 171.757315 245.216463 
L 172.163641 252.13075 
L 172.569967 245.356801 
L 172.976293 252.881588 
L 173.382619 253.70662 
L 173.788945 250.749685 
L 174.195271 250.539091 
L 174.601597 260.596326 
L 175.007924 263.394454 
L 175.41425 258.662329 
L 175.820576 254.054143 
L 176.226902 251.274404 
L 176.633228 250.298868 
L 177.039554 250.681303 
L 177.44588 253.026544 
L 177.852206 255.698348 
L 178.258532 256.422178 
L 178.664858 246.572064 
L 179.071184 250.860244 
L 179.477511 249.473658 
L 179.883837 249.74496 
L 180.290163 256.996647 
L 180.696489 255.337424 
L 181.102815 247.828685 
L 181.509141 257.779418 
L 181.915467 249.114197 
L 182.321793 256.510075 
L 182.728119 254.786854 
L 183.134445 248.092593 
L 183.540771 258.382343 
L 183.947098 261.766894 
L 184.353424 256.480493 
L 184.75975 257.758404 
L 185.166076 253.553872 
L 185.572402 258.87257 
L 185.978728 256.890549 
L 186.385054 253.037306 
L 186.79138 254.948914 
L 187.197706 260.457507 
L 187.604032 254.348042 
L 188.010358 258.225043 
L 188.416684 257.229572 
L 188.823011 262.735115 
L 189.229337 256.952176 
L 189.635663 257.016556 
L 190.041989 263.81704 
L 190.448315 259.957152 
L 190.854641 256.999546 
L 191.260967 265.720054 
L 191.667293 260.126946 
L 192.073619 256.547169 
L 192.479945 267.210011 
L 192.886271 259.144387 
L 193.292598 260.822052 
L 193.698924 261.662197 
L 194.10525 267.430546 
L 194.511576 259.280056 
L 194.917902 271.148365 
L 195.324228 267.759753 
L 195.730554 261.270596 
L 196.13688 262.95245 
L 196.543206 251.716655 
L 196.949532 259.19566 
L 197.355858 256.786753 
L 197.762185 261.058028 
L 198.168511 254.720103 
L 198.574837 261.446053 
L 198.981163 261.11126 
L 199.387489 263.412374 
L 199.793815 264.707744 
L 200.200141 263.87207 
L 200.606467 263.249128 
L 201.012793 252.918379 
L 201.419119 255.770486 
L 201.825445 257.325688 
L 202.231772 255.377207 
L 202.638098 254.488829 
L 203.044424 261.286549 
L 203.45075 256.98877 
L 203.857076 261.285869 
L 204.263402 256.267417 
L 204.669728 257.97128 
L 205.076054 262.266019 
L 205.48238 275.709515 
L 205.888706 265.731442 
L 206.295032 253.296952 
L 206.701359 259.648692 
L 207.107685 258.82181 
L 207.514011 257.73578 
L 207.920337 256.504941 
L 208.326663 264.857375 
L 208.732989 257.947009 
L 209.139315 258.326294 
L 209.545641 260.761516 
L 209.951967 263.777317 
L 210.358293 258.168453 
L 210.764619 260.676014 
L 211.170946 253.310037 
L 211.577272 257.712004 
L 211.983598 250.356389 
L 212.389924 261.477005 
L 212.79625 252.074857 
L 213.202576 263.362932 
L 213.608902 260.610517 
L 214.015228 259.942115 
L 214.421554 252.48181 
L 214.82788 251.877117 
L 215.234206 255.808359 
L 215.640532 248.100048 
L 216.046859 248.881187 
L 216.453185 251.770519 
L 216.859511 254.497877 
L 217.265837 251.007492 
L 217.672163 256.007002 
L 218.078489 258.673744 
L 218.484815 259.705487 
L 218.891141 259.019423 
L 219.297467 264.660003 
L 219.703793 249.15558 
L 220.110119 241.760848 
L 220.516446 252.691231 
L 220.922772 265.961792 
L 221.329098 254.009952 
L 221.735424 254.03727 
L 222.14175 253.922228 
L 222.548076 260.272672 
L 222.954402 251.704346 
L 223.360728 263.905938 
L 223.767054 254.267903 
L 224.17338 253.211516 
L 224.579706 258.737496 
L 224.986033 248.23243 
L 225.392359 250.731278 
L 225.798685 245.159968 
L 226.205011 230.80555 
L 226.611337 223.78316 
L 227.017663 250.63277 
L 227.423989 260.492005 
L 227.830315 256.503681 
L 228.236641 261.096077 
L 228.642967 268.830301 
L 229.049293 260.566788 
L 229.45562 253.287719 
L 229.861946 251.930663 
L 230.268272 245.163283 
L 230.674598 266.574357 
L 231.080924 254.218888 
L 231.48725 254.637414 
L 231.893576 253.891105 
L 232.299902 256.858997 
L 232.706228 254.049719 
L 233.112554 250.404007 
L 233.51888 254.960961 
L 233.925207 260.698882 
L 234.331533 255.766873 
L 234.737859 258.244143 
L 235.144185 257.185458 
L 235.550511 266.73367 
L 235.956837 261.692267 
L 236.363163 260.903992 
L 236.769489 262.025368 
L 237.175815 258.936098 
L 237.582141 252.163895 
L 237.988467 253.5987 
L 238.394793 247.14305 
L 238.80112 252.708788 
L 239.207446 253.592169 
L 239.613772 247.403312 
L 240.020098 248.395234 
L 240.426424 255.843731 
L 240.83275 251.351837 
L 241.239076 250.783956 
L 241.645402 251.969327 
L 242.051728 263.180399 
L 242.458054 261.491742 
L 242.86438 254.256624 
L 243.270707 251.447814 
L 243.677033 262.854972 
L 244.083359 260.006415 
L 244.489685 253.97358 
L 244.896011 248.2199 
L 245.302337 262.559927 
L 245.708663 261.031558 
L 246.114989 253.783352 
L 246.521315 252.273754 
L 246.927641 249.976349 
L 247.333967 257.035909 
L 247.740294 257.559986 
L 248.14662 259.683472 
L 248.552946 252.337796 
L 248.959272 255.359581 
L 249.365598 253.12023 
L 249.771924 251.153434 
L 250.17825 255.684029 
L 250.584576 263.854493 
L 250.990902 252.265007 
L 251.397228 257.630866 
L 251.803554 252.215187 
L 252.209881 256.76656 
L 252.616207 260.053035 
L 253.022533 258.217321 
L 253.428859 258.141657 
L 253.835185 246.594054 
L 254.241511 260.031148 
L 254.647837 260.867519 
L 255.054163 262.048782 
L 255.460489 266.969928 
L 255.866815 256.426415 
L 256.273141 255.709271 
L 256.679468 260.612463 
L 257.085794 259.57355 
L 257.49212 268.377406 
L 257.898446 254.589999 
L 258.304772 258.379888 
L 258.711098 260.569759 
L 259.117424 258.799011 
L 259.52375 257.6088 
L 259.930076 258.921523 
L 260.336402 250.870176 
L 260.742728 252.126522 
L 261.149054 250.278328 
L 261.555381 239.313123 
L 261.961707 252.470579 
L 262.368033 258.693814 
L 262.774359 261.101745 
L 263.180685 256.667887 
L 263.587011 246.396961 
L 263.993337 259.0227 
L 264.399663 255.519197 
L 264.805989 258.816976 
L 265.212315 255.674933 
L 265.618641 257.699334 
L 266.024968 257.200851 
L 266.431294 256.437754 
L 266.83762 261.28396 
L 267.243946 254.726523 
L 267.650272 249.77045 
L 268.056598 250.329859 
L 268.462924 253.064362 
L 268.86925 256.046396 
L 269.275576 254.227385 
L 269.681902 231.039603 
L 270.088228 204.33481 
L 270.494555 223.496389 
L 270.900881 244.883263 
L 271.307207 240.582388 
L 271.713533 259.327263 
L 272.119859 263.593993 
L 272.526185 262.47047 
L 272.932511 256.33697 
L 273.338837 270.692333 
L 273.745163 257.041142 
L 274.151489 267.184771 
L 274.557815 258.084023 
L 274.964142 254.892802 
L 275.370468 259.886755 
L 275.776794 255.062011 
L 276.18312 254.611519 
L 276.589446 256.894246 
L 276.995772 249.630394 
L 277.402098 262.740772 
L 277.808424 254.518138 
L 278.21475 262.522967 
L 278.621076 268.378383 
L 279.027402 256.21435 
L 279.433729 256.359876 
L 279.840055 271.372853 
L 280.246381 263.448475 
L 280.652707 258.097198 
L 281.059033 260.859652 
L 281.465359 258.734863 
L 281.871685 263.668238 
L 282.278011 262.371781 
L 282.684337 254.251556 
L 283.090663 263.380047 
L 283.496989 257.398699 
L 283.903316 261.854945 
L 284.309642 259.386385 
L 284.715968 262.477565 
L 285.122294 260.22039 
L 285.52862 263.912692 
L 285.934946 260.981123 
L 286.341272 266.61409 
L 286.747598 264.65778 
L 287.153924 256.300999 
L 287.56025 259.89525 
L 287.966576 256.522687 
L 288.372902 262.889622 
L 288.779229 261.094642 
L 289.185555 266.651035 
L 289.591881 261.203105 
L 289.998207 261.286252 
L 290.404533 261.288839 
L 290.810859 263.990088 
L 291.217185 257.232956 
L 291.623511 259.715807 
L 292.029837 253.058565 
L 292.436163 256.150911 
L 292.842489 268.399846 
L 293.248816 260.982488 
L 293.655142 257.038087 
L 294.061468 255.171517 
L 294.467794 256.504303 
L 294.87412 254.618564 
L 295.280446 264.464571 
L 295.686772 256.472057 
L 296.093098 261.206985 
L 296.499424 259.599822 
L 296.90575 261.417595 
L 297.312076 252.735556 
L 297.718403 259.081536 
L 298.124729 253.746925 
L 298.531055 259.131158 
L 298.937381 258.807522 
L 299.343707 259.329726 
L 299.750033 261.584611 
L 300.156359 253.543677 
L 300.562685 254.086573 
L 300.969011 255.602884 
L 301.375337 263.370571 
L 301.781663 260.602465 
L 302.18799 252.061411 
L 302.594316 265.009439 
L 303.000642 259.972323 
L 303.406968 252.050635 
L 303.813294 260.044049 
L 304.21962 259.283086 
L 304.625946 258.974729 
L 305.032272 256.013692 
L 305.438598 261.463806 
L 305.844924 260.002359 
L 306.25125 267.76323 
L 306.657577 266.89979 
L 307.063903 261.212829 
L 307.470229 263.86786 
L 307.876555 263.019565 
L 308.282881 254.789893 
L 308.689207 261.770865 
L 309.095533 262.216199 
L 309.501859 259.548012 
L 309.908185 261.667155 
L 310.314511 263.634509 
L 310.720837 263.051252 
L 311.127163 264.056036 
L 311.53349 269.569111 
L 311.939816 251.797499 
L 312.346142 262.505047 
L 312.752468 259.604053 
L 313.158794 262.506179 
L 313.56512 255.840038 
L 313.971446 254.463878 
L 314.377772 260.351162 
L 314.784098 258.607618 
L 315.190424 255.232198 
L 315.59675 269.225301 
L 316.003077 266.44817 
L 316.409403 266.222433 
L 316.815729 269.680502 
L 317.222055 264.012524 
L 317.628381 264.349627 
L 318.034707 270.259889 
L 318.441033 261.749828 
L 318.847359 270.676032 
L 319.253685 271.953552 
L 319.660011 269.152676 
L 320.066337 269.587079 
L 320.472664 275.338021 
L 320.87899 263.309396 
L 321.285316 272.155294 
L 321.691642 268.239572 
L 322.097968 263.547998 
L 322.504294 270.043395 
L 322.91062 264.489844 
L 323.316946 266.352945 
L 323.723272 276.706756 
L 324.129598 259.767358 
L 324.535924 274.016057 
L 324.942251 260.690579 
L 325.348577 267.482509 
L 325.754903 267.498933 
L 326.161229 249.960196 
L 326.567555 223.574003 
L 326.973881 215.642049 
L 327.380207 243.46614 
L 327.786533 218.950401 
L 328.192859 207.110256 
L 328.599185 214.870027 
L 329.005511 244.439611 
L 329.411838 249.043191 
L 329.818164 239.335415 
L 330.22449 252.281251 
L 330.630816 227.365164 
L 331.037142 250.216029 
L 331.443468 253.815397 
L 331.849794 223.685606 
L 332.25612 220.911931 
L 332.662446 236.867489 
L 333.068772 228.085861 
L 333.475098 234.41178 
L 333.881425 248.209973 
L 334.287751 246.479246 
L 334.694077 255.899753 
L 335.100403 214.617691 
L 335.506729 236.506967 
L 335.913055 237.868979 
L 336.319381 251.47623 
L 336.725707 252.020248 
L 337.132033 225.741431 
L 337.538359 225.538754 
L 337.944685 250.62244 
L 338.351011 254.559485 
L 338.757338 246.041187 
L 339.163664 243.67518 
L 339.56999 248.398932 
L 339.976316 246.723519 
L 340.382642 255.624723 
L 340.788968 245.288061 
L 341.195294 255.777328 
L 341.60162 265.570095 
L 342.007946 252.806183 
L 342.414272 248.894641 
L 342.820598 244.615825 
L 343.226925 254.786036 
L 343.633251 251.45658 
L 344.039577 250.232054 
L 344.445903 247.848232 
L 344.852229 252.959077 
L 345.258555 253.654395 
L 345.664881 252.41025 
L 346.071207 248.520101 
L 346.477533 253.731319 
L 346.883859 253.12923 
L 347.290185 254.832416 
L 347.696512 256.367758 
L 348.102838 258.095882 
L 348.509164 250.966759 
L 348.91549 256.509823 
L 349.321816 260.2581 
L 349.728142 259.079501 
L 350.134468 256.507848 
L 350.540794 265.505705 
L 350.94712 259.395214 
L 351.353446 255.452425 
L 351.759772 252.006494 
L 352.166099 223.271866 
L 352.572425 238.584408 
L 352.978751 244.755191 
L 353.385077 229.890207 
L 353.791403 228.67207 
L 354.197729 241.070085 
L 354.604055 244.408795 
L 355.010381 250.756217 
L 355.416707 251.304145 
L 355.823033 268.410157 
L 356.229359 259.924531 
L 356.635686 267.923087 
L 357.042012 259.999202 
L 357.448338 255.001699 
L 357.854664 250.703116 
L 358.26099 254.340039 
L 358.667316 251.106481 
L 359.073642 252.347191 
L 359.479968 246.745106 
L 359.886294 251.175611 
L 360.29262 258.671829 
L 360.698946 250.856 
L 361.105272 252.031655 
L 361.511599 254.472696 
L 361.917925 248.196998 
L 362.324251 258.934848 
L 362.730577 243.791117 
L 363.136903 260.226484 
L 363.543229 243.806899 
L 363.949555 226.732463 
L 364.355881 241.383123 
L 364.762207 243.108833 
L 365.168533 243.798933 
L 365.574859 257.951866 
L 365.981186 249.854861 
L 366.387512 247.363368 
L 366.793838 241.490076 
L 367.200164 239.236871 
L 367.60649 236.466071 
L 368.012816 235.372311 
L 368.419142 236.037181 
L 368.825468 233.806105 
L 369.231794 235.161868 
L 369.63812 236.374511 
L 370.044446 237.525964 
L 370.450773 237.079793 
L 370.857099 235.926574 
L 371.263425 231.219657 
L 371.669751 228.24685 
L 372.076077 228.378295 
L 372.482403 226.756094 
L 372.888729 226.565554 
L 373.295055 225.702013 
L 373.701381 222.917581 
L 374.107707 226.085764 
L 374.514033 227.2267 
L 374.92036 227.712892 
L 375.326686 228.777381 
L 375.733012 226.198895 
L 376.139338 227.831059 
L 376.545664 231.741762 
L 376.95199 220.196716 
L 377.358316 226.417092 
L 377.764642 225.580873 
L 378.170968 229.193723 
L 378.577294 221.501104 
L 378.98362 224.505224 
L 379.389947 231.328804 
L 379.796273 229.396977 
L 380.202599 233.562547 
L 380.608925 226.638261 
L 381.015251 231.13449 
L 381.421577 229.752038 
L 381.827903 223.949568 
L 382.234229 230.564495 
L 382.640555 229.721664 
L 383.046881 230.67398 
L 383.453207 233.488744 
L 383.859534 225.50366 
L 384.26586 222.889734 
L 384.672186 227.315686 
L 385.078512 228.600769 
L 385.484838 230.318213 
L 385.891164 227.484082 
L 386.29749 232.237915 
L 386.703816 229.939344 
L 387.110142 230.817345 
L 387.516468 227.426022 
L 387.922794 226.38076 
L 388.32912 229.581185 
L 388.735447 227.455562 
L 389.141773 229.571006 
L 389.548099 231.651465 
L 389.954425 230.260081 
L 390.360751 229.892066 
L 390.767077 226.651405 
L 391.173403 226.059455 
L 391.579729 231.386023 
L 391.986055 228.644825 
L 392.392381 226.862077 
L 392.798707 230.264394 
L 393.205034 227.778188 
L 393.61136 229.081565 
L 394.017686 229.169006 
L 394.424012 229.594237 
L 394.830338 229.526157 
L 395.236664 232.707506 
L 395.64299 236.454806 
L 396.049316 224.411339 
L 396.455642 228.605543 
L 396.861968 224.776361 
L 397.268294 227.182259 
L 397.674621 227.190095 
L 398.080947 229.045461 
L 398.487273 226.620878 
L 398.487273 202.611054 
L 398.487273 202.611054 
L 398.080947 207.975415 
L 397.674621 203.970035 
L 397.268294 205.345491 
L 396.861968 203.863317 
L 396.455642 205.415706 
L 396.049316 203.782396 
L 395.64299 206.034935 
L 395.236664 210.209577 
L 394.830338 206.91361 
L 394.424012 208.305831 
L 394.017686 204.482681 
L 393.61136 205.541293 
L 393.205034 206.085753 
L 392.798707 202.639277 
L 392.392381 205.074714 
L 391.986055 206.228728 
L 391.579729 204.319676 
L 391.173403 206.648662 
L 390.767077 205.092625 
L 390.360751 203.932952 
L 389.954425 201.919454 
L 389.548099 206.771818 
L 389.141773 200.840147 
L 388.735447 204.096431 
L 388.32912 206.535716 
L 387.922794 201.803664 
L 387.516468 203.691534 
L 387.110142 204.152024 
L 386.703816 202.61783 
L 386.29749 204.854776 
L 385.891164 203.85051 
L 385.484838 203.641583 
L 385.078512 206.683954 
L 384.672186 202.524684 
L 384.26586 203.591484 
L 383.859534 203.720648 
L 383.453207 205.736639 
L 383.046881 205.374215 
L 382.640555 207.038908 
L 382.234229 207.586161 
L 381.827903 205.163634 
L 381.421577 205.640662 
L 381.015251 206.315357 
L 380.608925 205.176012 
L 380.202599 206.375619 
L 379.796273 206.809697 
L 379.389947 205.635783 
L 378.98362 204.785793 
L 378.577294 204.592158 
L 378.170968 204.855863 
L 377.764642 202.343391 
L 377.358316 204.297589 
L 376.95199 201.038312 
L 376.545664 203.502754 
L 376.139338 207.486206 
L 375.733012 205.592872 
L 375.326686 206.727578 
L 374.92036 202.640538 
L 374.514033 204.087732 
L 374.107707 203.947329 
L 373.701381 202.062796 
L 373.295055 204.721972 
L 372.888729 204.839997 
L 372.482403 203.45519 
L 372.076077 202.908713 
L 371.669751 208.946079 
L 371.263425 212.702316 
L 370.857099 213.146532 
L 370.450773 214.173403 
L 370.044446 210.478742 
L 369.63812 212.367654 
L 369.231794 210.014237 
L 368.825468 213.750103 
L 368.419142 214.791925 
L 368.012816 209.787778 
L 367.60649 211.028394 
L 367.200164 211.865002 
L 366.793838 222.315773 
L 366.387512 224.67379 
L 365.981186 214.21727 
L 365.574859 226.477347 
L 365.168533 228.500074 
L 364.762207 223.217178 
L 364.355881 220.693926 
L 363.949555 161.211496 
L 363.543229 208.3942 
L 363.136903 196.246671 
L 362.730577 204.797284 
L 362.324251 215.573865 
L 361.917925 209.695039 
L 361.511599 217.068629 
L 361.105272 222.485325 
L 360.698946 219.712023 
L 360.29262 206.398503 
L 359.886294 221.140097 
L 359.479968 219.459727 
L 359.073642 214.350988 
L 358.667316 221.307616 
L 358.26099 219.819964 
L 357.854664 209.206571 
L 357.448338 219.397535 
L 357.042012 217.266412 
L 356.635686 221.057557 
L 356.229359 225.61229 
L 355.823033 226.389007 
L 355.416707 221.544491 
L 355.010381 223.226103 
L 354.604055 219.577838 
L 354.197729 213.622098 
L 353.791403 208.988115 
L 353.385077 207.145356 
L 352.978751 206.545654 
L 352.572425 196.52528 
L 352.166099 176.274619 
L 351.759772 213.992956 
L 351.353446 216.404597 
L 350.94712 220.130718 
L 350.540794 224.051611 
L 350.134468 212.571627 
L 349.728142 218.359272 
L 349.321816 219.335369 
L 348.91549 226.403491 
L 348.509164 221.967326 
L 348.102838 223.70855 
L 347.696512 219.253266 
L 347.290185 225.765225 
L 346.883859 225.161929 
L 346.477533 218.234296 
L 346.071207 220.216904 
L 345.664881 218.014798 
L 345.258555 214.712817 
L 344.852229 215.468836 
L 344.445903 216.896261 
L 344.039577 216.308848 
L 343.633251 222.964319 
L 343.226925 211.079735 
L 342.820598 211.222611 
L 342.414272 215.122423 
L 342.007946 224.341834 
L 341.60162 208.058671 
L 341.195294 216.28362 
L 340.788968 195.762037 
L 340.382642 202.699648 
L 339.976316 205.245544 
L 339.56999 206.948368 
L 339.163664 199.246474 
L 338.757338 213.785004 
L 338.351011 200.095621 
L 337.944685 195.718217 
L 337.538359 183.308672 
L 337.132033 184.653257 
L 336.725707 204.139871 
L 336.319381 205.611944 
L 335.913055 207.464193 
L 335.506729 195.962497 
L 335.100403 185.977057 
L 334.694077 211.259567 
L 334.287751 214.680996 
L 333.881425 197.099144 
L 333.475098 195.046292 
L 333.068772 192.866111 
L 332.662446 189.517977 
L 332.25612 179.113203 
L 331.849794 156.907099 
L 331.443468 177.792365 
L 331.037142 200.422864 
L 330.630816 185.395497 
L 330.22449 184.032259 
L 329.818164 204.196421 
L 329.411838 213.842813 
L 329.005511 208.592794 
L 328.599185 184.716033 
L 328.192859 181.580711 
L 327.786533 187.722019 
L 327.380207 203.99305 
L 326.973881 167.359383 
L 326.567555 178.266482 
L 326.161229 213.49982 
L 325.754903 211.199917 
L 325.348577 218.879035 
L 324.942251 229.301584 
L 324.535924 221.897111 
L 324.129598 223.800528 
L 323.723272 222.441343 
L 323.316946 227.691413 
L 322.91062 224.466873 
L 322.504294 225.037569 
L 322.097968 218.271078 
L 321.691642 221.457545 
L 321.285316 221.217132 
L 320.87899 226.769489 
L 320.472664 221.525613 
L 320.066337 225.596786 
L 319.660011 222.820905 
L 319.253685 229.480875 
L 318.847359 226.545399 
L 318.441033 227.684746 
L 318.034707 226.205293 
L 317.628381 227.323587 
L 317.222055 227.269854 
L 316.815729 229.928361 
L 316.409403 224.817717 
L 316.003077 229.095565 
L 315.59675 223.618512 
L 315.190424 219.206715 
L 314.784098 226.137306 
L 314.377772 226.103966 
L 313.971446 222.536586 
L 313.56512 225.753476 
L 313.158794 216.302053 
L 312.752468 218.151182 
L 312.346142 229.202237 
L 311.939816 215.154775 
L 311.53349 223.738123 
L 311.127163 233.481984 
L 310.720837 227.716135 
L 310.314511 224.799653 
L 309.908185 226.052441 
L 309.501859 225.502989 
L 309.095533 226.168019 
L 308.689207 222.632436 
L 308.282881 226.096598 
L 307.876555 225.064809 
L 307.470229 227.882651 
L 307.063903 225.700548 
L 306.657577 225.877801 
L 306.25125 227.003218 
L 305.844924 233.638681 
L 305.438598 227.097783 
L 305.032272 225.053785 
L 304.625946 224.258952 
L 304.21962 225.512364 
L 303.813294 225.481665 
L 303.406968 223.7403 
L 303.000642 226.521283 
L 302.594316 224.154815 
L 302.18799 224.916607 
L 301.781663 218.711761 
L 301.375337 223.930323 
L 300.969011 223.216977 
L 300.562685 226.455349 
L 300.156359 223.311464 
L 299.750033 227.188555 
L 299.343707 225.584313 
L 298.937381 226.509569 
L 298.531055 218.378534 
L 298.124729 215.549708 
L 297.718403 223.824098 
L 297.312076 221.333972 
L 296.90575 224.610507 
L 296.499424 221.530387 
L 296.093098 228.710228 
L 295.686772 225.191593 
L 295.280446 223.298968 
L 294.87412 221.243528 
L 294.467794 220.307858 
L 294.061468 214.593993 
L 293.655142 221.020673 
L 293.248816 222.909426 
L 292.842489 226.602358 
L 292.436163 224.627938 
L 292.029837 217.0781 
L 291.623511 220.957001 
L 291.217185 222.07844 
L 290.810859 226.70486 
L 290.404533 220.820859 
L 289.998207 221.141549 
L 289.591881 221.92786 
L 289.185555 225.183344 
L 288.779229 223.997722 
L 288.372902 225.414907 
L 287.966576 220.905005 
L 287.56025 230.234934 
L 287.153924 227.740818 
L 286.747598 224.068688 
L 286.341272 225.408058 
L 285.934946 224.086486 
L 285.52862 223.550865 
L 285.122294 231.769308 
L 284.715968 226.854468 
L 284.309642 223.736754 
L 283.903316 221.259529 
L 283.496989 222.723953 
L 283.090663 220.585494 
L 282.684337 228.123941 
L 282.278011 229.124765 
L 281.871685 223.258456 
L 281.465359 223.511647 
L 281.059033 217.685664 
L 280.652707 223.688174 
L 280.246381 223.051879 
L 279.840055 226.170227 
L 279.433729 220.456486 
L 279.027402 220.441616 
L 278.621076 220.526734 
L 278.21475 227.218939 
L 277.808424 222.254012 
L 277.402098 226.01538 
L 276.995772 219.904611 
L 276.589446 227.606953 
L 276.18312 220.320498 
L 275.776794 224.527346 
L 275.370468 222.846741 
L 274.964142 226.327501 
L 274.557815 222.115288 
L 274.151489 225.523858 
L 273.745163 224.502549 
L 273.338837 225.246029 
L 272.932511 225.461499 
L 272.526185 229.607303 
L 272.119859 230.475416 
L 271.713533 228.288124 
L 271.307207 219.357193 
L 270.900881 220.979316 
L 270.494555 199.896058 
L 270.088228 191.219174 
L 269.681902 200.633129 
L 269.275576 225.195066 
L 268.86925 221.134353 
L 268.462924 225.563003 
L 268.056598 221.589445 
L 267.650272 221.376627 
L 267.243946 215.30751 
L 266.83762 225.832904 
L 266.431294 225.31738 
L 266.024968 225.236122 
L 265.618641 221.591012 
L 265.212315 222.288309 
L 264.805989 224.733714 
L 264.399663 218.835295 
L 263.993337 219.950927 
L 263.587011 221.149376 
L 263.180685 223.628001 
L 262.774359 222.977508 
L 262.368033 223.412132 
L 261.961707 223.560779 
L 261.555381 211.782623 
L 261.149054 220.501855 
L 260.742728 220.400061 
L 260.336402 224.591026 
L 259.930076 224.863138 
L 259.52375 221.243756 
L 259.117424 217.687349 
L 258.711098 224.512773 
L 258.304772 224.441196 
L 257.898446 221.299018 
L 257.49212 222.93942 
L 257.085794 227.914531 
L 256.679468 223.221313 
L 256.273141 218.866504 
L 255.866815 225.617236 
L 255.460489 222.908142 
L 255.054163 228.950724 
L 254.647837 224.944714 
L 254.241511 224.615044 
L 253.835185 215.455573 
L 253.428859 223.310181 
L 253.022533 222.745106 
L 252.616207 223.518085 
L 252.209881 226.883701 
L 251.803554 205.86359 
L 251.397228 220.46785 
L 250.990902 222.72004 
L 250.584576 222.512879 
L 250.17825 222.030304 
L 249.771924 224.155802 
L 249.365598 220.760274 
L 248.959272 224.63493 
L 248.552946 223.932349 
L 248.14662 225.383508 
L 247.740294 227.969384 
L 247.333967 224.817253 
L 246.927641 217.301989 
L 246.521315 226.435998 
L 246.114989 222.894466 
L 245.708663 218.510216 
L 245.302337 206.902078 
L 244.896011 209.025333 
L 244.489685 219.901067 
L 244.083359 220.814908 
L 243.677033 220.671346 
L 243.270707 221.279792 
L 242.86438 219.381613 
L 242.458054 223.928007 
L 242.051728 223.87259 
L 241.645402 216.199065 
L 241.239076 221.644528 
L 240.83275 218.272911 
L 240.426424 216.104392 
L 240.020098 215.593307 
L 239.613772 217.254772 
L 239.207446 219.112047 
L 238.80112 217.854871 
L 238.394793 219.088819 
L 237.988467 215.914052 
L 237.582141 218.248464 
L 237.175815 223.056341 
L 236.769489 223.191525 
L 236.363163 224.100473 
L 235.956837 223.147262 
L 235.550511 222.778862 
L 235.144185 221.668738 
L 234.737859 222.588369 
L 234.331533 221.498062 
L 233.925207 220.28374 
L 233.51888 223.419598 
L 233.112554 225.185394 
L 232.706228 216.710095 
L 232.299902 222.749477 
L 231.893576 220.001441 
L 231.48725 219.607635 
L 231.080924 222.727199 
L 230.674598 221.686765 
L 230.268272 219.326138 
L 229.861946 218.087724 
L 229.45562 227.374148 
L 229.049293 224.672943 
L 228.642967 222.845978 
L 228.236641 222.766787 
L 227.830315 223.788239 
L 227.423989 229.499947 
L 227.017663 222.756592 
L 226.611337 203.171566 
L 226.205011 206.704652 
L 225.798685 218.735596 
L 225.392359 220.30296 
L 224.986033 220.632316 
L 224.579706 222.332543 
L 224.17338 222.224 
L 223.767054 219.729957 
L 223.360728 224.28596 
L 222.954402 220.671574 
L 222.548076 221.510759 
L 222.14175 224.39103 
L 221.735424 224.817375 
L 221.329098 220.563753 
L 220.922772 221.628086 
L 220.516446 219.776303 
L 220.110119 215.137382 
L 219.703793 216.570302 
L 219.297467 218.762036 
L 218.891141 219.776594 
L 218.484815 221.595245 
L 218.078489 224.376068 
L 217.672163 223.339074 
L 217.265837 224.826382 
L 216.859511 221.608945 
L 216.453185 218.311324 
L 216.046859 219.336442 
L 215.640532 212.599256 
L 215.234206 216.081408 
L 214.82788 221.110032 
L 214.421554 220.65616 
L 214.015228 218.913416 
L 213.608902 217.237741 
L 213.202576 222.286301 
L 212.79625 222.019704 
L 212.389924 218.749235 
L 211.983598 220.282586 
L 211.577272 218.409268 
L 211.170946 220.076882 
L 210.764619 226.724351 
L 210.358293 221.593787 
L 209.951967 222.789215 
L 209.545641 220.310571 
L 209.139315 226.051523 
L 208.732989 225.541821 
L 208.326663 224.636954 
L 207.920337 223.772723 
L 207.514011 225.709958 
L 207.107685 224.008697 
L 206.701359 222.928052 
L 206.295032 225.861652 
L 205.888706 225.85669 
L 205.48238 220.636011 
L 205.076054 222.106722 
L 204.669728 222.707855 
L 204.263402 224.158454 
L 203.857076 224.947337 
L 203.45075 223.650832 
L 203.044424 221.44998 
L 202.638098 222.20461 
L 202.231772 223.317161 
L 201.825445 222.825871 
L 201.419119 224.425337 
L 201.012793 222.801216 
L 200.606467 220.541537 
L 200.200141 222.322466 
L 199.793815 225.625069 
L 199.387489 224.024304 
L 198.981163 219.006153 
L 198.574837 227.082295 
L 198.168511 216.291418 
L 197.762185 224.234073 
L 197.355858 222.894967 
L 196.949532 216.986416 
L 196.543206 222.43666 
L 196.13688 222.293913 
L 195.730554 219.926974 
L 195.324228 228.069141 
L 194.917902 227.031088 
L 194.511576 221.90184 
L 194.10525 224.420317 
L 193.698924 226.55164 
L 193.292598 224.447431 
L 192.886271 216.398985 
L 192.479945 219.34516 
L 192.073619 222.765436 
L 191.667293 226.415233 
L 191.260967 227.64915 
L 190.854641 220.905091 
L 190.448315 225.471771 
L 190.041989 225.460467 
L 189.635663 223.083452 
L 189.229337 224.638558 
L 188.823011 224.895128 
L 188.416684 222.27843 
L 188.010358 220.573664 
L 187.604032 220.507452 
L 187.197706 222.896191 
L 186.79138 219.149742 
L 186.385054 219.833471 
L 185.978728 220.239203 
L 185.572402 225.24869 
L 185.166076 229.203391 
L 184.75975 224.126254 
L 184.353424 220.840549 
L 183.947098 226.913439 
L 183.540771 225.334214 
L 183.134445 220.941215 
L 182.728119 219.525154 
L 182.321793 218.906926 
L 181.915467 220.576235 
L 181.509141 220.584892 
L 181.102815 220.595846 
L 180.696489 223.297729 
L 180.290163 219.894362 
L 179.883837 218.133866 
L 179.477511 218.187072 
L 179.071184 216.809468 
L 178.664858 220.267369 
L 178.258532 220.239622 
L 177.852206 221.899907 
L 177.44588 222.804744 
L 177.039554 222.544431 
L 176.633228 216.620084 
L 176.226902 218.530292 
L 175.820576 224.686704 
L 175.41425 221.971677 
L 175.007924 218.928654 
L 174.601597 219.512928 
L 174.195271 223.879171 
L 173.788945 222.026312 
L 173.382619 216.641921 
L 172.976293 221.540126 
L 172.569967 217.14626 
L 172.163641 220.110306 
L 171.757315 222.915892 
L 171.350989 220.452407 
L 170.944663 215.584205 
L 170.538337 218.72608 
L 170.13201 222.749186 
L 169.725684 218.411391 
L 169.319358 214.786718 
L 168.913032 218.081737 
L 168.506706 215.858375 
L 168.10038 218.61343 
L 167.694054 212.351884 
L 167.287728 218.458557 
L 166.881402 218.708255 
L 166.475076 211.956328 
L 166.06875 210.861354 
L 165.662423 215.578145 
L 165.256097 213.848192 
L 164.849771 217.143911 
L 164.443445 215.487751 
L 164.037119 218.446363 
L 163.630793 218.719095 
L 163.224467 218.533121 
L 162.818141 216.675158 
L 162.411815 218.265515 
L 162.005489 216.703005 
L 161.599163 216.795064 
L 161.192837 214.459059 
L 160.78651 214.489766 
L 160.380184 219.120507 
L 159.973858 214.2364 
L 159.567532 215.771544 
L 159.161206 217.924656 
L 158.75488 217.495231 
L 158.348554 213.336664 
L 157.942228 217.764158 
L 157.535902 216.605943 
L 157.129576 219.124636 
L 156.72325 220.973445 
L 156.316923 212.69232 
L 155.910597 212.246024 
L 155.504271 219.23351 
L 155.097945 221.843783 
L 154.691619 217.12599 
L 154.285293 215.622186 
L 153.878967 218.189379 
L 153.472641 218.846484 
L 153.066315 223.695502 
L 152.659989 218.385757 
L 152.253663 218.458957 
L 151.847336 216.960733 
L 151.44101 215.731422 
L 151.034684 214.240936 
L 150.628358 216.865491 
L 150.222032 215.723227 
L 149.815706 216.859248 
L 149.40938 219.019491 
L 149.003054 217.981342 
L 148.596728 214.178904 
L 148.190402 217.490187 
L 147.784076 219.191236 
L 147.377749 220.541615 
L 146.971423 220.892958 
L 146.565097 216.546203 
L 146.158771 217.748318 
L 145.752445 213.53645 
L 145.346119 216.726574 
L 144.939793 223.668841 
L 144.533467 214.818749 
L 144.127141 220.99335 
L 143.720815 219.022694 
L 143.314489 220.712184 
L 142.908162 216.05946 
L 142.501836 219.625205 
L 142.09551 218.284307 
L 141.689184 216.084971 
L 141.282858 221.901035 
L 140.876532 223.01447 
L 140.470206 223.534698 
L 140.06388 222.373554 
L 139.657554 224.222134 
L 139.251228 223.958064 
L 138.844902 225.478595 
L 138.438575 221.661085 
L 138.032249 224.827529 
L 137.625923 227.227473 
L 137.219597 225.852272 
L 136.813271 227.063442 
L 136.406945 222.666383 
L 136.000619 229.714163 
L 135.594293 226.62795 
L 135.187967 222.751373 
L 134.781641 227.583853 
L 134.375315 228.218725 
L 133.968989 225.295028 
L 133.562662 227.991669 
L 133.156336 225.154466 
L 132.75001 224.804409 
L 132.343684 227.727865 
L 131.937358 226.065043 
L 131.531032 224.84137 
L 131.124706 226.787187 
L 130.71838 226.351867 
L 130.312054 222.882548 
L 129.905728 223.907919 
L 129.499402 224.386725 
L 129.093075 220.926185 
L 128.686749 220.593668 
L 128.280423 226.747507 
L 127.874097 226.201158 
L 127.467771 215.524467 
L 127.061445 211.817445 
L 126.655119 211.092926 
L 126.248793 211.418785 
L 125.842467 206.538905 
L 125.436141 209.38953 
L 125.029815 207.045951 
L 124.623488 209.57953 
L 124.217162 208.912613 
L 123.810836 204.867285 
L 123.40451 207.40024 
L 122.998184 204.826345 
L 122.591858 204.34424 
L 122.185532 204.408313 
L 121.779206 204.827454 
L 121.37288 205.816314 
L 120.966554 201.870587 
L 120.560228 201.462417 
L 120.153901 200.816126 
L 119.747575 200.468616 
L 119.341249 202.534104 
L 118.934923 201.301463 
L 118.528597 206.070068 
L 118.122271 202.689946 
L 117.715945 200.953354 
L 117.309619 204.30804 
L 116.903293 201.831883 
L 116.496967 200.735197 
L 116.090641 200.427494 
L 115.684314 197.876492 
L 115.277988 201.060346 
L 114.871662 193.079543 
L 114.465336 198.684402 
L 114.05901 196.947602 
L 113.652684 197.167293 
L 113.246358 196.96055 
L 112.840032 194.262181 
L 112.433706 198.222258 
L 112.02738 197.442486 
L 111.621054 196.561459 
L 111.214728 196.423611 
L 110.808401 194.959856 
L 110.402075 196.444823 
L 109.995749 191.033617 
L 109.589423 195.679258 
L 109.183097 193.973181 
L 108.776771 194.401031 
L 108.370445 192.176964 
L 107.964119 195.921738 
L 107.557793 191.761386 
L 107.151467 194.64014 
L 106.745141 192.898779 
L 106.338814 192.340367 
L 105.932488 194.924634 
L 105.526162 190.32545 
L 105.119836 190.46051 
L 104.71351 188.382645 
L 104.307184 191.249434 
L 103.900858 188.540206 
L 103.494532 187.830323 
L 103.088206 191.227398 
L 102.68188 187.469176 
L 102.275554 187.828084 
L 101.869227 188.778465 
L 101.462901 191.963393 
L 101.056575 189.996031 
L 100.650249 186.345773 
L 100.243923 185.794555 
L 99.837597 188.229924 
L 99.431271 187.050431 
L 99.024945 188.407972 
L 98.618619 184.867158 
L 98.212293 183.999928 
L 97.805967 182.621761 
L 97.39964 185.099831 
L 96.993314 184.104899 
L 96.586988 182.862436 
L 96.180662 183.615713 
L 95.774336 181.94944 
L 95.36801 180.532976 
L 94.961684 178.573484 
L 94.555358 180.049062 
L 94.149032 176.835616 
L 93.742706 178.841365 
L 93.33638 179.429631 
L 92.930053 177.819703 
L 92.523727 174.596227 
L 92.117401 173.689427 
L 91.711075 169.462225 
L 91.304749 169.539793 
L 90.898423 163.393139 
L 90.492097 163.346861 
L 90.085771 155.437271 
L 89.679445 149.51448 
L 89.273119 130.164925 
L 88.866793 112.708798 
L 88.460466 91.963752 
L 88.05414 92.27514 
L 87.647814 98.522191 
L 87.241488 67.662235 
L 86.835162 53.568 
L 86.428836 59.270722 
L 86.02251 83.357848 
L 85.616184 97.40358 
L 85.209858 105.994361 
L 84.803532 107.285314 
L 84.397206 118.83798 
L 83.99088 130.279029 
L 83.584553 133.62931 
L 83.178227 140.545829 
L 82.771901 135.893406 
L 82.365575 139.081987 
L 81.959249 141.966753 
L 81.552923 154.525129 
L 81.146597 148.65795 
L 80.740271 159.007666 
L 80.333945 159.28031 
L 79.927619 168.038096 
L 79.521293 166.773046 
L 79.114966 167.741863 
L 78.70864 167.552189 
L 78.302314 176.347718 
L 77.895988 181.990137 
L 77.489662 190.232913 
L 77.083336 197.394358 
L 76.67701 213.026962 
L 76.270684 221.765404 
L 75.864358 227.939492 
L 75.458032 251.105279 
L 75.051706 263.532604 
L 74.645379 264.545888 
L 74.239053 280.336251 
L 73.832727 192.734988 
z
" style="fill:#ff0000;fill-opacity:0.2;stroke:#ff0000;stroke-opacity:0.2;"/>
   </g>
   <g id="matplotlib.axis_1">
    <g id="xtick_1">
     <g id="line2d_1">
      <path clip-path="url(#p9ca472727c)" d="M 73.832727 307.584 
L 73.832727 41.472 
" style="fill:none;stroke:#b0b0b0;stroke-linecap:square;stroke-width:0.8;"/>
     </g>
     <g id="line2d_2">
      <defs>
       <path d="M 0 0 
L 0 3.5 
" id="mb73186f202" style="stroke:#000000;stroke-width:0.8;"/>
      </defs>
      <g>
       <use style="stroke:#000000;stroke-width:0.8;" x="73.832727" xlink:href="#mb73186f202" y="307.584"/>
      </g>
     </g>
     <g id="text_1">
      <!-- 0 -->
      <g transform="translate(70.651477 322.182437)scale(0.1 -0.1)">
       <defs>
        <path d="M 2034 4250 
Q 1547 4250 1301 3770 
Q 1056 3291 1056 2328 
Q 1056 1369 1301 889 
Q 1547 409 2034 409 
Q 2525 409 2770 889 
Q 3016 1369 3016 2328 
Q 3016 3291 2770 3770 
Q 2525 4250 2034 4250 
z
M 2034 4750 
Q 2819 4750 3233 4129 
Q 3647 3509 3647 2328 
Q 3647 1150 3233 529 
Q 2819 -91 2034 -91 
Q 1250 -91 836 529 
Q 422 1150 422 2328 
Q 422 3509 836 4129 
Q 1250 4750 2034 4750 
z
" id="DejaVuSans-30" transform="scale(0.015625)"/>
       </defs>
       <use xlink:href="#DejaVuSans-30"/>
      </g>
     </g>
    </g>
    <g id="xtick_2">
     <g id="line2d_3">
      <path clip-path="url(#p9ca472727c)" d="M 114.465336 307.584 
L 114.465336 41.472 
" style="fill:none;stroke:#b0b0b0;stroke-linecap:square;stroke-width:0.8;"/>
     </g>
     <g id="line2d_4">
      <g>
       <use style="stroke:#000000;stroke-width:0.8;" x="114.465336" xlink:href="#mb73186f202" y="307.584"/>
      </g>
     </g>
     <g id="text_2">
      <!-- 5000 -->
      <g transform="translate(101.740336 322.182437)scale(0.1 -0.1)">
       <defs>
        <path d="M 691 4666 
L 3169 4666 
L 3169 4134 
L 1269 4134 
L 1269 2991 
Q 1406 3038 1543 3061 
Q 1681 3084 1819 3084 
Q 2600 3084 3056 2656 
Q 3513 2228 3513 1497 
Q 3513 744 3044 326 
Q 2575 -91 1722 -91 
Q 1428 -91 1123 -41 
Q 819 9 494 109 
L 494 744 
Q 775 591 1075 516 
Q 1375 441 1709 441 
Q 2250 441 2565 725 
Q 2881 1009 2881 1497 
Q 2881 1984 2565 2268 
Q 2250 2553 1709 2553 
Q 1456 2553 1204 2497 
Q 953 2441 691 2322 
L 691 4666 
z
" id="DejaVuSans-35" transform="scale(0.015625)"/>
       </defs>
       <use xlink:href="#DejaVuSans-35"/>
       <use x="63.623047" xlink:href="#DejaVuSans-30"/>
       <use x="127.246094" xlink:href="#DejaVuSans-30"/>
       <use x="190.869141" xlink:href="#DejaVuSans-30"/>
      </g>
     </g>
    </g>
    <g id="xtick_3">
     <g id="line2d_5">
      <path clip-path="url(#p9ca472727c)" d="M 155.097945 307.584 
L 155.097945 41.472 
" style="fill:none;stroke:#b0b0b0;stroke-linecap:square;stroke-width:0.8;"/>
     </g>
     <g id="line2d_6">
      <g>
       <use style="stroke:#000000;stroke-width:0.8;" x="155.097945" xlink:href="#mb73186f202" y="307.584"/>
      </g>
     </g>
     <g id="text_3">
      <!-- 10000 -->
      <g transform="translate(139.191695 322.182437)scale(0.1 -0.1)">
       <defs>
        <path d="M 794 531 
L 1825 531 
L 1825 4091 
L 703 3866 
L 703 4441 
L 1819 4666 
L 2450 4666 
L 2450 531 
L 3481 531 
L 3481 0 
L 794 0 
L 794 531 
z
" id="DejaVuSans-31" transform="scale(0.015625)"/>
       </defs>
       <use xlink:href="#DejaVuSans-31"/>
       <use x="63.623047" xlink:href="#DejaVuSans-30"/>
       <use x="127.246094" xlink:href="#DejaVuSans-30"/>
       <use x="190.869141" xlink:href="#DejaVuSans-30"/>
       <use x="254.492188" xlink:href="#DejaVuSans-30"/>
      </g>
     </g>
    </g>
    <g id="xtick_4">
     <g id="line2d_7">
      <path clip-path="url(#p9ca472727c)" d="M 195.730554 307.584 
L 195.730554 41.472 
" style="fill:none;stroke:#b0b0b0;stroke-linecap:square;stroke-width:0.8;"/>
     </g>
     <g id="line2d_8">
      <g>
       <use style="stroke:#000000;stroke-width:0.8;" x="195.730554" xlink:href="#mb73186f202" y="307.584"/>
      </g>
     </g>
     <g id="text_4">
      <!-- 15000 -->
      <g transform="translate(179.824304 322.182437)scale(0.1 -0.1)">
       <use xlink:href="#DejaVuSans-31"/>
       <use x="63.623047" xlink:href="#DejaVuSans-35"/>
       <use x="127.246094" xlink:href="#DejaVuSans-30"/>
       <use x="190.869141" xlink:href="#DejaVuSans-30"/>
       <use x="254.492188" xlink:href="#DejaVuSans-30"/>
      </g>
     </g>
    </g>
    <g id="xtick_5">
     <g id="line2d_9">
      <path clip-path="url(#p9ca472727c)" d="M 236.363163 307.584 
L 236.363163 41.472 
" style="fill:none;stroke:#b0b0b0;stroke-linecap:square;stroke-width:0.8;"/>
     </g>
     <g id="line2d_10">
      <g>
       <use style="stroke:#000000;stroke-width:0.8;" x="236.363163" xlink:href="#mb73186f202" y="307.584"/>
      </g>
     </g>
     <g id="text_5">
      <!-- 20000 -->
      <g transform="translate(220.456913 322.182437)scale(0.1 -0.1)">
       <defs>
        <path d="M 1228 531 
L 3431 531 
L 3431 0 
L 469 0 
L 469 531 
Q 828 903 1448 1529 
Q 2069 2156 2228 2338 
Q 2531 2678 2651 2914 
Q 2772 3150 2772 3378 
Q 2772 3750 2511 3984 
Q 2250 4219 1831 4219 
Q 1534 4219 1204 4116 
Q 875 4013 500 3803 
L 500 4441 
Q 881 4594 1212 4672 
Q 1544 4750 1819 4750 
Q 2544 4750 2975 4387 
Q 3406 4025 3406 3419 
Q 3406 3131 3298 2873 
Q 3191 2616 2906 2266 
Q 2828 2175 2409 1742 
Q 1991 1309 1228 531 
z
" id="DejaVuSans-32" transform="scale(0.015625)"/>
       </defs>
       <use xlink:href="#DejaVuSans-32"/>
       <use x="63.623047" xlink:href="#DejaVuSans-30"/>
       <use x="127.246094" xlink:href="#DejaVuSans-30"/>
       <use x="190.869141" xlink:href="#DejaVuSans-30"/>
       <use x="254.492188" xlink:href="#DejaVuSans-30"/>
      </g>
     </g>
    </g>
    <g id="xtick_6">
     <g id="line2d_11">
      <path clip-path="url(#p9ca472727c)" d="M 276.995772 307.584 
L 276.995772 41.472 
" style="fill:none;stroke:#b0b0b0;stroke-linecap:square;stroke-width:0.8;"/>
     </g>
     <g id="line2d_12">
      <g>
       <use style="stroke:#000000;stroke-width:0.8;" x="276.995772" xlink:href="#mb73186f202" y="307.584"/>
      </g>
     </g>
     <g id="text_6">
      <!-- 25000 -->
      <g transform="translate(261.089522 322.182437)scale(0.1 -0.1)">
       <use xlink:href="#DejaVuSans-32"/>
       <use x="63.623047" xlink:href="#DejaVuSans-35"/>
       <use x="127.246094" xlink:href="#DejaVuSans-30"/>
       <use x="190.869141" xlink:href="#DejaVuSans-30"/>
       <use x="254.492188" xlink:href="#DejaVuSans-30"/>
      </g>
     </g>
    </g>
    <g id="xtick_7">
     <g id="line2d_13">
      <path clip-path="url(#p9ca472727c)" d="M 317.628381 307.584 
L 317.628381 41.472 
" style="fill:none;stroke:#b0b0b0;stroke-linecap:square;stroke-width:0.8;"/>
     </g>
     <g id="line2d_14">
      <g>
       <use style="stroke:#000000;stroke-width:0.8;" x="317.628381" xlink:href="#mb73186f202" y="307.584"/>
      </g>
     </g>
     <g id="text_7">
      <!-- 30000 -->
      <g transform="translate(301.722131 322.182437)scale(0.1 -0.1)">
       <defs>
        <path d="M 2597 2516 
Q 3050 2419 3304 2112 
Q 3559 1806 3559 1356 
Q 3559 666 3084 287 
Q 2609 -91 1734 -91 
Q 1441 -91 1130 -33 
Q 819 25 488 141 
L 488 750 
Q 750 597 1062 519 
Q 1375 441 1716 441 
Q 2309 441 2620 675 
Q 2931 909 2931 1356 
Q 2931 1769 2642 2001 
Q 2353 2234 1838 2234 
L 1294 2234 
L 1294 2753 
L 1863 2753 
Q 2328 2753 2575 2939 
Q 2822 3125 2822 3475 
Q 2822 3834 2567 4026 
Q 2313 4219 1838 4219 
Q 1578 4219 1281 4162 
Q 984 4106 628 3988 
L 628 4550 
Q 988 4650 1302 4700 
Q 1616 4750 1894 4750 
Q 2613 4750 3031 4423 
Q 3450 4097 3450 3541 
Q 3450 3153 3228 2886 
Q 3006 2619 2597 2516 
z
" id="DejaVuSans-33" transform="scale(0.015625)"/>
       </defs>
       <use xlink:href="#DejaVuSans-33"/>
       <use x="63.623047" xlink:href="#DejaVuSans-30"/>
       <use x="127.246094" xlink:href="#DejaVuSans-30"/>
       <use x="190.869141" xlink:href="#DejaVuSans-30"/>
       <use x="254.492188" xlink:href="#DejaVuSans-30"/>
      </g>
     </g>
    </g>
    <g id="xtick_8">
     <g id="line2d_15">
      <path clip-path="url(#p9ca472727c)" d="M 358.26099 307.584 
L 358.26099 41.472 
" style="fill:none;stroke:#b0b0b0;stroke-linecap:square;stroke-width:0.8;"/>
     </g>
     <g id="line2d_16">
      <g>
       <use style="stroke:#000000;stroke-width:0.8;" x="358.26099" xlink:href="#mb73186f202" y="307.584"/>
      </g>
     </g>
     <g id="text_8">
      <!-- 35000 -->
      <g transform="translate(342.35474 322.182437)scale(0.1 -0.1)">
       <use xlink:href="#DejaVuSans-33"/>
       <use x="63.623047" xlink:href="#DejaVuSans-35"/>
       <use x="127.246094" xlink:href="#DejaVuSans-30"/>
       <use x="190.869141" xlink:href="#DejaVuSans-30"/>
       <use x="254.492188" xlink:href="#DejaVuSans-30"/>
      </g>
     </g>
    </g>
    <g id="xtick_9">
     <g id="line2d_17">
      <path clip-path="url(#p9ca472727c)" d="M 398.893599 307.584 
L 398.893599 41.472 
" style="fill:none;stroke:#b0b0b0;stroke-linecap:square;stroke-width:0.8;"/>
     </g>
     <g id="line2d_18">
      <g>
       <use style="stroke:#000000;stroke-width:0.8;" x="398.893599" xlink:href="#mb73186f202" y="307.584"/>
      </g>
     </g>
     <g id="text_9">
      <!-- 40000 -->
      <g transform="translate(382.987349 322.182437)scale(0.1 -0.1)">
       <defs>
        <path d="M 2419 4116 
L 825 1625 
L 2419 1625 
L 2419 4116 
z
M 2253 4666 
L 3047 4666 
L 3047 1625 
L 3713 1625 
L 3713 1100 
L 3047 1100 
L 3047 0 
L 2419 0 
L 2419 1100 
L 313 1100 
L 313 1709 
L 2253 4666 
z
" id="DejaVuSans-34" transform="scale(0.015625)"/>
       </defs>
       <use xlink:href="#DejaVuSans-34"/>
       <use x="63.623047" xlink:href="#DejaVuSans-30"/>
       <use x="127.246094" xlink:href="#DejaVuSans-30"/>
       <use x="190.869141" xlink:href="#DejaVuSans-30"/>
       <use x="254.492188" xlink:href="#DejaVuSans-30"/>
      </g>
     </g>
    </g>
    <g id="text_10">
     <!-- Epoch -->
     <g transform="translate(220.849063 335.860562)scale(0.1 -0.1)">
      <defs>
       <path d="M 628 4666 
L 3578 4666 
L 3578 4134 
L 1259 4134 
L 1259 2753 
L 3481 2753 
L 3481 2222 
L 1259 2222 
L 1259 531 
L 3634 531 
L 3634 0 
L 628 0 
L 628 4666 
z
" id="DejaVuSans-45" transform="scale(0.015625)"/>
       <path d="M 1159 525 
L 1159 -1331 
L 581 -1331 
L 581 3500 
L 1159 3500 
L 1159 2969 
Q 1341 3281 1617 3432 
Q 1894 3584 2278 3584 
Q 2916 3584 3314 3078 
Q 3713 2572 3713 1747 
Q 3713 922 3314 415 
Q 2916 -91 2278 -91 
Q 1894 -91 1617 61 
Q 1341 213 1159 525 
z
M 3116 1747 
Q 3116 2381 2855 2742 
Q 2594 3103 2138 3103 
Q 1681 3103 1420 2742 
Q 1159 2381 1159 1747 
Q 1159 1113 1420 752 
Q 1681 391 2138 391 
Q 2594 391 2855 752 
Q 3116 1113 3116 1747 
z
" id="DejaVuSans-70" transform="scale(0.015625)"/>
       <path d="M 1959 3097 
Q 1497 3097 1228 2736 
Q 959 2375 959 1747 
Q 959 1119 1226 758 
Q 1494 397 1959 397 
Q 2419 397 2687 759 
Q 2956 1122 2956 1747 
Q 2956 2369 2687 2733 
Q 2419 3097 1959 3097 
z
M 1959 3584 
Q 2709 3584 3137 3096 
Q 3566 2609 3566 1747 
Q 3566 888 3137 398 
Q 2709 -91 1959 -91 
Q 1206 -91 779 398 
Q 353 888 353 1747 
Q 353 2609 779 3096 
Q 1206 3584 1959 3584 
z
" id="DejaVuSans-6f" transform="scale(0.015625)"/>
       <path d="M 3122 3366 
L 3122 2828 
Q 2878 2963 2633 3030 
Q 2388 3097 2138 3097 
Q 1578 3097 1268 2742 
Q 959 2388 959 1747 
Q 959 1106 1268 751 
Q 1578 397 2138 397 
Q 2388 397 2633 464 
Q 2878 531 3122 666 
L 3122 134 
Q 2881 22 2623 -34 
Q 2366 -91 2075 -91 
Q 1284 -91 818 406 
Q 353 903 353 1747 
Q 353 2603 823 3093 
Q 1294 3584 2113 3584 
Q 2378 3584 2631 3529 
Q 2884 3475 3122 3366 
z
" id="DejaVuSans-63" transform="scale(0.015625)"/>
       <path d="M 3513 2113 
L 3513 0 
L 2938 0 
L 2938 2094 
Q 2938 2591 2744 2837 
Q 2550 3084 2163 3084 
Q 1697 3084 1428 2787 
Q 1159 2491 1159 1978 
L 1159 0 
L 581 0 
L 581 4863 
L 1159 4863 
L 1159 2956 
Q 1366 3272 1645 3428 
Q 1925 3584 2291 3584 
Q 2894 3584 3203 3211 
Q 3513 2838 3513 2113 
z
" id="DejaVuSans-68" transform="scale(0.015625)"/>
      </defs>
      <use xlink:href="#DejaVuSans-45"/>
      <use x="63.183594" xlink:href="#DejaVuSans-70"/>
      <use x="126.660156" xlink:href="#DejaVuSans-6f"/>
      <use x="187.841797" xlink:href="#DejaVuSans-63"/>
      <use x="242.822266" xlink:href="#DejaVuSans-68"/>
     </g>
    </g>
   </g>
   <g id="matplotlib.axis_2">
    <g id="ytick_1">
     <g id="line2d_19">
      <path clip-path="url(#p9ca472727c)" d="M 57.6 281.179031 
L 414.72 281.179031 
" style="fill:none;stroke:#b0b0b0;stroke-linecap:square;stroke-width:0.8;"/>
     </g>
     <g id="line2d_20">
      <defs>
       <path d="M 0 0 
L -3.5 0 
" id="m3a933c307a" style="stroke:#000000;stroke-width:0.8;"/>
      </defs>
      <g>
       <use style="stroke:#000000;stroke-width:0.8;" x="57.6" xlink:href="#m3a933c307a" y="281.179031"/>
      </g>
     </g>
     <g id="text_11">
      <!-- $\mathdefault{10^{1}}$ -->
      <g transform="translate(33 284.97825)scale(0.1 -0.1)">
       <use transform="translate(0 0.684375)" xlink:href="#DejaVuSans-31"/>
       <use transform="translate(63.623047 0.684375)" xlink:href="#DejaVuSans-30"/>
       <use transform="translate(128.203125 38.965625)scale(0.7)" xlink:href="#DejaVuSans-31"/>
      </g>
     </g>
    </g>
    <g id="ytick_2">
     <g id="line2d_21">
      <path clip-path="url(#p9ca472727c)" d="M 57.6 206.379523 
L 414.72 206.379523 
" style="fill:none;stroke:#b0b0b0;stroke-linecap:square;stroke-width:0.8;"/>
     </g>
     <g id="line2d_22">
      <g>
       <use style="stroke:#000000;stroke-width:0.8;" x="57.6" xlink:href="#m3a933c307a" y="206.379523"/>
      </g>
     </g>
     <g id="text_12">
      <!-- $\mathdefault{10^{2}}$ -->
      <g transform="translate(33 210.178742)scale(0.1 -0.1)">
       <use transform="translate(0 0.765625)" xlink:href="#DejaVuSans-31"/>
       <use transform="translate(63.623047 0.765625)" xlink:href="#DejaVuSans-30"/>
       <use transform="translate(128.203125 39.046875)scale(0.7)" xlink:href="#DejaVuSans-32"/>
      </g>
     </g>
    </g>
    <g id="ytick_3">
     <g id="line2d_23">
      <path clip-path="url(#p9ca472727c)" d="M 57.6 131.580015 
L 414.72 131.580015 
" style="fill:none;stroke:#b0b0b0;stroke-linecap:square;stroke-width:0.8;"/>
     </g>
     <g id="line2d_24">
      <g>
       <use style="stroke:#000000;stroke-width:0.8;" x="57.6" xlink:href="#m3a933c307a" y="131.580015"/>
      </g>
     </g>
     <g id="text_13">
      <!-- $\mathdefault{10^{3}}$ -->
      <g transform="translate(33 135.379234)scale(0.1 -0.1)">
       <use transform="translate(0 0.765625)" xlink:href="#DejaVuSans-31"/>
       <use transform="translate(63.623047 0.765625)" xlink:href="#DejaVuSans-30"/>
       <use transform="translate(128.203125 39.046875)scale(0.7)" xlink:href="#DejaVuSans-33"/>
      </g>
     </g>
    </g>
    <g id="ytick_4">
     <g id="line2d_25">
      <path clip-path="url(#p9ca472727c)" d="M 57.6 56.780507 
L 414.72 56.780507 
" style="fill:none;stroke:#b0b0b0;stroke-linecap:square;stroke-width:0.8;"/>
     </g>
     <g id="line2d_26">
      <g>
       <use style="stroke:#000000;stroke-width:0.8;" x="57.6" xlink:href="#m3a933c307a" y="56.780507"/>
      </g>
     </g>
     <g id="text_14">
      <!-- $\mathdefault{10^{4}}$ -->
      <g transform="translate(33 60.579726)scale(0.1 -0.1)">
       <use transform="translate(0 0.684375)" xlink:href="#DejaVuSans-31"/>
       <use transform="translate(63.623047 0.684375)" xlink:href="#DejaVuSans-30"/>
       <use transform="translate(128.203125 38.965625)scale(0.7)" xlink:href="#DejaVuSans-34"/>
      </g>
     </g>
    </g>
    <g id="ytick_5">
     <g id="line2d_27">
      <defs>
       <path d="M 0 0 
L -2 0 
" id="mf3b61ac495" style="stroke:#000000;stroke-width:0.6;"/>
      </defs>
      <g>
       <use style="stroke:#000000;stroke-width:0.6;" x="57.6" xlink:href="#mf3b61ac495" y="303.695927"/>
      </g>
     </g>
    </g>
    <g id="ytick_6">
     <g id="line2d_28">
      <g>
       <use style="stroke:#000000;stroke-width:0.6;" x="57.6" xlink:href="#mf3b61ac495" y="297.773209"/>
      </g>
     </g>
    </g>
    <g id="ytick_7">
     <g id="line2d_29">
      <g>
       <use style="stroke:#000000;stroke-width:0.6;" x="57.6" xlink:href="#mf3b61ac495" y="292.765622"/>
      </g>
     </g>
    </g>
    <g id="ytick_8">
     <g id="line2d_30">
      <g>
       <use style="stroke:#000000;stroke-width:0.6;" x="57.6" xlink:href="#mf3b61ac495" y="288.427853"/>
      </g>
     </g>
    </g>
    <g id="ytick_9">
     <g id="line2d_31">
      <g>
       <use style="stroke:#000000;stroke-width:0.6;" x="57.6" xlink:href="#mf3b61ac495" y="284.601669"/>
      </g>
     </g>
    </g>
    <g id="ytick_10">
     <g id="line2d_32">
      <g>
       <use style="stroke:#000000;stroke-width:0.6;" x="57.6" xlink:href="#mf3b61ac495" y="258.662136"/>
      </g>
     </g>
    </g>
    <g id="ytick_11">
     <g id="line2d_33">
      <g>
       <use style="stroke:#000000;stroke-width:0.6;" x="57.6" xlink:href="#mf3b61ac495" y="245.490596"/>
      </g>
     </g>
    </g>
    <g id="ytick_12">
     <g id="line2d_34">
      <g>
       <use style="stroke:#000000;stroke-width:0.6;" x="57.6" xlink:href="#mf3b61ac495" y="236.14524"/>
      </g>
     </g>
    </g>
    <g id="ytick_13">
     <g id="line2d_35">
      <g>
       <use style="stroke:#000000;stroke-width:0.6;" x="57.6" xlink:href="#mf3b61ac495" y="228.896419"/>
      </g>
     </g>
    </g>
    <g id="ytick_14">
     <g id="line2d_36">
      <g>
       <use style="stroke:#000000;stroke-width:0.6;" x="57.6" xlink:href="#mf3b61ac495" y="222.973701"/>
      </g>
     </g>
    </g>
    <g id="ytick_15">
     <g id="line2d_37">
      <g>
       <use style="stroke:#000000;stroke-width:0.6;" x="57.6" xlink:href="#mf3b61ac495" y="217.966114"/>
      </g>
     </g>
    </g>
    <g id="ytick_16">
     <g id="line2d_38">
      <g>
       <use style="stroke:#000000;stroke-width:0.6;" x="57.6" xlink:href="#mf3b61ac495" y="213.628345"/>
      </g>
     </g>
    </g>
    <g id="ytick_17">
     <g id="line2d_39">
      <g>
       <use style="stroke:#000000;stroke-width:0.6;" x="57.6" xlink:href="#mf3b61ac495" y="209.802161"/>
      </g>
     </g>
    </g>
    <g id="ytick_18">
     <g id="line2d_40">
      <g>
       <use style="stroke:#000000;stroke-width:0.6;" x="57.6" xlink:href="#mf3b61ac495" y="183.862628"/>
      </g>
     </g>
    </g>
    <g id="ytick_19">
     <g id="line2d_41">
      <g>
       <use style="stroke:#000000;stroke-width:0.6;" x="57.6" xlink:href="#mf3b61ac495" y="170.691088"/>
      </g>
     </g>
    </g>
    <g id="ytick_20">
     <g id="line2d_42">
      <g>
       <use style="stroke:#000000;stroke-width:0.6;" x="57.6" xlink:href="#mf3b61ac495" y="161.345732"/>
      </g>
     </g>
    </g>
    <g id="ytick_21">
     <g id="line2d_43">
      <g>
       <use style="stroke:#000000;stroke-width:0.6;" x="57.6" xlink:href="#mf3b61ac495" y="154.096911"/>
      </g>
     </g>
    </g>
    <g id="ytick_22">
     <g id="line2d_44">
      <g>
       <use style="stroke:#000000;stroke-width:0.6;" x="57.6" xlink:href="#mf3b61ac495" y="148.174192"/>
      </g>
     </g>
    </g>
    <g id="ytick_23">
     <g id="line2d_45">
      <g>
       <use style="stroke:#000000;stroke-width:0.6;" x="57.6" xlink:href="#mf3b61ac495" y="143.166606"/>
      </g>
     </g>
    </g>
    <g id="ytick_24">
     <g id="line2d_46">
      <g>
       <use style="stroke:#000000;stroke-width:0.6;" x="57.6" xlink:href="#mf3b61ac495" y="138.828836"/>
      </g>
     </g>
    </g>
    <g id="ytick_25">
     <g id="line2d_47">
      <g>
       <use style="stroke:#000000;stroke-width:0.6;" x="57.6" xlink:href="#mf3b61ac495" y="135.002653"/>
      </g>
     </g>
    </g>
    <g id="ytick_26">
     <g id="line2d_48">
      <g>
       <use style="stroke:#000000;stroke-width:0.6;" x="57.6" xlink:href="#mf3b61ac495" y="109.063119"/>
      </g>
     </g>
    </g>
    <g id="ytick_27">
     <g id="line2d_49">
      <g>
       <use style="stroke:#000000;stroke-width:0.6;" x="57.6" xlink:href="#mf3b61ac495" y="95.89158"/>
      </g>
     </g>
    </g>
    <g id="ytick_28">
     <g id="line2d_50">
      <g>
       <use style="stroke:#000000;stroke-width:0.6;" x="57.6" xlink:href="#mf3b61ac495" y="86.546224"/>
      </g>
     </g>
    </g>
    <g id="ytick_29">
     <g id="line2d_51">
      <g>
       <use style="stroke:#000000;stroke-width:0.6;" x="57.6" xlink:href="#mf3b61ac495" y="79.297403"/>
      </g>
     </g>
    </g>
    <g id="ytick_30">
     <g id="line2d_52">
      <g>
       <use style="stroke:#000000;stroke-width:0.6;" x="57.6" xlink:href="#mf3b61ac495" y="73.374684"/>
      </g>
     </g>
    </g>
    <g id="ytick_31">
     <g id="line2d_53">
      <g>
       <use style="stroke:#000000;stroke-width:0.6;" x="57.6" xlink:href="#mf3b61ac495" y="68.367097"/>
      </g>
     </g>
    </g>
    <g id="ytick_32">
     <g id="line2d_54">
      <g>
       <use style="stroke:#000000;stroke-width:0.6;" x="57.6" xlink:href="#mf3b61ac495" y="64.029328"/>
      </g>
     </g>
    </g>
    <g id="ytick_33">
     <g id="line2d_55">
      <g>
       <use style="stroke:#000000;stroke-width:0.6;" x="57.6" xlink:href="#mf3b61ac495" y="60.203145"/>
      </g>
     </g>
    </g>
    <g id="text_15">
     <!-- Average Epoch Loss -->
     <g transform="translate(26.920312 224.517063)rotate(-90)scale(0.1 -0.1)">
      <defs>
       <path d="M 2188 4044 
L 1331 1722 
L 3047 1722 
L 2188 4044 
z
M 1831 4666 
L 2547 4666 
L 4325 0 
L 3669 0 
L 3244 1197 
L 1141 1197 
L 716 0 
L 50 0 
L 1831 4666 
z
" id="DejaVuSans-41" transform="scale(0.015625)"/>
       <path d="M 191 3500 
L 800 3500 
L 1894 563 
L 2988 3500 
L 3597 3500 
L 2284 0 
L 1503 0 
L 191 3500 
z
" id="DejaVuSans-76" transform="scale(0.015625)"/>
       <path d="M 3597 1894 
L 3597 1613 
L 953 1613 
Q 991 1019 1311 708 
Q 1631 397 2203 397 
Q 2534 397 2845 478 
Q 3156 559 3463 722 
L 3463 178 
Q 3153 47 2828 -22 
Q 2503 -91 2169 -91 
Q 1331 -91 842 396 
Q 353 884 353 1716 
Q 353 2575 817 3079 
Q 1281 3584 2069 3584 
Q 2775 3584 3186 3129 
Q 3597 2675 3597 1894 
z
M 3022 2063 
Q 3016 2534 2758 2815 
Q 2500 3097 2075 3097 
Q 1594 3097 1305 2825 
Q 1016 2553 972 2059 
L 3022 2063 
z
" id="DejaVuSans-65" transform="scale(0.015625)"/>
       <path d="M 2631 2963 
Q 2534 3019 2420 3045 
Q 2306 3072 2169 3072 
Q 1681 3072 1420 2755 
Q 1159 2438 1159 1844 
L 1159 0 
L 581 0 
L 581 3500 
L 1159 3500 
L 1159 2956 
Q 1341 3275 1631 3429 
Q 1922 3584 2338 3584 
Q 2397 3584 2469 3576 
Q 2541 3569 2628 3553 
L 2631 2963 
z
" id="DejaVuSans-72" transform="scale(0.015625)"/>
       <path d="M 2194 1759 
Q 1497 1759 1228 1600 
Q 959 1441 959 1056 
Q 959 750 1161 570 
Q 1363 391 1709 391 
Q 2188 391 2477 730 
Q 2766 1069 2766 1631 
L 2766 1759 
L 2194 1759 
z
M 3341 1997 
L 3341 0 
L 2766 0 
L 2766 531 
Q 2569 213 2275 61 
Q 1981 -91 1556 -91 
Q 1019 -91 701 211 
Q 384 513 384 1019 
Q 384 1609 779 1909 
Q 1175 2209 1959 2209 
L 2766 2209 
L 2766 2266 
Q 2766 2663 2505 2880 
Q 2244 3097 1772 3097 
Q 1472 3097 1187 3025 
Q 903 2953 641 2809 
L 641 3341 
Q 956 3463 1253 3523 
Q 1550 3584 1831 3584 
Q 2591 3584 2966 3190 
Q 3341 2797 3341 1997 
z
" id="DejaVuSans-61" transform="scale(0.015625)"/>
       <path d="M 2906 1791 
Q 2906 2416 2648 2759 
Q 2391 3103 1925 3103 
Q 1463 3103 1205 2759 
Q 947 2416 947 1791 
Q 947 1169 1205 825 
Q 1463 481 1925 481 
Q 2391 481 2648 825 
Q 2906 1169 2906 1791 
z
M 3481 434 
Q 3481 -459 3084 -895 
Q 2688 -1331 1869 -1331 
Q 1566 -1331 1297 -1286 
Q 1028 -1241 775 -1147 
L 775 -588 
Q 1028 -725 1275 -790 
Q 1522 -856 1778 -856 
Q 2344 -856 2625 -561 
Q 2906 -266 2906 331 
L 2906 616 
Q 2728 306 2450 153 
Q 2172 0 1784 0 
Q 1141 0 747 490 
Q 353 981 353 1791 
Q 353 2603 747 3093 
Q 1141 3584 1784 3584 
Q 2172 3584 2450 3431 
Q 2728 3278 2906 2969 
L 2906 3500 
L 3481 3500 
L 3481 434 
z
" id="DejaVuSans-67" transform="scale(0.015625)"/>
       <path id="DejaVuSans-20" transform="scale(0.015625)"/>
       <path d="M 628 4666 
L 1259 4666 
L 1259 531 
L 3531 531 
L 3531 0 
L 628 0 
L 628 4666 
z
" id="DejaVuSans-4c" transform="scale(0.015625)"/>
       <path d="M 2834 3397 
L 2834 2853 
Q 2591 2978 2328 3040 
Q 2066 3103 1784 3103 
Q 1356 3103 1142 2972 
Q 928 2841 928 2578 
Q 928 2378 1081 2264 
Q 1234 2150 1697 2047 
L 1894 2003 
Q 2506 1872 2764 1633 
Q 3022 1394 3022 966 
Q 3022 478 2636 193 
Q 2250 -91 1575 -91 
Q 1294 -91 989 -36 
Q 684 19 347 128 
L 347 722 
Q 666 556 975 473 
Q 1284 391 1588 391 
Q 1994 391 2212 530 
Q 2431 669 2431 922 
Q 2431 1156 2273 1281 
Q 2116 1406 1581 1522 
L 1381 1569 
Q 847 1681 609 1914 
Q 372 2147 372 2553 
Q 372 3047 722 3315 
Q 1072 3584 1716 3584 
Q 2034 3584 2315 3537 
Q 2597 3491 2834 3397 
z
" id="DejaVuSans-73" transform="scale(0.015625)"/>
      </defs>
      <use xlink:href="#DejaVuSans-41"/>
      <use x="62.533203" xlink:href="#DejaVuSans-76"/>
      <use x="121.712891" xlink:href="#DejaVuSans-65"/>
      <use x="183.236328" xlink:href="#DejaVuSans-72"/>
      <use x="224.349609" xlink:href="#DejaVuSans-61"/>
      <use x="285.628906" xlink:href="#DejaVuSans-67"/>
      <use x="349.105469" xlink:href="#DejaVuSans-65"/>
      <use x="410.628906" xlink:href="#DejaVuSans-20"/>
      <use x="442.416016" xlink:href="#DejaVuSans-45"/>
      <use x="505.599609" xlink:href="#DejaVuSans-70"/>
      <use x="569.076172" xlink:href="#DejaVuSans-6f"/>
      <use x="630.257812" xlink:href="#DejaVuSans-63"/>
      <use x="685.238281" xlink:href="#DejaVuSans-68"/>
      <use x="748.617188" xlink:href="#DejaVuSans-20"/>
      <use x="780.404297" xlink:href="#DejaVuSans-4c"/>
      <use x="834.367188" xlink:href="#DejaVuSans-6f"/>
      <use x="895.548828" xlink:href="#DejaVuSans-73"/>
      <use x="947.648438" xlink:href="#DejaVuSans-73"/>
     </g>
    </g>
   </g>
   <g id="line2d_56">
    <path clip-path="url(#p9ca472727c)" d="M 73.832727 240.732358 
L 74.239053 287.036629 
L 74.645379 274.429198 
L 75.051706 272.33524 
L 75.458032 259.813989 
L 75.864358 240.025049 
L 76.270684 231.518751 
L 76.67701 227.536521 
L 77.083336 210.865627 
L 77.489662 204.75621 
L 78.302314 190.966199 
L 78.70864 183.617189 
L 79.114966 182.999137 
L 79.521293 181.699708 
L 79.927619 181.490097 
L 80.333945 174.115852 
L 80.740271 172.101216 
L 81.146597 164.073213 
L 81.552923 170.969901 
L 81.959249 160.647203 
L 82.771901 148.88353 
L 83.178227 151.081688 
L 83.99088 144.437385 
L 84.803532 120.71457 
L 85.209858 116.403203 
L 85.616184 106.023103 
L 86.02251 90.814627 
L 86.428836 68.726515 
L 86.835162 64.603534 
L 87.241488 74.384857 
L 87.647814 105.533419 
L 88.05414 97.739311 
L 88.460466 96.903623 
L 89.273119 139.677547 
L 89.679445 155.744656 
L 90.085771 161.382577 
L 90.492097 170.842118 
L 90.898423 168.367151 
L 91.304749 175.035259 
L 92.117401 180.18282 
L 92.523727 181.160345 
L 93.33638 185.106487 
L 93.742706 184.542882 
L 94.149032 183.439445 
L 94.555358 185.930144 
L 94.961684 185.925598 
L 95.36801 187.994225 
L 95.774336 188.081392 
L 96.180662 189.887362 
L 96.993314 190.688529 
L 97.39964 192.027663 
L 97.805967 190.960552 
L 98.212293 191.980256 
L 98.618619 192.144055 
L 99.024945 195.200799 
L 99.431271 193.688989 
L 99.837597 195.059938 
L 100.243923 193.374604 
L 100.650249 193.605072 
L 101.056575 197.110811 
L 101.462901 198.880354 
L 102.275554 195.911086 
L 102.68188 195.641471 
L 103.088206 198.539775 
L 103.494532 196.647932 
L 103.900858 197.433366 
L 104.307184 199.573451 
L 104.71351 195.689456 
L 105.119836 198.654037 
L 105.526162 198.910195 
L 105.932488 202.402873 
L 106.745141 200.315503 
L 107.151467 201.492681 
L 107.557793 199.143333 
L 107.964119 203.182091 
L 108.370445 200.650315 
L 108.776771 202.515938 
L 109.183097 202.356104 
L 109.589423 202.901404 
L 109.995749 200.391113 
L 110.402075 202.406108 
L 110.808401 201.9735 
L 111.621054 204.284245 
L 112.02738 205.909482 
L 112.433706 206.736797 
L 112.840032 203.458541 
L 113.246358 206.335722 
L 114.05901 204.976891 
L 114.465336 206.263463 
L 114.871662 203.45383 
L 115.277988 207.81485 
L 115.684314 205.807381 
L 116.090641 207.649101 
L 116.496967 208.46617 
L 116.903293 211.008754 
L 117.309619 212.099252 
L 117.715945 209.970862 
L 118.122271 211.135017 
L 118.528597 213.678327 
L 118.934923 210.261216 
L 119.341249 211.772076 
L 119.747575 210.636283 
L 120.153901 211.936142 
L 120.560228 211.421035 
L 120.966554 212.756231 
L 121.37288 214.917416 
L 121.779206 214.187569 
L 122.185532 215.290495 
L 122.591858 214.046517 
L 122.998184 213.490542 
L 123.40451 216.351523 
L 123.810836 214.969938 
L 124.217162 218.430728 
L 124.623488 219.48345 
L 125.029815 219.179428 
L 125.436141 220.225748 
L 125.842467 218.164722 
L 126.248793 220.944271 
L 126.655119 221.771666 
L 127.061445 223.581762 
L 127.467771 229.186511 
L 127.874097 238.465078 
L 128.280423 239.004861 
L 128.686749 232.707976 
L 129.499402 237.17964 
L 129.905728 237.527794 
L 130.312054 236.674715 
L 130.71838 242.048229 
L 131.124706 239.325416 
L 131.531032 238.035592 
L 131.937358 240.827869 
L 132.343684 240.846682 
L 132.75001 236.028662 
L 133.156336 236.130799 
L 133.562662 243.192486 
L 133.968989 238.428006 
L 134.375315 241.136723 
L 134.781641 240.292592 
L 135.187967 238.119968 
L 135.594293 241.0279 
L 136.000619 241.408085 
L 136.406945 235.671642 
L 136.813271 241.158283 
L 137.219597 239.114212 
L 137.625923 240.519272 
L 138.032249 238.741571 
L 138.438575 234.06184 
L 138.844902 237.624494 
L 139.251228 237.686707 
L 140.06388 235.04808 
L 140.470206 237.569351 
L 140.876532 236.320686 
L 141.282858 232.932002 
L 141.689184 232.798012 
L 142.09551 233.256459 
L 142.501836 232.450109 
L 142.908162 229.061711 
L 143.314489 233.172483 
L 143.720815 230.577676 
L 144.127141 232.52473 
L 144.533467 228.065941 
L 144.939793 234.984113 
L 145.346119 230.903907 
L 145.752445 228.39297 
L 146.158771 231.285731 
L 146.565097 230.185126 
L 146.971423 232.815764 
L 147.377749 234.497338 
L 147.784076 233.003207 
L 148.190402 229.290767 
L 148.596728 227.707672 
L 149.003054 231.839076 
L 149.40938 229.697958 
L 149.815706 231.104643 
L 150.222032 228.496238 
L 150.628358 228.907339 
L 151.034684 230.633705 
L 151.44101 229.512245 
L 151.847336 230.04555 
L 152.253663 231.621134 
L 152.659989 230.622811 
L 153.066315 235.948092 
L 153.878967 229.753303 
L 154.285293 228.528829 
L 154.691619 231.897459 
L 155.097945 236.428862 
L 155.504271 232.135461 
L 155.910597 223.367764 
L 156.316923 224.98663 
L 156.72325 232.981577 
L 157.129576 232.098964 
L 157.535902 229.48085 
L 157.942228 230.010735 
L 158.348554 228.075961 
L 158.75488 229.694832 
L 159.161206 228.395057 
L 159.973858 227.204927 
L 160.380184 231.45193 
L 160.78651 226.193298 
L 161.192837 227.465984 
L 161.599163 229.852512 
L 162.005489 231.025715 
L 162.411815 230.593882 
L 162.818141 231.695791 
L 163.224467 229.664073 
L 163.630793 230.978926 
L 164.037119 230.489598 
L 164.443445 230.381517 
L 164.849771 228.648423 
L 165.256097 226.089247 
L 165.662423 226.741415 
L 166.06875 224.785586 
L 166.475076 222.214829 
L 166.881402 229.536485 
L 167.287728 230.329571 
L 167.694054 224.35668 
L 168.10038 230.026907 
L 168.506706 230.721041 
L 168.913032 230.080501 
L 169.319358 227.360348 
L 169.725684 229.022986 
L 170.13201 234.189915 
L 170.538337 231.38983 
L 170.944663 227.703233 
L 171.350989 233.12907 
L 171.757315 232.188979 
L 172.163641 232.325295 
L 172.569967 228.280866 
L 172.976293 233.569185 
L 173.382619 230.152099 
L 173.788945 233.311661 
L 174.195271 234.547683 
L 174.601597 233.951557 
L 175.007924 234.082332 
L 175.41425 235.390887 
L 175.820576 236.159002 
L 176.226902 230.940357 
L 176.633228 229.277435 
L 177.039554 233.657244 
L 177.44588 234.520992 
L 177.852206 234.588539 
L 178.258532 233.533989 
L 178.664858 230.826905 
L 179.071184 229.563788 
L 179.477511 230.200979 
L 179.883837 230.237098 
L 180.290163 233.413637 
L 180.696489 235.517948 
L 181.102815 231.438383 
L 181.509141 234.126459 
L 181.915467 231.807278 
L 182.321793 232.546669 
L 182.728119 232.589483 
L 183.134445 231.759138 
L 183.540771 237.825287 
L 183.947098 239.874213 
L 184.353424 233.999959 
L 185.166076 239.148516 
L 185.572402 237.89166 
L 185.978728 233.648808 
L 186.385054 232.365819 
L 186.79138 232.348931 
L 187.197706 236.525925 
L 187.604032 233.207083 
L 188.416684 235.264072 
L 188.823011 238.591344 
L 189.229337 236.932959 
L 189.635663 235.807187 
L 190.041989 239.278779 
L 190.448315 238.338344 
L 190.854641 234.177661 
L 191.260967 241.400127 
L 191.667293 239.081201 
L 192.073619 235.449706 
L 192.479945 235.160052 
L 192.886271 231.196303 
L 193.292598 237.789163 
L 193.698924 239.577743 
L 194.10525 239.273469 
L 194.511576 235.487656 
L 194.917902 242.113779 
L 195.324228 242.195955 
L 195.730554 234.422716 
L 196.13688 236.638522 
L 196.949532 231.669591 
L 197.355858 235.607943 
L 197.762185 237.685793 
L 198.168511 230.126655 
L 198.574837 239.917567 
L 198.981163 233.666986 
L 199.387489 238.082006 
L 199.793815 239.612502 
L 200.200141 236.863165 
L 200.606467 235.330854 
L 201.012793 234.487833 
L 201.419119 236.455412 
L 201.825445 235.696154 
L 202.231772 235.542907 
L 202.638098 234.491071 
L 203.044424 235.609959 
L 203.45075 236.218612 
L 203.857076 238.280185 
L 204.263402 236.397475 
L 204.669728 235.772619 
L 205.076054 236.339624 
L 205.48238 237.679002 
L 205.888706 240.025326 
L 206.295032 236.765177 
L 206.701359 236.354584 
L 207.107685 236.959185 
L 207.514011 237.926408 
L 207.920337 236.179607 
L 208.326663 238.883604 
L 208.732989 237.860919 
L 209.139315 238.335432 
L 209.545641 234.608893 
L 209.951967 237.206838 
L 210.358293 234.984628 
L 210.764619 239.452916 
L 211.170946 232.616986 
L 211.577272 232.447387 
L 211.983598 231.956903 
L 212.389924 233.542823 
L 212.79625 233.688727 
L 213.202576 236.723439 
L 213.608902 232.166748 
L 214.015228 233.339993 
L 214.421554 232.818095 
L 214.82788 232.979592 
L 215.234206 230.21649 
L 215.640532 225.723783 
L 216.046859 230.859744 
L 216.453185 230.911048 
L 216.859511 234.057668 
L 217.265837 235.34781 
L 217.672163 235.728751 
L 218.078489 237.194296 
L 218.891141 233.800941 
L 219.297467 234.201117 
L 219.703793 228.937822 
L 220.110119 225.794749 
L 220.516446 232.231952 
L 220.922772 236.754931 
L 221.329098 233.160057 
L 221.735424 236.247078 
L 222.14175 235.910442 
L 222.548076 235.423839 
L 222.954402 232.615166 
L 223.360728 238.396682 
L 223.767054 232.610032 
L 224.579706 235.681736 
L 224.986033 231.585292 
L 225.392359 232.07749 
L 225.798685 229.331938 
L 226.205011 216.569474 
L 226.611337 211.869325 
L 227.017663 233.792007 
L 227.423989 241.432223 
L 227.830315 236.190636 
L 228.236641 236.578687 
L 228.642967 238.301947 
L 229.049293 237.895713 
L 229.45562 237.812737 
L 229.861946 230.787968 
L 230.268272 229.740977 
L 230.674598 236.925547 
L 231.48725 232.613255 
L 231.893576 232.713864 
L 232.299902 235.519035 
L 232.706228 230.28663 
L 233.112554 235.406592 
L 233.51888 235.50369 
L 233.925207 234.574055 
L 234.331533 234.308837 
L 234.737859 235.75174 
L 235.144185 234.797264 
L 235.550511 237.828254 
L 235.956837 237.009742 
L 236.363163 237.547216 
L 236.769489 237.121328 
L 237.175815 236.275605 
L 237.582141 230.967598 
L 237.988467 229.573263 
L 238.80112 230.815762 
L 239.207446 231.977268 
L 239.613772 228.950281 
L 240.020098 228.01882 
L 240.426424 230.242291 
L 240.83275 230.77216 
L 241.239076 233.050943 
L 241.645402 229.391042 
L 242.051728 237.911874 
L 242.458054 237.55832 
L 242.86438 232.347879 
L 243.270707 232.980819 
L 243.677033 235.349031 
L 244.083359 234.827441 
L 244.489685 232.661028 
L 244.896011 223.038571 
L 245.302337 224.035 
L 245.708663 233.260014 
L 246.114989 234.798019 
L 246.521315 236.851026 
L 246.927641 229.693389 
L 247.333967 237.085989 
L 247.740294 239.505845 
L 248.14662 238.202327 
L 248.552946 235.124444 
L 248.959272 236.492625 
L 249.365598 233.067179 
L 249.771924 234.927153 
L 250.17825 234.681094 
L 250.584576 237.008182 
L 250.990902 234.243406 
L 251.397228 234.001807 
L 251.803554 221.390983 
L 252.209881 238.503718 
L 252.616207 236.899194 
L 253.022533 235.862456 
L 253.428859 236.265352 
L 253.835185 227.428498 
L 254.241511 237.718287 
L 254.647837 238.174687 
L 255.054163 241.455048 
L 255.460489 237.979475 
L 255.866815 237.498554 
L 256.273141 232.322804 
L 256.679468 236.810238 
L 257.085794 240.0309 
L 257.49212 238.287932 
L 257.898446 233.854403 
L 258.304772 237.166385 
L 258.711098 237.776059 
L 259.117424 232.132198 
L 259.930076 237.619433 
L 260.742728 232.534893 
L 261.149054 232.091518 
L 261.555381 222.714733 
L 261.961707 234.900512 
L 262.368033 236.481505 
L 262.774359 236.74109 
L 263.180685 236.116885 
L 263.587011 231.3797 
L 263.993337 233.935842 
L 264.399663 232.252856 
L 264.805989 237.496464 
L 265.212315 234.868925 
L 265.618641 234.867016 
L 266.024968 237.43596 
L 266.431294 237.285286 
L 266.83762 238.944936 
L 267.243946 229.372303 
L 267.650272 232.5653 
L 268.056598 232.879775 
L 268.462924 236.486369 
L 268.86925 234.110048 
L 269.275576 236.57042 
L 269.681902 212.401507 
L 270.088228 197.119519 
L 270.494555 209.598559 
L 270.900881 230.780474 
L 271.307207 228.26625 
L 271.713533 240.233485 
L 272.119859 242.985182 
L 272.526185 242.049157 
L 272.932511 237.361313 
L 273.338837 240.596188 
L 273.745163 236.857536 
L 274.151489 240.088758 
L 274.557815 235.356676 
L 274.964142 237.566565 
L 275.370468 236.35094 
L 275.776794 236.331785 
L 276.18312 233.137008 
L 276.589446 239.05613 
L 276.995772 231.479786 
L 277.402098 239.443072 
L 277.808424 234.535043 
L 278.21475 240.29395 
L 278.621076 236.339164 
L 279.027402 233.634209 
L 279.433729 233.681631 
L 279.840055 241.471998 
L 280.246381 237.338044 
L 280.652707 236.535106 
L 281.059033 232.573162 
L 281.465359 236.566256 
L 281.871685 237.547572 
L 282.278011 241.668534 
L 283.090663 235.393202 
L 283.496989 235.639089 
L 283.903316 235.590089 
L 284.309642 236.898588 
L 285.122294 242.974829 
L 285.52862 237.829244 
L 285.934946 237.555403 
L 286.341272 239.873647 
L 286.747598 238.397838 
L 287.153924 238.97838 
L 287.56025 241.791375 
L 287.966576 234.058842 
L 288.372902 239.023893 
L 288.779229 237.515699 
L 289.185555 239.706191 
L 289.591881 235.959661 
L 289.998207 235.371165 
L 290.404533 235.122988 
L 290.810859 240.2683 
L 291.217185 235.115675 
L 291.623511 234.869358 
L 292.029837 230.322401 
L 292.436163 236.706977 
L 292.842489 241.196864 
L 293.248816 236.660913 
L 293.655142 234.274145 
L 294.061468 228.920566 
L 294.467794 233.605658 
L 294.87412 233.82109 
L 295.280446 237.755678 
L 295.686772 237.20381 
L 296.093098 241.053972 
L 296.499424 235.281016 
L 296.90575 238.058119 
L 297.312076 233.379608 
L 297.718403 236.887351 
L 298.124729 229.330514 
L 298.531055 232.744047 
L 298.937381 238.79974 
L 299.343707 238.259093 
L 299.750033 240.032148 
L 300.156359 235.030657 
L 300.562685 237.41764 
L 300.969011 235.530879 
L 301.375337 237.99998 
L 301.781663 233.326418 
L 302.594316 238.542936 
L 303.000642 239.118862 
L 303.406968 234.904371 
L 303.813294 238.368012 
L 304.21962 238.193758 
L 304.625946 237.184583 
L 305.032272 236.977116 
L 305.438598 239.933638 
L 305.844924 244.216369 
L 306.25125 241.37037 
L 306.657577 240.302899 
L 307.063903 238.827959 
L 307.470229 241.12813 
L 307.876555 238.788279 
L 308.282881 237.373153 
L 308.689207 236.632736 
L 309.095533 239.429122 
L 309.501859 238.255816 
L 309.908185 239.205534 
L 310.314511 238.729691 
L 310.720837 240.798984 
L 311.127163 245.297482 
L 311.53349 239.164079 
L 311.939816 228.562271 
L 312.346142 241.760746 
L 312.752468 232.670796 
L 313.158794 231.800846 
L 313.56512 237.431413 
L 313.971446 234.726233 
L 314.377772 238.909157 
L 314.784098 238.473937 
L 315.190424 232.46219 
L 315.59675 239.00038 
L 316.003077 242.675223 
L 316.409403 239.326817 
L 316.815729 244.06917 
L 317.222055 240.701762 
L 317.628381 240.8244 
L 318.034707 241.275153 
L 318.441033 240.442779 
L 318.847359 241.630821 
L 319.253685 244.220318 
L 319.660011 238.344459 
L 320.066337 240.653462 
L 320.472664 238.369805 
L 320.87899 240.151813 
L 321.285316 237.583334 
L 321.691642 237.06782 
L 322.097968 233.587633 
L 322.504294 240.300048 
L 322.91062 238.669039 
L 323.316946 241.581108 
L 324.129598 237.041443 
L 324.535924 238.463953 
L 324.942251 241.343751 
L 325.754903 228.42995 
L 326.161229 226.862632 
L 326.567555 193.589118 
L 326.973881 183.251757 
L 327.380207 218.070224 
L 327.786533 199.719837 
L 328.192859 191.899567 
L 328.599185 196.413087 
L 329.005511 221.803856 
L 329.411838 226.891649 
L 329.818164 217.229727 
L 330.22449 202.799823 
L 330.630816 200.027188 
L 331.037142 216.588659 
L 331.849794 175.511101 
L 332.25612 193.707977 
L 332.662446 205.236178 
L 333.068772 205.919844 
L 333.475098 209.098816 
L 333.881425 213.495065 
L 334.287751 226.83545 
L 334.694077 226.448538 
L 335.100403 197.238199 
L 335.506729 210.281701 
L 335.913055 219.232095 
L 336.319381 221.044427 
L 336.725707 219.957656 
L 337.132033 199.092936 
L 337.538359 197.996311 
L 337.944685 212.734899 
L 338.351011 217.04332 
L 338.757338 226.063889 
L 339.163664 214.392627 
L 339.56999 221.467479 
L 339.976316 219.770635 
L 340.382642 219.400024 
L 340.788968 211.880231 
L 341.195294 230.36551 
L 341.60162 225.467938 
L 342.007946 235.551255 
L 342.414272 227.804208 
L 342.820598 223.804964 
L 343.226925 226.077936 
L 343.633251 234.181943 
L 344.039577 229.030007 
L 344.445903 228.817384 
L 344.852229 229.081545 
L 345.258555 228.667613 
L 345.664881 230.858235 
L 346.071207 231.37887 
L 346.477533 231.357877 
L 346.883859 236.224447 
L 347.290185 237.150699 
L 347.696512 232.775494 
L 348.102838 236.549896 
L 348.509164 233.333127 
L 348.91549 238.087036 
L 349.321816 233.738555 
L 349.728142 232.717592 
L 350.134468 227.617201 
L 350.540794 238.571492 
L 351.353446 230.38398 
L 351.759772 227.730357 
L 352.166099 191.926005 
L 352.572425 211.176231 
L 352.978751 220.329364 
L 353.385077 216.566519 
L 353.791403 217.361447 
L 354.197729 224.529436 
L 355.010381 234.158098 
L 355.416707 233.129349 
L 355.823033 241.031787 
L 356.229359 238.434276 
L 356.635686 236.683809 
L 357.042012 232.061062 
L 357.448338 232.547986 
L 357.854664 223.735711 
L 358.26099 232.69545 
L 358.667316 232.903674 
L 359.073642 228.084282 
L 359.886294 232.803544 
L 360.29262 222.991133 
L 360.698946 231.686472 
L 361.105272 234.009082 
L 361.511599 230.660657 
L 361.917925 223.547446 
L 362.324251 230.500415 
L 362.730577 218.76418 
L 363.136903 214.520675 
L 363.543229 221.496586 
L 363.949555 179.670319 
L 364.355881 229.418553 
L 364.762207 231.663674 
L 365.574859 238.543064 
L 365.981186 227.376091 
L 366.387512 234.076605 
L 366.793838 230.508291 
L 367.200164 222.749448 
L 368.012816 220.123838 
L 368.419142 223.707847 
L 368.825468 222.254277 
L 369.231794 220.213051 
L 369.63812 222.20211 
L 370.044446 221.265131 
L 370.450773 223.648072 
L 370.857099 222.579367 
L 371.263425 220.659049 
L 372.076077 213.208786 
L 372.482403 213.059786 
L 372.888729 213.919426 
L 373.295055 213.546923 
L 373.701381 210.844613 
L 374.107707 213.166041 
L 374.514033 213.639125 
L 374.92036 212.815576 
L 375.326686 215.916489 
L 375.733012 214.288701 
L 376.139338 216.091293 
L 376.545664 214.645771 
L 376.95199 209.22516 
L 377.358316 213.50994 
L 377.764642 211.927171 
L 378.170968 214.796937 
L 378.577294 211.958661 
L 378.98362 213.171643 
L 379.389947 216.005727 
L 379.796273 216.178497 
L 380.202599 217.204289 
L 380.608925 214.166001 
L 381.015251 216.410142 
L 381.421577 215.508864 
L 381.827903 213.217135 
L 382.234229 217.084603 
L 383.046881 215.620963 
L 383.453207 216.735063 
L 383.859534 212.81953 
L 384.26586 211.828144 
L 384.672186 212.610527 
L 385.078512 215.828049 
L 385.484838 214.315201 
L 385.891164 213.563843 
L 386.29749 215.742614 
L 386.703816 213.487111 
L 387.110142 214.822186 
L 387.922794 211.821339 
L 388.32912 216.056309 
L 388.735447 213.720113 
L 389.141773 212.127685 
L 389.548099 216.88582 
L 389.954425 213.092456 
L 390.360751 214.385676 
L 390.767077 214.115459 
L 391.173403 214.925309 
L 391.579729 215.111861 
L 391.986055 215.540449 
L 392.392381 214.175068 
L 392.798707 213.59974 
L 393.205034 215.153957 
L 393.61136 215.224205 
L 394.017686 214.535204 
L 394.424012 217.236507 
L 394.830338 216.290819 
L 395.236664 219.54861 
L 395.64299 217.807087 
L 396.049316 212.486165 
L 396.455642 214.983831 
L 396.861968 212.66521 
L 397.268294 214.462552 
L 397.674621 213.548092 
L 398.080947 216.831293 
L 398.487273 212.446469 
L 398.487273 212.446469 
" style="fill:none;stroke:#ff0000;stroke-linecap:square;stroke-width:1.5;"/>
   </g>
   <g id="patch_3">
    <path d="M 57.6 307.584 
L 57.6 41.472 
" style="fill:none;stroke:#000000;stroke-linecap:square;stroke-linejoin:miter;stroke-width:0.8;"/>
   </g>
   <g id="patch_4">
    <path d="M 414.72 307.584 
L 414.72 41.472 
" style="fill:none;stroke:#000000;stroke-linecap:square;stroke-linejoin:miter;stroke-width:0.8;"/>
   </g>
   <g id="patch_5">
    <path d="M 57.6 307.584 
L 414.72 307.584 
" style="fill:none;stroke:#000000;stroke-linecap:square;stroke-linejoin:miter;stroke-width:0.8;"/>
   </g>
   <g id="patch_6">
    <path d="M 57.6 41.472 
L 414.72 41.472 
" style="fill:none;stroke:#000000;stroke-linecap:square;stroke-linejoin:miter;stroke-width:0.8;"/>
   </g>
   <g id="legend_1">
    <g id="patch_7">
     <path d="M 228.37625 64.150125 
L 407.72 64.150125 
Q 409.72 64.150125 409.72 62.150125 
L 409.72 48.472 
Q 409.72 46.472 407.72 46.472 
L 228.37625 46.472 
Q 226.37625 46.472 226.37625 48.472 
L 226.37625 62.150125 
Q 226.37625 64.150125 228.37625 64.150125 
z
" style="fill:#ffffff;opacity:0.8;stroke:#cccccc;stroke-linejoin:miter;"/>
    </g>
    <g id="line2d_57">
     <path d="M 230.37625 54.570438 
L 250.37625 54.570438 
" style="fill:none;stroke:#ff0000;stroke-linecap:square;stroke-width:1.5;"/>
    </g>
    <g id="line2d_58"/>
    <g id="text_16">
     <!-- Average Epoch Loss with Std. -->
     <g transform="translate(258.37625 58.070438)scale(0.1 -0.1)">
      <defs>
       <path d="M 269 3500 
L 844 3500 
L 1563 769 
L 2278 3500 
L 2956 3500 
L 3675 769 
L 4391 3500 
L 4966 3500 
L 4050 0 
L 3372 0 
L 2619 2869 
L 1863 0 
L 1184 0 
L 269 3500 
z
" id="DejaVuSans-77" transform="scale(0.015625)"/>
       <path d="M 603 3500 
L 1178 3500 
L 1178 0 
L 603 0 
L 603 3500 
z
M 603 4863 
L 1178 4863 
L 1178 4134 
L 603 4134 
L 603 4863 
z
" id="DejaVuSans-69" transform="scale(0.015625)"/>
       <path d="M 1172 4494 
L 1172 3500 
L 2356 3500 
L 2356 3053 
L 1172 3053 
L 1172 1153 
Q 1172 725 1289 603 
Q 1406 481 1766 481 
L 2356 481 
L 2356 0 
L 1766 0 
Q 1100 0 847 248 
Q 594 497 594 1153 
L 594 3053 
L 172 3053 
L 172 3500 
L 594 3500 
L 594 4494 
L 1172 4494 
z
" id="DejaVuSans-74" transform="scale(0.015625)"/>
       <path d="M 3425 4513 
L 3425 3897 
Q 3066 4069 2747 4153 
Q 2428 4238 2131 4238 
Q 1616 4238 1336 4038 
Q 1056 3838 1056 3469 
Q 1056 3159 1242 3001 
Q 1428 2844 1947 2747 
L 2328 2669 
Q 3034 2534 3370 2195 
Q 3706 1856 3706 1288 
Q 3706 609 3251 259 
Q 2797 -91 1919 -91 
Q 1588 -91 1214 -16 
Q 841 59 441 206 
L 441 856 
Q 825 641 1194 531 
Q 1563 422 1919 422 
Q 2459 422 2753 634 
Q 3047 847 3047 1241 
Q 3047 1584 2836 1778 
Q 2625 1972 2144 2069 
L 1759 2144 
Q 1053 2284 737 2584 
Q 422 2884 422 3419 
Q 422 4038 858 4394 
Q 1294 4750 2059 4750 
Q 2388 4750 2728 4690 
Q 3069 4631 3425 4513 
z
" id="DejaVuSans-53" transform="scale(0.015625)"/>
       <path d="M 2906 2969 
L 2906 4863 
L 3481 4863 
L 3481 0 
L 2906 0 
L 2906 525 
Q 2725 213 2448 61 
Q 2172 -91 1784 -91 
Q 1150 -91 751 415 
Q 353 922 353 1747 
Q 353 2572 751 3078 
Q 1150 3584 1784 3584 
Q 2172 3584 2448 3432 
Q 2725 3281 2906 2969 
z
M 947 1747 
Q 947 1113 1208 752 
Q 1469 391 1925 391 
Q 2381 391 2643 752 
Q 2906 1113 2906 1747 
Q 2906 2381 2643 2742 
Q 2381 3103 1925 3103 
Q 1469 3103 1208 2742 
Q 947 2381 947 1747 
z
" id="DejaVuSans-64" transform="scale(0.015625)"/>
       <path d="M 684 794 
L 1344 794 
L 1344 0 
L 684 0 
L 684 794 
z
" id="DejaVuSans-2e" transform="scale(0.015625)"/>
      </defs>
      <use xlink:href="#DejaVuSans-41"/>
      <use x="62.533203" xlink:href="#DejaVuSans-76"/>
      <use x="121.712891" xlink:href="#DejaVuSans-65"/>
      <use x="183.236328" xlink:href="#DejaVuSans-72"/>
      <use x="224.349609" xlink:href="#DejaVuSans-61"/>
      <use x="285.628906" xlink:href="#DejaVuSans-67"/>
      <use x="349.105469" xlink:href="#DejaVuSans-65"/>
      <use x="410.628906" xlink:href="#DejaVuSans-20"/>
      <use x="442.416016" xlink:href="#DejaVuSans-45"/>
      <use x="505.599609" xlink:href="#DejaVuSans-70"/>
      <use x="569.076172" xlink:href="#DejaVuSans-6f"/>
      <use x="630.257812" xlink:href="#DejaVuSans-63"/>
      <use x="685.238281" xlink:href="#DejaVuSans-68"/>
      <use x="748.617188" xlink:href="#DejaVuSans-20"/>
      <use x="780.404297" xlink:href="#DejaVuSans-4c"/>
      <use x="834.367188" xlink:href="#DejaVuSans-6f"/>
      <use x="895.548828" xlink:href="#DejaVuSans-73"/>
      <use x="947.648438" xlink:href="#DejaVuSans-73"/>
      <use x="999.748047" xlink:href="#DejaVuSans-20"/>
      <use x="1031.535156" xlink:href="#DejaVuSans-77"/>
      <use x="1113.322266" xlink:href="#DejaVuSans-69"/>
      <use x="1141.105469" xlink:href="#DejaVuSans-74"/>
      <use x="1180.314453" xlink:href="#DejaVuSans-68"/>
      <use x="1243.693359" xlink:href="#DejaVuSans-20"/>
      <use x="1275.480469" xlink:href="#DejaVuSans-53"/>
      <use x="1338.957031" xlink:href="#DejaVuSans-74"/>
      <use x="1378.166016" xlink:href="#DejaVuSans-64"/>
      <use x="1441.642578" xlink:href="#DejaVuSans-2e"/>
     </g>
    </g>
   </g>
  </g>
 </g>
 <defs>
  <clipPath id="p9ca472727c">
   <rect height="266.112" width="357.12" x="57.6" y="41.472"/>
  </clipPath>
 </defs>
</svg>
